<?xml version="1.0" standalone="no"?>
<!DOCTYPE svg PUBLIC "-//W3C//DTD SVG 20010904//EN"
 "http://www.w3.org/TR/2001/REC-SVG-20010904/DTD/svg10.dtd">
<svg version="1.0" xmlns="http://www.w3.org/2000/svg"
 width="1084.000000pt" height="1084.000000pt" viewBox="0 0 1084.000000 1084.000000"
 preserveAspectRatio="xMidYMid meet">
<metadata>
Created by potrace 1.14, written by Peter Selinger 2001-2017
</metadata>
<g transform="translate(0.000000,1084.000000) scale(0.100000,-0.100000)"
fill="#000000" stroke="none">
<path d="M5575 10833 c-135 -25 -311 -83 -327 -107 -4 -6 -8 -8 -8 -3 0 8
-145 -81 -187 -116 -60 -48 -243 -239 -243 -253 0 -1 -13 -22 -29 -46 -69
-105 -191 -370 -191 -417 0 -9 -4 -21 -9 -26 -7 -9 -18 -44 -38 -130 -9 -40
-12 -50 -13 -52 -2 -2 -4 -12 -5 -23 -1 -11 -3 -21 -5 -22 -2 -4 -9 -37 -14
-73 -2 -16 -7 -41 -10 -55 -22 -98 -39 -308 -40 -480 0 -116 10 -304 19 -349
2 -11 6 -46 10 -78 7 -67 10 -88 30 -198 8 -44 17 -93 20 -110 2 -16 7 -41 10
-55 3 -14 7 -40 10 -58 2 -18 7 -37 10 -42 7 -11 -13 -24 -40 -26 -139 -12
-174 -18 -335 -51 -69 -14 -132 -27 -140 -28 -8 -2 -15 -4 -15 -5 0 -1 -9 -4
-20 -6 -34 -8 -50 -12 -50 -14 0 -1 -8 -3 -18 -5 -10 -2 -64 -18 -120 -36 -56
-18 -104 -33 -107 -34 -3 0 -16 -7 -30 -15 -14 -7 -27 -13 -30 -13 -7 1 -95
-32 -160 -60 -14 -5 -28 -10 -32 -9 -5 1 -8 -2 -8 -7 0 -7 -22 -16 -60 -26
-13 -3 -156 -78 -165 -86 -5 -5 -17 -9 -26 -9 -10 0 -19 -4 -21 -8 -1 -5 -39
-28 -83 -52 -100 -53 -110 -59 -162 -93 -24 -15 -45 -27 -48 -27 -3 0 -18 -9
-33 -19 -15 -10 -74 -49 -132 -87 -58 -37 -106 -71 -108 -76 -2 -4 -10 -8 -18
-8 -8 0 -14 -4 -14 -10 0 -5 -7 -10 -15 -10 -8 0 -15 -3 -15 -8 0 -4 -16 -16
-35 -26 -19 -11 -35 -22 -35 -26 0 -4 -12 -12 -27 -19 -16 -7 -35 -19 -43 -27
-8 -8 -69 -53 -135 -101 -66 -48 -125 -92 -132 -98 -7 -5 -18 -14 -25 -20 -32
-24 -135 -112 -159 -135 -176 -167 -258 -253 -394 -415 -22 -26 -44 -55 -49
-64 -5 -9 -12 -18 -16 -21 -25 -19 -260 -362 -260 -379 0 -6 -4 -11 -10 -11
-5 0 -10 -4 -10 -9 0 -5 -20 -44 -45 -85 -72 -123 -168 -317 -228 -463 -36
-87 -40 -97 -42 -105 -2 -5 -4 -10 -5 -13 -1 -3 -3 -8 -5 -12 -1 -5 -7 -21
-14 -38 -7 -16 -14 -34 -15 -40 -1 -5 -7 -26 -13 -45 -28 -91 -53 -177 -57
-200 -2 -14 -11 -56 -20 -95 -15 -73 -25 -132 -31 -200 -2 -22 -8 -78 -13
-125 -10 -84 -8 -518 2 -595 3 -22 8 -65 11 -95 6 -53 12 -102 20 -145 1 -11
6 -38 9 -60 9 -54 22 -111 52 -230 13 -55 27 -109 29 -119 2 -10 10 -35 17
-55 7 -20 13 -38 13 -41 3 -15 20 -64 48 -135 18 -44 32 -82 33 -85 0 -3 11
-27 24 -55 12 -27 23 -56 23 -62 0 -7 3 -13 7 -13 4 0 19 -28 35 -62 16 -35
32 -65 35 -68 4 -3 13 -20 21 -38 8 -17 17 -32 21 -32 5 0 8 -4 8 -10 0 -5 18
-38 40 -72 95 -149 221 -333 231 -336 5 -2 9 -8 9 -14 0 -6 18 -32 40 -58 22
-26 40 -51 40 -54 0 -3 8 -14 18 -24 9 -10 31 -36 47 -57 17 -22 44 -55 61
-75 17 -19 44 -50 60 -69 80 -95 265 -272 383 -367 13 -10 28 -24 35 -29 6 -6
38 -31 71 -55 33 -25 62 -48 63 -52 2 -5 10 -8 17 -8 7 0 15 -4 17 -8 4 -11
239 -164 260 -170 10 -2 18 -8 18 -12 0 -4 8 -10 18 -13 17 -6 72 -37 82 -47
3 -3 30 -18 60 -33 30 -15 107 -55 170 -87 63 -33 115 -59 115 -59 0 0 36 -16
80 -36 93 -44 168 -78 175 -80 15 -5 49 -19 77 -31 17 -8 34 -14 37 -14 3 0
29 -11 58 -25 28 -14 59 -25 68 -25 9 0 20 -4 25 -9 16 -14 408 -156 625 -226
63 -20 133 -43 155 -50 22 -7 87 -28 145 -45 58 -17 116 -35 130 -40 14 -4 70
-20 125 -35 55 -15 107 -29 115 -32 8 -4 19 -5 24 -4 4 1 14 -4 22 -10 8 -7
17 -9 21 -6 3 4 12 2 20 -5 7 -6 16 -8 20 -5 3 4 12 2 20 -4 7 -6 13 -9 13 -6
0 3 15 1 33 -4 48 -15 88 -25 170 -45 9 -2 26 -6 37 -9 11 -3 28 -7 38 -9 122
-27 261 -59 277 -62 11 -3 31 -7 45 -10 14 -2 49 -9 79 -15 30 -6 64 -13 75
-14 12 -2 32 -6 46 -9 14 -3 39 -8 55 -11 80 -12 102 -15 128 -17 15 -1 27 -5
27 -8 0 -3 12 -5 28 -6 15 0 54 -4 87 -8 33 -4 83 -10 110 -14 117 -14 486 -6
585 13 14 2 41 7 60 9 19 3 47 8 61 10 14 3 41 8 60 10 19 3 35 6 37 7 1 1 7
3 12 4 6 1 11 4 13 5 1 1 13 4 27 6 14 2 36 6 50 8 39 8 272 73 300 84 14 5
28 10 33 10 18 1 233 75 245 85 6 5 12 7 12 3 0 -3 37 8 83 25 45 17 87 32 92
33 6 2 17 6 25 9 8 4 53 20 100 37 47 16 117 41 155 55 39 15 90 33 115 41 25
9 53 20 63 25 10 5 22 7 27 4 5 -3 11 -1 15 5 3 5 15 10 26 10 10 0 19 4 19 8
0 4 8 8 18 9 24 1 47 8 122 33 36 12 70 23 75 24 6 1 19 7 30 13 11 6 23 11
28 11 13 1 110 39 182 73 39 18 76 33 84 35 8 1 17 6 20 11 3 4 29 19 56 33
28 14 52 28 53 33 2 4 8 7 13 7 6 0 49 26 97 57 48 32 91 60 96 62 5 2 16 11
26 20 10 9 27 23 38 31 89 66 282 252 345 330 15 19 38 49 51 65 13 17 45 62
70 100 26 39 51 77 56 85 17 26 70 123 87 160 8 19 20 38 25 41 5 3 9 9 8 13
-1 4 13 41 30 84 18 42 33 81 35 87 1 5 5 17 8 25 5 14 28 83 34 105 17 60 22
122 18 238 -3 76 -6 141 -9 145 -2 4 -7 35 -11 69 -3 34 -8 72 -11 85 -7 34
-12 59 -18 98 -8 52 -16 93 -21 116 -3 12 -7 39 -10 60 -4 21 -8 47 -11 56 -5
18 -13 53 -19 93 -2 11 -9 49 -15 85 -7 36 -12 72 -13 80 0 8 -3 20 -6 25 -4
6 -7 25 -7 43 1 17 -2 32 -5 32 -3 0 -6 6 -6 13 -1 14 -13 130 -18 172 -6 42
-6 216 -1 242 5 23 15 88 21 143 6 42 11 77 26 167 14 86 16 98 23 153 3 25
11 71 17 104 6 32 12 79 14 105 3 25 7 60 9 76 14 87 18 149 21 344 2 126 0
222 -6 233 -7 12 -6 18 1 18 6 0 8 5 4 12 -4 7 -9 26 -11 43 -4 46 -12 95 -23
145 -6 25 -13 56 -16 70 -15 72 -54 211 -63 228 -6 11 -7 22 -4 26 4 3 1 16
-5 29 -6 12 -20 49 -32 82 -67 191 -168 361 -338 567 -33 40 -198 212 -261
272 -35 33 -86 82 -114 109 -27 26 -52 47 -56 47 -3 0 -24 17 -46 38 -62 59
-192 162 -205 162 -6 0 -8 5 -5 10 3 6 0 10 -7 10 -7 0 -27 14 -45 30 -18 17
-36 30 -42 30 -5 0 -11 3 -13 8 -9 20 -484 343 -593 403 l-30 17 1 123 c0 68
4 149 9 179 5 30 9 65 9 78 1 12 4 22 7 22 3 0 6 6 6 13 1 28 14 81 25 101 6
11 10 22 9 24 -3 4 29 113 44 147 7 17 20 48 28 70 8 22 25 63 38 90 12 28 23
55 24 60 2 6 17 34 34 63 17 29 31 56 31 59 0 3 19 36 41 72 111 176 229 276
339 285 86 7 132 -22 312 -199 75 -74 144 -135 152 -135 9 0 16 -4 16 -9 0
-12 96 -59 147 -73 63 -17 215 -18 268 -2 61 18 133 60 163 93 125 143 16 431
-269 711 -42 41 -83 80 -91 85 -9 6 -44 30 -79 55 -85 59 -210 119 -284 135
-11 3 -31 8 -45 11 -35 8 -243 13 -255 6 -5 -4 -14 -7 -20 -7 -24 -1 -101 -18
-110 -24 -5 -3 -12 -6 -15 -6 -3 -1 -22 -9 -44 -18 -21 -9 -40 -17 -42 -17
-12 0 -184 -113 -184 -120 0 -5 -8 -11 -19 -15 -22 -7 -195 -176 -247 -243
-21 -26 -43 -51 -49 -57 -6 -5 -28 -35 -49 -65 -21 -30 -41 -57 -45 -60 -12
-9 -131 -198 -131 -209 0 -6 -4 -11 -10 -11 -5 0 -10 -6 -10 -14 0 -8 -3 -16
-7 -18 -5 -1 -18 -24 -31 -50 -13 -26 -27 -50 -33 -53 -5 -4 -7 -10 -4 -15 3
-5 1 -11 -5 -15 -11 -7 -44 -76 -42 -87 1 -5 -3 -8 -8 -8 -5 0 -9 -3 -8 -7 1
-5 -15 -41 -34 -80 -20 -40 -34 -73 -32 -73 2 0 -3 -11 -12 -25 -9 -14 -14
-25 -10 -25 3 0 -3 -15 -13 -32 -10 -18 -24 -51 -31 -73 -7 -22 -16 -44 -20
-50 -4 -5 -24 -58 -45 -117 -30 -87 -40 -105 -54 -100 -9 3 -46 21 -84 39 -37
18 -70 33 -73 33 -3 0 -26 10 -52 21 -188 86 -558 196 -787 233 -16 3 -41 7
-55 10 -14 2 -45 7 -70 11 -25 4 -56 9 -70 11 -14 3 -45 6 -70 9 -25 2 -45 4
-45 5 0 4 -125 16 -260 25 -68 5 -561 6 -619 2 -31 -2 -40 13 -50 88 -3 17 -6
30 -7 30 -1 0 -3 9 -5 20 -1 11 -6 34 -9 50 -4 17 -8 37 -10 45 -2 8 -4 15 -5
15 -1 0 -3 9 -4 20 -5 31 -16 96 -21 119 -5 24 -9 44 -30 172 -8 50 -17 113
-20 140 -4 27 -8 63 -10 79 -3 25 -16 226 -16 260 0 8 9 186 14 273 0 12 3 22
7 22 3 0 6 15 7 33 1 31 10 92 13 92 1 0 3 7 5 16 20 102 74 234 133 324 64
96 97 126 189 171 51 25 72 30 124 28 81 -2 95 -6 172 -44 55 -27 185 -117
229 -160 9 -8 31 -26 49 -40 18 -14 37 -29 44 -35 33 -30 95 -75 104 -75 6 0
11 -4 11 -9 0 -8 28 -27 105 -71 61 -34 151 -58 223 -58 40 0 74 4 77 8 3 5
12 7 20 3 8 -3 15 0 15 7 0 6 4 9 10 5 14 -9 86 61 108 105 14 29 18 55 16
107 -4 78 -5 88 -33 165 -20 58 -102 211 -122 228 -3 3 -10 12 -15 21 -25 44
-214 249 -230 249 -4 0 -21 12 -39 28 -44 37 -81 64 -116 83 -16 9 -36 22 -44
29 -8 7 -15 9 -15 6 0 -4 -12 1 -27 12 -16 10 -41 23 -58 29 -16 6 -39 15 -50
19 -11 4 -23 6 -27 6 -5 -1 -8 3 -8 10 0 6 -3 9 -6 5 -3 -3 -22 0 -43 8 -20 7
-57 16 -81 20 -50 8 -254 14 -285 8z"/>
</g>
</svg>
