<?xml version="1.0" standalone="no"?>
<!DOCTYPE svg PUBLIC "-//W3C//DTD SVG 20010904//EN"
 "http://www.w3.org/TR/2001/REC-SVG-20010904/DTD/svg10.dtd">
<svg version="1.0" xmlns="http://www.w3.org/2000/svg"
 width="700.000000pt" height="700.000000pt" viewBox="0 0 700.000000 700.000000"
 preserveAspectRatio="xMidYMid meet">
<metadata>
Created by potrace 1.14, written by Peter Selinger 2001-2017
</metadata>
<g transform="translate(0.000000,700.000000) scale(0.100000,-0.100000)"
fill="#000000" stroke="none">
<path d="M3938 6925 c-2 -2 -25 -5 -53 -8 -235 -25 -484 -147 -664 -327 -226
-225 -395 -592 -480 -1048 -16 -86 -33 -184 -36 -217 -4 -33 -8 -73 -11 -90
-12 -83 -19 -440 -10 -525 2 -19 7 -71 11 -115 3 -44 12 -113 19 -152 7 -40
10 -73 7 -74 -3 0 -13 -2 -21 -4 -8 -2 -30 -6 -48 -9 -44 -9 -368 -116 -456
-152 -295 -118 -526 -297 -891 -689 -206 -221 -372 -510 -476 -829 -33 -103
-49 -167 -89 -374 -12 -67 -9 -328 5 -422 12 -77 22 -128 45 -230 13 -60 71
-221 108 -305 232 -511 579 -792 1227 -991 50 -16 95 -29 100 -30 6 -2 66 -18
135 -37 256 -72 479 -126 585 -143 22 -3 42 -7 45 -9 3 -2 24 -6 46 -9 22 -4
51 -9 64 -11 32 -7 202 -33 259 -40 23 -3 55 -7 70 -9 14 -3 55 -8 91 -11 36
-4 81 -8 100 -10 158 -17 226 -20 450 -20 140 0 285 3 321 7 177 20 403 83
624 174 156 64 704 335 805 397 284 176 465 460 495 774 4 38 7 70 8 73 9 42
-88 392 -174 627 -10 29 -17 53 -14 53 2 0 -2 15 -10 33 -39 94 -59 212 -70
402 -6 107 -14 217 -20 265 -3 19 -7 55 -10 80 -3 25 -8 61 -11 80 -4 19 -8
44 -10 55 -13 72 -47 201 -63 240 -5 11 -15 36 -22 55 -21 60 -80 172 -122
235 -50 74 -178 202 -277 276 -235 176 -660 397 -883 458 -50 14 -51 18 -28
76 5 11 26 65 47 120 137 357 361 688 569 844 203 152 359 172 800 105 81 -12
161 -11 180 2 19 14 19 15 1 49 -52 96 -323 242 -518 280 -63 12 -227 13 -275
2 -235 -56 -415 -167 -648 -401 -113 -114 -139 -143 -189 -211 -17 -22 -33
-42 -36 -45 -3 -3 -32 -44 -64 -92 -121 -183 -225 -418 -275 -621 l-18 -72
-159 2 c-278 5 -838 4 -866 0 -29 -4 -35 4 -42 59 -2 16 -7 54 -11 84 -19 147
-22 224 -19 460 2 140 5 269 7 285 3 17 8 57 12 90 4 33 9 69 11 80 3 11 7 36
10 55 6 37 45 198 65 265 68 233 224 509 373 661 106 107 154 140 254 175 166
58 313 42 696 -75 241 -74 288 -83 310 -61 22 23 5 62 -58 126 -79 81 -115
111 -219 184 -182 125 -362 188 -529 184 -42 -1 -79 -3 -80 -4z"/>
</g>
</svg>
