<svg xmlns="http://www.w3.org/2000/svg" xmlns:xlink="http://www.w3.org/1999/xlink" width="761.64" height="546.97" viewBox="0 0 1588.3 1140.6"><defs><linearGradient id="a"><stop offset="0"/><stop offset="1" stop-color="#6949f6" stop-opacity="0"/></linearGradient><linearGradient id="g" x1="-17.359" x2="-167.33" y1="453.3" y2="310.63" gradientTransform="matrix(.94249 .23711 -.24335 .91831 77.99 -17.422)" gradientUnits="userSpaceOnUse"><stop offset="0" stop-color="#4ab5e3"/><stop offset="1" stop-color="#a86bf8"/></linearGradient><linearGradient id="b" x1="-316.65" x2="-163.02" y1="492.44" y2="385.12" gradientTransform="matrix(.9454 -.10435 .10405 .9427 -80.673 -75.427)" gradientUnits="userSpaceOnUse"><stop offset="0" stop-color="#4ab5e3"/><stop offset="1" stop-color="#a86bf8"/></linearGradient><linearGradient id="h" x1="-83.889" x2="-10.108" y1="172.18" y2="9.579" gradientTransform="matrix(.82503 -.71351 .93099 .75185 -63.627 -45.864)" gradientUnits="userSpaceOnUse"><stop offset="0" stop-color="#4ab5e3"/><stop offset="1" stop-color="#a86bf8"/></linearGradient><linearGradient id="d" x1="52.153" x2="-26.997" y1="-384.13" y2="-219.85" gradientTransform="matrix(1.0342 -.18974 .18659 1.0176 61.52 2.298)" gradientUnits="userSpaceOnUse"><stop offset="0" stop-color="#4ab5e3"/><stop offset="1" stop-color="#a86bf8"/></linearGradient><linearGradient id="c" x1="73.443" x2="138.18" y1="-222.57" y2="-285.81" gradientTransform="matrix(1.1095 .07189 -.05734 1.0472 -26.261 1.014)" gradientUnits="userSpaceOnUse"><stop offset="0" stop-color="#a86bf8"/><stop offset="1" stop-color="#4ab5e3"/></linearGradient><linearGradient xlink:href="#a" id="f" x1="-10.044" x2="-65.375" y1="-108.36" y2="-24.973" gradientUnits="userSpaceOnUse"/><linearGradient xlink:href="#a" id="e" x1="137.68" x2="168.57" y1="-123.62" y2="-64.589" gradientUnits="userSpaceOnUse"/></defs><g fill-rule="evenodd" transform="translate(707.13 507.72)"><ellipse cx="188.68" cy="521.45" fill="#196b1f" rx="777.65" ry="67.832" transform="matrix(.99524 .09748 -.17393 .98476 0 0)"/><path fill="#def86b" d="M-145.35 116.69c-59.906 25.729-118.27 61.056-151.41 54.481-33.141-6.575-41.053-55.056-7.644-91.922 33.41-36.866 108.14-62.113 176.13-65.616C-60.283 10.13.966 28.37 27.456 39.505c26.496 11.136 18.24 15.168-16.609 25.248-34.849 10.08-96.289 26.208-156.19 51.937z"/><path fill="#e38d4a" d="M-88.736-5.24c-29.639-9.601-36.583-16.98-49.352-6.795-12.769 10.184-31.36 37.929-17.028 61.148s61.584 41.909 100.95 37.733c39.362-4.176 69.462-30.037 58.132-50.417C-7.365 16.049-59.093 4.36-88.732-5.241z"/><path fill="#4ab5e3" d="M245.47-179.16c6.815 31.266-13.03 99.87-41.144 144.14-28.114 44.271-64.496 64.208-95.449 68.912-30.954 4.704-37.201-15.218-16.47-39.567S160.845-58.8 184.983-94.77c24.138-35.97 18.08-92.046 25.463-111.97 7.384-19.922 28.209-3.689 35.024 27.578z"/><path fill="#def86b" d="M124.98-19.343c15.843 4.276 30.235 21.927 29.42 38.082-.816 16.155-16.835 30.818-27.018 28.375-10.183-2.443-14.527-21.991-22.36-33.599C97.189 1.906 85.869-1.756 88.855-8.138c2.986-6.382 20.282-15.481 36.125-11.205z"/><path fill="#a86135" d="M108.588 397.029c9.373-56.365 24.506-134.28 49.293-191.45 24.787-57.165 59.222-93.568 86.492-124.285 27.27-30.713 47.372-55.735 61.242-93.84s21.505-89.296 30.664-118.657c9.16-29.358 19.84-36.882 34.064-41.813 14.223-4.93 31.981-7.265 33.59 1.099 1.607 8.364-12.934 27.423-23.66 43.737-10.724 16.313-17.63 29.878-22.514 47.488-4.883 17.61-7.745 39.265-17.425 69.002S314.158 55.858 288.8 91.698c-25.36 35.842-59.525 69.655-79.202 142.236s-29.042 277.754-30.843 286.623c-1.8 8.867-36.521 20.556-51.157 19.644-14.635-.912-25.118-9.061-28.555-30.535-3.437-21.473.176-56.285 9.55-112.65z"/><path fill="#4a8335" d="M355.317-106.053c-.29-7.88 17.334-29.495 35.117-39.845 17.782-10.349 35.721-9.43 53.75-13.671 18.027-4.242 36.143-13.645 54.26-23.049-3.996 20.655-7.993 41.31-25.73 53.431-17.737 12.12-49.214 15.708-74.056 20.431-24.842 4.723-43.049 10.582-43.34 2.703z"/><path fill="url(#b)" d="M-224.53 313.52c13.798 25.06 19.393 75.354 1.25 85.972-18.142 10.618-60.018-18.44-73.92-22.174-13.902-3.733.174 17.859-1.128 30.955-1.301 13.097-17.974 17.695-27.603 12.757-9.629-4.938-12.206-19.414-16.255-32.452-4.049-13.038-9.57-24.636-7.89-34.965 1.68-10.329 10.562-19.388 19.841-20.802 9.279-1.414 18.953 4.817 32.324 10.391 13.371 5.574 30.44 10.492 33.652 1.317 3.213-9.175-7.43-32.438-1.75-44.16 5.679-11.722 27.68-11.899 41.479 13.16z"/><path fill="#a86bf8" d="M66.624-13.077c23.939-24.017 33.149-28.929 42.534-29.866 9.385-.937 18.944 2.102 25.126 20.367 6.182 18.265 8.987 51.755-3.959 99.078s-41.64 108.47-79.008 157.97c-37.367 49.5-83.402 87.346-153.87 96.093-70.469 8.747-165.37-11.606-212.54-47.214s-46.59-86.466 8.105-120.04c54.697-33.57 163.51-49.847 237.25-79.549C4.008 54.06 42.682 10.935 66.622-13.082z"/><path fill="url(#c)" d="M60.593-234.83c-.021-.845-.064-2.537-2.234-16.136s-6.468-39.103 2.085-65.614c8.553-26.51 29.956-54.019 56.554-56.83 26.598-2.81 58.38 19.074 65.865 34.024s-9.333 22.96-23.825 19.353c-14.492-3.607-26.65-18.833-39.472-18.612-12.823.221-26.306 15.893-29.14 36.43-2.833 20.537 4.982 45.931 12.798 71.329l-35.507-2.582c-7.102-.516-7.102-.516-7.123-1.362z" transform="matrix(.96658 -.11212 .11507 .94178 84.224 -62.146)"/><path fill="url(#d)" d="M-55.84-237.28c-7.91 1.632-8.453-.425-17.18-19.035s-25.636-53.768-20.552-88.596 32.163-69.317 61.737-79.224c29.574-9.907 61.639 4.768 72.021 21.536 10.382 16.767-.915 35.62-13.303 34.883s-25.864-21.068-42.881-18.91c-17.016 2.158-37.571 26.808-38.39 53.404-.819 26.597 18.095 55.132 37.012 83.671-15.277 5.32-30.555 10.64-38.465 12.272z" transform="matrix(.96658 -.11212 .11507 .94178 84.224 -62.146)"/><path fill="#a86bf8" d="M191.493-281.756c-44.9-22.174-117.478-32.993-172.208-26.02-54.73 6.974-91.6 31.738-120.876 67.731s-50.965 83.215-43.338 126.204c7.626 42.988 44.558 81.732 103.73 94.732 59.171 13 140.564.252 199.538-18.756 58.98-19.009 95.53-44.274 110.545-71.094 15.013-26.82 8.48-55.19-3.396-86.14-11.876-30.951-29.094-64.48-73.994-86.654z"/><path fill="#761111" fill-opacity=".409" d="M193.43-249.707c-19.833-.194-28.701 16.755-29.08 35.207-.38 18.451 7.729 38.402 21.672 51.536 13.944 13.135 33.721 19.451 49.5 9.669 15.778-9.783 27.552-35.657 18.043-57.27-9.508-21.61-40.305-38.948-60.137-39.142z"/><path fill="url(#e)" d="M131.85-166.91c-12.413-1.638-19.613 11.487-21.638 26.466-2.024 14.979 1.127 31.812 8.596 43.536S138.063-78.571 148.9-85.35c10.838-6.779 20.724-26.946 16.856-45.234s-21.494-34.688-33.907-36.326z" transform="matrix(.96658 -.11212 .11507 .94178 84.224 -62.146)"/><path fill="#fff" d="M204.587-216.397c-5.191-.105-7.584 5.401-7.687 11.395-.102 5.994 2.086 12.476 5.85 16.742 3.762 4.267 9.1 6.32 13.197 3.183 4.096-3.135 6.95-11.455 4.384-18.476-2.565-7.022-10.553-12.738-15.745-12.844z"/><path fill="#761111" fill-opacity=".409" d="M87.062-205.439c-9.823-19.851-27.981-36.6-54.341-22.978-26.36 13.624-60.918 57.617-60.558 87.943.36 30.327 35.64 46.984 62.742 44.837s46.027-23.095 54.747-45.046c8.72-21.951 7.232-44.904-2.59-64.756z"/><path fill="url(#f)" d="M20.576-129.48c-5.304-15.983-16.919-30.318-37.225-22.201s-49.299 38.687-51.791 61.842c-2.492 23.156 21.517 38.895 41.318 39.592 19.801.698 35.393-13.646 43.694-29.633 8.3-15.987 9.309-33.617 4.005-49.6z" transform="matrix(.96658 -.11212 .11507 .94178 84.224 -62.146)"/><path fill="#fff" d="M78.722-180.746c-3.267-6.782-9.308-12.504-18.076-7.85-8.77 4.653-20.265 19.684-20.146 30.044.12 10.361 11.856 16.052 20.871 15.319 9.016-.733 15.312-7.89 18.213-15.39 2.9-7.5 2.406-15.341-.862-22.124z"/><path fill="#4ab5e3" d="M222.508-294.122c-10.524-1.44-31.57-4.32-42.239.62-10.669 4.939-10.96 17.696 6.81 33.59 17.768 15.895 53.595 34.926 74.826 36.116 21.231 1.19 27.866-15.462 20.621-29.917-7.245-14.455-28.37-26.712-38.932-32.84-10.562-6.129-10.562-6.129-21.086-7.569z"/><path fill-opacity=".8" d="M182.585-117.106c-1.736-11.01-21.798-8.329-40.804-1.664-19.005 6.666-36.955 17.316-41.116 27.585-4.161 10.268 5.466 20.154 16.177 25.84 10.711 5.686 22.506 7.172 36.698-4.437s30.78-36.312 29.044-47.324z"/><path fill="#e93a3a" fill-opacity=".8" d="M106.509-99.507s-6.472 5.814-6.967 11.423c-.495 5.813 3.047 12.127 8.306 17.035 5.259 4.908 12.783 8.428 19.939 9.644s15.662-.446 23.184-6.056c7.521-5.61 14.19-12.567 21.294-23.271-8.707-8.265-56.538-16.124-65.756-8.775z"/><path fill="#761111" fill-opacity=".409" d="M114.42-205.957c-3.12-4.888-9.366-10.319-15.34-11.948s-11.677.541-11.677 4.344 5.703 9.234 11.677 13.035c5.974 3.8 12.22 5.973 15.34 4.887s3.122-5.43 0-10.318zM152.841-229.583c-2.444-.544-7.874 3.257-10.454 8.96s-2.308 13.307.136 13.85c2.443.542 7.06-5.975 9.64-11.676 2.58-5.702 3.122-10.59.679-11.134zM78.383-243.774c-5.303.636-15.561-4.601-27.102-6.63-11.542-2.028-24.365-.848-26.412-3.34-2.048-2.492 6.71-8.678 18.426-9.903 11.717-1.226 26.405 2.497 33.573 7.614 7.168 5.116 6.818 11.624 1.515 12.26zM162.172-269.73c6.026-6.833 11.156-10.254 10.251-12.589-.904-2.335-8.07-3.627-14.082 3.185-6.012 6.811-10.45 20.109-9.384 22.706 1.065 2.596 7.19-6.469 13.216-13.302z"/><path fill="url(#g)" d="M-110.6 224.36c22.2 12.843 46.329 37.524 61.996 56.946 15.667 19.422 22.874 33.584 21.849 58.738-1.025 25.154-10.28 61.299-7.83 81.497 2.452 20.198 16.609 24.45 34.529 33.825 17.92 9.375 39.6 23.872 41.689 36.691s-15.415 23.96-31.651 26.389c-16.236 2.428-31.203-3.856-51.838-12.12s-46.937-18.506-55.467-31.829c-8.53-13.323.714-29.726 4.232-50.384 3.518-20.659 1.31-45.571-.822-62.721s-4.187-26.535-22.227-37.156c-18.041-10.621-52.068-22.477-64.266-41.804s-2.569-46.123 12.383-59.02 35.223-11.894 57.423.948z"/><path fill="#def86b" d="M12.793 26.113c.297 5.5 16.88 8.252 21.813 17.561s-1.784 25.174-10.839 38.954c-9.055 13.78-20.447 25.476-37.515 36.612-17.069 11.136-39.814 21.711-61.025 16.413-21.211-5.298-40.881-26.463-55.618-35.289-14.737-8.826-24.528-5.3-13.423 10.366 11.104 15.665 43.101 43.467 73.962 51.856 30.861 8.39 60.584-2.635 79.015-16.173 18.432-13.538 25.572-29.59 35.323-48.664 9.75-19.073 22.111-41.168 22.544-57.275S55.969 14.246 42.227 13.308s-29.731 7.307-29.434 12.806z"/><path fill="url(#h)" d="M16.575 25.963c-20.684-1.939-45.758 17.279-46.743 49.643-.985 32.364 22.118 77.868 52.745 107.96s68.768 44.778 97.376 47.572c28.608 2.794 47.677-6.297 54.456-16.458 6.779-10.161 1.262-21.386-19.865-31.155-21.128-9.768-57.859-18.072-74.58-36.07S66.545 101.78 60.049 76.387C53.554 50.994 37.26 27.898 16.576 25.959z"/><path fill="#f19ed1" fill-opacity=".8" d="M32.449-88.949c-9.216-2.113-22.273-2.113-33.41 1.535-11.137 3.648-20.353 10.944-18.816 14.592 1.537 3.648 13.825 3.648 27.649 2.112s29.184-4.608 34.177-8.255c4.992-3.647-.384-7.871-9.6-9.984zM226.84-128.82c.762-5.192 9.271-15.094 19.637-19.804 10.365-4.71 22.584-4.227 23.455-1.208.872 3.019-9.6 8.573-16.474 13.525-6.874 4.952-10.146 9.299-15.272 11.231-5.126 1.932-12.108 1.45-11.346-3.743z"/><path fill="#f19ed1" d="M730.27-137.91a107.14 101.38 0 0 0-103.92 77.986 78.338 66.817 0 0 0-63.124-27.297 78.338 66.817 0 0 0-78.336 66.818 78.338 66.817 0 0 0 1.12 9.702 70.273 40.321 0 0 0-44.897 37.533 70.273 40.321 0 0 0 70.272 40.319 70.273 40.321 0 0 0 24.218-2.48 146.31 44.929 0 0 0 127.85 23.215 146.31 44.929 0 0 0 112.08-16.207 110.59 20.736 0 0 0 105.65-20.658 110.59 20.736 0 0 0-72.243-19.445 107.14 101.38 0 0 0 28.466-68.109 107.14 101.38 0 0 0-107.14-101.38zM-435.05-353.31a89.606 71.685 0 0 0-63.6 21.233 60.281 55.393 0 0 0-14.602-1.682 60.281 55.393 0 0 0-60.281 55.393 60.281 55.393 0 0 0 7.217 25.713 219.94 42.359 0 0 0-140.81 39.455 219.94 42.359 0 0 0 219.94 42.359 219.94 42.359 0 0 0 149.01-11.38 84.719 58.651 0 0 0 18.797 1.605 84.719 58.651 0 0 0 84.72-58.651 84.719 58.651 0 0 0-84.72-58.651 84.719 58.651 0 0 0-27.566 3.445 89.606 71.685 0 0 0-88.107-58.839zM450.95-507.72c-33.292 0-60.281 27.718-60.281 61.91.037 11.809 3.363 23.361 9.584 33.293-36.68 1.421-62.414 6.454-62.557 12.235.004 6.998 37.137 12.671 82.943 12.671 10.486-1.249 20.848 4.428 30.31 3.71 15.83-1.2 27.379-9.927 42.238-10.28 47.81-1.136 94.019 3.726 138.6 3.764 109.77 0 198.76-5.835 198.76-13.034-.024-5.722-56.97-10.775-140.39-12.455-.823-12.464-24.797-22.387-54.098-22.393-10.941.032-21.602 1.473-30.58 4.134-.176-30.65-41.18-47.08-58.415-47.487-15.01.038-29.43 4.55-40.29 12.606-9.211-23.362-31.292-38.656-55.833-38.673z"/></g></svg>