<svg width="62.093971mm" height="71.694122mm" viewBox="0 0 62.093971 71.694123" xmlns:xlink="http://www.w3.org/1999/xlink" xmlns="http://www.w3.org/2000/svg"><defs><linearGradient id="l"><stop style="stop-color:#5824bb;stop-opacity:1" offset="0"/><stop style="stop-color:#5824bb;stop-opacity:0" offset="1"/></linearGradient><linearGradient id="j"><stop style="stop-color:#fff;stop-opacity:1" offset="0"/><stop style="stop-color:#757575;stop-opacity:1" offset="1"/></linearGradient><linearGradient id="k"><stop style="stop-color:#fff;stop-opacity:1" offset="0"/><stop style="stop-color:#757575;stop-opacity:1" offset="1"/></linearGradient><linearGradient id="b"><stop style="stop-color:#42b3e2;stop-opacity:1" offset="0"/><stop style="stop-color:#a86bf8;stop-opacity:1" offset="1"/></linearGradient><linearGradient id="i"><stop style="stop-color:#4ab5e3;stop-opacity:1" offset="0"/><stop style="stop-color:#a86bf8;stop-opacity:1" offset="1"/></linearGradient><linearGradient id="h"><stop style="stop-color:#f9ebeb;stop-opacity:1" offset="0"/><stop style="stop-color:#dc00dc;stop-opacity:0" offset="1"/></linearGradient><linearGradient id="g"><stop style="stop-color:#060021;stop-opacity:1" offset="0"/><stop style="stop-color:#270027;stop-opacity:0" offset="1"/></linearGradient><linearGradient id="f"><stop style="stop-color:#fff;stop-opacity:1" offset="0"/><stop style="stop-color:#fff;stop-opacity:0" offset="1"/></linearGradient><linearGradient id="e"><stop style="stop-color:#fff;stop-opacity:1" offset="0"/><stop style="stop-color:#fff;stop-opacity:0" offset="1"/></linearGradient><linearGradient id="d"><stop style="stop-color:#6949f6;stop-opacity:1" offset="0"/><stop style="stop-color:#59d4e6;stop-opacity:1" offset="1"/></linearGradient><linearGradient id="c"><stop style="stop-color:#6949f6;stop-opacity:1" offset="0"/><stop style="stop-color:#59d4e6;stop-opacity:1" offset="1"/></linearGradient><linearGradient id="a"><stop style="stop-color:#42b3e2;stop-opacity:1" offset="0"/><stop style="stop-color:#a86bf8;stop-opacity:1" offset="1"/></linearGradient><linearGradient xlink:href="#a" id="n" x1="125.6581" y1="4.103415" x2="123.39376" y2="17.589769" gradientUnits="userSpaceOnUse" gradientTransform="matrix(.89986879 -.24834907 .22889195 .69435307 15.334264 42.779056)"/><linearGradient xlink:href="#b" id="o" x1="159.02138" y1="10.882603" x2="147.66571" y2="18.200302" gradientUnits="userSpaceOnUse" gradientTransform="matrix(.92829603 -.13728237 .12030065 .65253417 15.100224 32.494358)"/><linearGradient xlink:href="#c" id="q" x1="140.66444" y1="46.230885" x2="140.42838" y2="54.74342" gradientUnits="userSpaceOnUse" gradientTransform="matrix(.92631873 .17341641 -.18621681 .93804828 20.776794 -22.531986)"/><linearGradient xlink:href="#d" id="v" x1="161.78847" y1="45.19524" x2="161.5842" y2="51.382637" gradientUnits="userSpaceOnUse" gradientTransform="matrix(.92631873 .17341641 -.17622105 .88769561 20.182864 -19.540104)"/><linearGradient xlink:href="#e" id="y" x1="131.88144" y1="51.338135" x2="131.6008" y2="51.665539" gradientUnits="userSpaceOnUse" gradientTransform="matrix(.92631873 .17341641 -.17622105 .88769561 20.182864 -19.540104)"/><linearGradient xlink:href="#f" id="x" x1="131.88144" y1="51.338135" x2="131.6008" y2="51.665539" gradientUnits="userSpaceOnUse" gradientTransform="matrix(.92631873 .17341641 -.18621681 .93804828 20.776794 -22.531986)"/><linearGradient xlink:href="#g" id="t" x1="140.72685" y1="46.609943" x2="139.8219" y2="51.504734" gradientUnits="userSpaceOnUse" gradientTransform="matrix(.92631873 .17341641 -.18621681 .93804828 20.776794 -22.531986)"/><linearGradient xlink:href="#g" id="w" gradientUnits="userSpaceOnUse" x1="161.72787" y1="45.857281" x2="161.51447" y2="49.627594" gradientTransform="matrix(.9393672 .08926881 -.10073156 .89832439 14.472004 -6.4529627)"/><linearGradient xlink:href="#h" id="z" x1="148.01779" y1="74.640869" x2="139.64565" y2="64.649216" gradientUnits="userSpaceOnUse" gradientTransform="matrix(1.256154 .23516497 -.20672853 1.0413739 -28.726396 -37.63937)"/><linearGradient xlink:href="#i" id="m" x1="153.90926" y1="59.359982" x2="145.58804" y2="22.809269" gradientUnits="userSpaceOnUse" gradientTransform="matrix(.92631873 .17341641 -.18621681 .93804828 20.752164 -22.40789)"/><linearGradient xlink:href="#j" id="p" x1="141.95956" y1="58.657475" x2="133.15926" y2="43.768059" gradientUnits="userSpaceOnUse" gradientTransform="matrix(.92631873 .17341641 -.18621681 .93804828 20.776794 -22.531986)"/><linearGradient xlink:href="#k" id="u" x1="164.06068" y1="55.547611" x2="157.70811" y2="43.206776" gradientUnits="userSpaceOnUse" gradientTransform="matrix(.92631873 .17341641 -.17622105 .88769561 20.182864 -19.540104)"/><linearGradient xlink:href="#l" id="r" x1="130.26138" y1="39.161667" x2="144.01241" y2="35.179623" gradientUnits="userSpaceOnUse" gradientTransform="matrix(.92631873 .17341641 -.18621681 .93804828 20.776794 -22.531986)"/><linearGradient xlink:href="#l" id="s" x1="164.82332" y1="37.507431" x2="157.48135" y2="35.434669" gradientUnits="userSpaceOnUse" gradientTransform="matrix(.92631873 .17341641 -.18621681 .93804828 20.776794 -22.531986)"/></defs><g style="display:inline;opacity:1"><path style="fill:url(#m);fill-opacity:1;fill-rule:evenodd;stroke:#0e455d;stroke-width:.265255px;stroke-linecap:butt;stroke-linejoin:miter;stroke-opacity:1" d="M148.56187 20.712703c-4.51373-.926419-7.31921-.822826-13.8199-.313475-6.29927.666743-10.88486 3.803024-15.07135 6.877869-4.18647 3.07485-7.57434 8.091779-9.05455 12.826261-1.4802 4.734486-.93273 11.782987 2.14021 16.636967 3.07295 4.85398 5.7748 7.8291 11.96033 10.811823 6.18553 2.982724 16.44956 5.848289 21.73935 6.222026 5.28981.373741 10.82467-2.479206 14.6388-3.58407 2.04207-.59154 8.30841-2.805113 10.43049-9.985781.64807-2.19293-1.44582-8.247766-1.11125-10.757535.51964-3.897893 1.39553-7.105329.5906-10.526135-.70631-3.001729-1.20891-4.738856-4.58262-8.036349-2.41342-2.358895-6.09419-4.939884-9.51444-6.817042-2.62837-1.442544-5.40868-2.751758-8.34567-3.354559z" transform="translate(-109.69318 -2.2463352)"/><path style="fill:url(#n);fill-opacity:1;fill-rule:evenodd;stroke:#0e455d;stroke-width:.218448px;stroke-linecap:butt;stroke-linejoin:miter;stroke-opacity:1" d="M140.21848 23.006295c-.77352-3.235963-1.54703-6.471897-1.70472-9.085791-.15769-2.613894.30049-4.6052848 1.09854-5.8683132.79805-1.2630284 1.93564-1.7973069 3.19817-1.2574799 1.26253.539827 2.64982 2.1533711 3.96383 2.7799327 1.31401.6265614 2.55437.2663909 2.76961-.755074.21525-1.0214648-.59488-2.7043885-1.93065-4.0781394-1.33576-1.3737508-3.19736-2.4382637-5.25643-2.3838718-2.05906.054392-4.31525 1.2279786-5.76923 3.4349059-1.45399 2.2069273-2.10552 5.4472087-2.14957 8.1674757-.044 2.720267.51965 4.922831.73152 6.247378s.0728 1.77515-.0663 2.225685" transform="translate(-109.69318 -2.2463352)"/><path style="fill:url(#o);fill-opacity:1;fill-rule:evenodd;stroke:#0e455d;stroke-width:.208711px;stroke-linecap:butt;stroke-linejoin:miter;stroke-opacity:1" d="M153.91276 24.279546c.75565-2.217544 1.51124-4.434889 2.74846-6.658734 1.23723-2.223844 2.95608-4.454025 4.79606-5.500235 1.83998-1.046211 3.80141-.908932 5.58611.281814 1.7847 1.190746 3.39237 3.434335 3.25923 4.763465-.13313 1.32913-2.00705 1.744085-3.33787 1.245234-1.33081-.498851-2.11788-1.911535-2.99632-2.440087-.87845-.528553-1.84811-.17242-2.77583 1.031762-.92772 1.204181-1.8132 3.256208-2.22219 4.882298-.409 1.626091-.34155 2.825923-.27411 4.025739" transform="translate(-109.69318 -2.2463352)"/><path style="fill:url(#p);fill-opacity:1;fill-rule:evenodd;stroke:#092d3d;stroke-width:.251176px;stroke-linecap:butt;stroke-linejoin:miter;stroke-opacity:1" d="M145.98813 45.272051c-.15347-.616532-.46048-1.849925-1.01606-2.735049-.55559-.885123-1.3599-1.421818-2.31991-1.601624-.96001-.179807-2.07551-.0025-3.34895.4628-1.27343.465326-2.72809 1.231019-4.31404 2.183857-1.58595.952839-3.31476 2.098898-3.86105 3.090786-.5463.991888.0898 1.829217.70549 2.926952.6157 1.097735 1.14714 2.309953 1.71063 3.595265.41697.551793.82981 1.098107 1.87589 1.625514 1.04608.527408 3.01259 1.112922 3.95275 1.2655.94015.152578 1.77535.0196 2.50402-.452562.72866-.472158 1.48983-1.305497 2.11682-2.369989.62698-1.064492 1.2173-2.616833 1.48633-3.632982.26904-1.016148.48299-2.50188.57227-3.121906.0893-.620027.0893-.62003-.0642-1.236562z" transform="translate(-109.69318 -2.2463352)"/><path style="fill:url(#q);fill-opacity:1;fill-rule:evenodd;stroke:#0c3d52;stroke-width:.24459px;stroke-linecap:butt;stroke-linejoin:miter;stroke-opacity:1" d="M144.71106 41.734024c-.76821-.35044-2.30489-1.051437-3.8836-.422847-1.57872.62859-3.19905 2.586764-4.09518 4.290092-.89614 1.703329-1.06805 3.151507-.83042 4.42353.23763 1.272024.88458 2.367766 1.62294 2.986838.73836.619071 1.56802.761686 2.37087.692027.80286-.06966 1.57902-.351509 2.38194-1.035126.80292-.683617 1.63269-1.76906 2.25559-3.068724.62289-1.299663 1.03886-2.813528 1.16211-4.101767.12324-1.288239-.0464-2.350734-.1312-2.882156-.0848-.531423-.0848-.531427-.85305-.881867z" transform="translate(-109.69318 -2.2463352)"/><path style="fill:#072430;fill-opacity:1;fill-rule:evenodd;stroke:none;stroke-width:.259166;stroke-linecap:butt;stroke-linejoin:miter;stroke-miterlimit:4;stroke-dasharray:none;stroke-opacity:1" d="M145.83251 44.863597c-.24434-.644875-.53646-1.411189-1.25905-2.002957-.7226-.591769-1.87588-1.0088-2.96946-1.131667-1.09359-.122867-2.12738.04858-3.21282.544777-1.08545.496198-2.22244 1.317188-3.36883 2.295979-1.1464.978792-2.30213 2.115295-2.70244 3.16874-.40031 1.053446-.0453 2.023122.30972 2.993117l1.06137 2.581957c-.83819-.884834-1.67614-1.769402-2.25427-2.782525-.57814-1.013123-.89614-2.154901-1.21406-3.296364 2.09641-2.108285 4.19278-4.216527 6.18704-5.401256 1.99425-1.18473 3.88592-1.445807 5.36153-1.415325 1.4756.03048 2.53474.352379 3.29643 1.082514.7617.730134 1.22594 1.86813 1.48425 3.13408.25831 1.26595.31077 2.65957.36325 4.053464-.14842-.711009-.29678-1.421707-.46926-2.038944-.17247-.617238-.36906-1.140714-.6134-1.78559z" transform="translate(-109.69318 -2.2463352)"/><path style="fill:url(#r);fill-opacity:1;fill-rule:evenodd;stroke:none;stroke-width:.21167;stroke-linecap:butt;stroke-linejoin:miter;stroke-miterlimit:4;stroke-dasharray:none;stroke-opacity:1" d="M147.62714 35.442314c.32315.281138.6465.562449-.62313.470682-1.26962-.09177-4.13195-.556288-6.62295-.268563-2.491.287725-4.61027 1.327782-6.72952 2.36783.96482-1.210802 1.92961-2.421555 3.47741-3.196466 1.5478-.774912 3.67814-1.113819 5.36252-1.136607 1.68438-.02279 2.92245.270426 3.70416.617078.78171.346652 1.10651.746231 1.43151 1.146046z" transform="translate(-109.69318 -2.2463352)"/><path style="fill:url(#s);fill-opacity:1;fill-rule:evenodd;stroke:none;stroke-width:.205762;stroke-linecap:butt;stroke-linejoin:miter;stroke-miterlimit:4;stroke-dasharray:none;stroke-opacity:1" d="M164.40177 40.125566c1.25901.741211 1.88462 1.764325 2.51038 2.787688-.25912-1.06771-.51817-2.135132-.88014-2.877061-.36198-.74193-.82678-1.157826-1.60296-1.538188-.77618-.380362-2.00225-.768952-2.62704-.808816-.62478-.03986-.90015.16276-1.36902.392561-.46888.229801-.91154.343277-.56765.467271.3439.123993 3.27742.835334 4.53643 1.576545z" transform="translate(-109.69318 -2.2463352)"/><path style="fill:url(#t);fill-opacity:1;fill-rule:evenodd;stroke:none;stroke-width:.251176px;stroke-linecap:butt;stroke-linejoin:miter;stroke-opacity:1" d="M140.87825 46.389024c-.25801.383392-.77394 1.150051-.85884 1.911477-.0849.761426.261 1.517356.79598 1.703162.53498.185806 1.2591-.19821 1.72455-.735426.46545-.537216.6723-1.227798.7689-1.801449.0966-.573651.0829-1.030353-.11499-1.35136-.19785-.321007-.58005-.506092-.95379-.501793-.37374.0043-.73874.198138-.92125.295067-.18252.09693-.18255.09693-.44056.480322z" transform="translate(-109.69318 -2.2463352)"/><path style="display:inline;fill:url(#u);fill-opacity:1;fill-rule:evenodd;stroke:#092d3d;stroke-width:.188232px;stroke-linecap:butt;stroke-linejoin:miter;stroke-opacity:1" d="M158.36258 47.522309c.14043-.390101.42141-1.170581 1.00051-1.755463.57911-.584883 1.4553-.97348 2.19075-.941148.73545.03233 1.32907.486108 1.92915 1.221366.60007.735259 1.22075 1.775753 1.86079 3.004589.64003 1.228836 1.30647 2.657812 1.3338 3.63384.0273.976029-.58422 1.498915-1.25947 2.243915-.67525.745-1.33592 1.609576-2.03583 2.525509-.40174.345175-.79949.686927-1.48288.849949-.68338.163022-1.81377.136493-2.3704-.05151-.55662-.188003-1.08355-.724823-1.42039-1.30455-.33683-.579728-.57079-1.291285-.66354-2.278579-.0927-.987295-.0344-2.500497.0882-3.440123.12267-.939625.43124-2.235835.56001-2.776765.12877-.54093.12882-.540929.26926-.93103z" transform="translate(-109.69318 -2.2463352)"/><path style="display:inline;fill:url(#v);fill-opacity:1;fill-rule:evenodd;stroke:#0c3d52;stroke-width:.183297px;stroke-linecap:butt;stroke-linejoin:miter;stroke-opacity:1" d="M162.06673 44.88621c.33132.228819.99421.68664 1.53893 1.479433.54472.792793.97184 1.920809 1.17444 2.810054.20261.889245.1808 1.539002-.0307 2.423012-.21145.884011-.61192 2.00001-1.21284 2.84633-.60091.84632-1.40101 1.421382-2.10351 1.641346-.7025.219964-1.30493.08405-1.78565-.166972-.48073-.251022-.83807-.616582-1.02224-1.325727-.18416-.709145-.19459-1.761218-.11544-3.050375.0791-1.289157.24789-2.814884.46549-3.829996.2176-1.015112.48398-1.519084.73416-1.897961.25017-.378876.48392-.632263.8189-.804343.33498-.17208.77122-.262885.98917-.308253.21795-.04537.21794-.04537.54925.183452z" transform="translate(-109.69318 -2.2463352)"/><path style="display:inline;fill:#072430;fill-opacity:1;fill-rule:evenodd;stroke:none;stroke-width:.194353px;stroke-linecap:butt;stroke-linejoin:miter;stroke-opacity:1" d="M158.35135 47.671616c.0811-.230562.24321-.691459.51406-1.16795.27085-.476492.65027-.968163 1.20212-1.240327.55184-.272164 1.27512-.324618 1.92757-.115154.65244.209463 1.23192.67981 1.7777 1.482223.54579.802414 1.05652 1.934756 1.43908 3.10493s.63645 2.376619.54808 3.346109c-.0884.96949-.51892 1.701882-.94951 2.434358l-1.42816 1.939113c.69862-.620779 1.39726-1.241572 2.01415-2.002976.61689-.761404 1.15215-1.663604 1.68736-2.565725-.52222-2.183219-1.04422-4.365476-1.9417-5.905254-.89749-1.539777-2.16989-2.435068-3.23296-2.694776-1.06306-.259708-2.08811.191588-2.57141.55933-.4833.367741-.90781 1.019338-1.18423 1.625249-.27641.605911-.47545 1.274579-.63176 2.024065-.1563.749487-.26988 1.579508-.38348 2.409754.37732-1.000802.75443-2.001072.94319-2.501739.18876-.500668.1888-.500668.2699-.73123z" transform="translate(-109.69318 -2.2463352)"/><path style="display:inline;fill:url(#w);fill-opacity:1;fill-rule:evenodd;stroke:none;stroke-width:.182553px;stroke-linecap:butt;stroke-linejoin:miter;stroke-opacity:1" d="M161.61682 48.694455c.14991.0011.44965.0034.70025.20755.2506.204198.45243.610149.46068 1.102488.008.492339-.17666 1.069652-.3694 1.555402-.19274.485751-.39292.878807-.62931 1.11808-.23638.239273-.50747.323472-.76888.300624-.2614-.02285-.47774-.13511-.66385-.427666-.18612-.292556-.23132-.521113-.23436-1.067298-.003-.546184.0344-.79711.23088-1.316767.19651-.519656.36973-.780632.59856-1.04316.22883-.262528.36847-.341514.44702-.385947.0786-.04443.0785-.04442.22841-.04331z" transform="translate(-109.69318 -2.2463352)"/><path style="fill:#692fd7;fill-opacity:.599068;fill-rule:evenodd;stroke:none;stroke-width:.251176px;stroke-linecap:butt;stroke-linejoin:miter;stroke-opacity:1" d="M147.90444 40.756414c.40222.171262 1.20634.513669 1.35494 1.301206.1486.787537-.35796 2.020206-.67243 2.110784-.31447.09058-.43694-.961089-1.09855-1.688415-.66161-.727326-1.86265-1.130128-1.95024-1.391897-.0876-.261768.93835-.382368 1.4512-.442654.51286-.06029.51286-.06029.91508.110976zM158.66724 44.372614c.93281-.463419 2.15371-.547809 2.04426-.843374-.10946-.295566-1.54938-.802448-2.40863-.772581-.85925.02987-1.13754.596455-1.35027 1.313372-.21273.716916-.35989 1.583914-.11124 1.596154.24864.01224.89308-.830151 1.82588-1.293571z" transform="translate(-109.69318 -2.2463352)"/><path style="display:inline;fill:#072430;fill-opacity:1;fill-rule:evenodd;stroke:none;stroke-width:.259916;stroke-linecap:butt;stroke-linejoin:miter;stroke-miterlimit:4;stroke-dasharray:none;stroke-opacity:1" d="M135.06069 54.477037c1.00579.55223 2.01185 1.104605 3.32588 1.393749 1.31402.289144 2.93591.315336 3.4811.423302.54519.107967.0662.278917-1.08937.360062-1.15555.08114-2.76719.03788-3.95128-.190525-1.1841-.228408-2.46125-.768381-2.72395-1.13153-.26269-.363148.34737-.609063.95762-.855058z" transform="translate(-109.69318 -2.2463352)"/><path style="fill:#fff;fill-opacity:1;fill-rule:evenodd;stroke:none;stroke-width:.248561px;stroke-linecap:butt;stroke-linejoin:miter;stroke-opacity:1" d="M138.21151 44.394836c.68337-.190636 1.54936-.119524 2.05728.05808.50792.177605 1.08657 1.273135.72281 1.553761-.36376.280625-1.45555.152503-2.32093-.0017-.86538-.154189-1.50431-.334474-1.57367-.650821-.0694-.316348.43113-.768698 1.11451-.959334z" transform="translate(-109.69318 -2.2463352)"/><path style="fill:#fff;fill-opacity:1;fill-rule:evenodd;stroke:none;stroke-width:.244341px;stroke-linecap:butt;stroke-linejoin:miter;stroke-opacity:1" d="M159.30659 48.094482c.36555-.06793.86686-.103271 1.26715-.0067.4003.09657.69949.32483.61382.567082-.0857.242252-.55598.498703-1.02073.576784-.46475.07808-.92414-.02227-1.20413-.196563-.27999-.174289-.38045-.422751-.31588-.597437.0646-.174687.29422-.275227.65977-.343161z" transform="translate(-109.69318 -2.2463352)"/><path style="fill:url(#x);fill-opacity:1;fill-rule:evenodd;stroke:none;stroke-width:.251176px;stroke-linecap:butt;stroke-linejoin:miter;stroke-opacity:1" d="M142.7944 52.413485c-.25506-.154949-.76544-.465009-1.25159-.577552-.48615-.112544-.9479-.02738-1.09735.29877-.14946.326148.0134.89291.44215 1.187521.42876.294612 1.12326.317378 1.52777.146542.40451-.170835.51926-.53547.57667-.717898.0574-.182429.0574-.182433-.19765-.337383z" transform="translate(-109.69318 -2.2463352)"/><path style="display:inline;fill:url(#y);fill-opacity:1;fill-rule:evenodd;stroke:none;stroke-width:.244341px;stroke-linecap:butt;stroke-linejoin:miter;stroke-opacity:1" d="M163.37401 55.293728c-.31993-.202127-.88017-.367913-1.25133-.366341-.37116.0016-.55299.170533-.43412.426296.11886.255764.53809.598142.94894.715546.41086.117405.81345.01008.97484-.16253.1614-.172612.0816-.410843-.23833-.612971z" transform="translate(-109.69318 -2.2463352)"/><path style="fill:#000;fill-opacity:0;fill-rule:evenodd;stroke:#39bec1;stroke-width:.207847px;stroke-linecap:butt;stroke-linejoin:miter;stroke-opacity:1" d="M161.51043 51.526566c.23832-.351859.40017-1.105931.34404-1.486554-.0561-.380623-.33053-.387593-.56917-.03555-.23865.352039-.44124 1.062853-.38479 1.443321.0564.380468.37159.430648.60992.07879z" fill="none" transform="translate(-109.69318 -2.2463352)"/><path style="display:inline;fill:#000;fill-opacity:0;fill-rule:evenodd;stroke:#39bec1;stroke-width:.172491px;stroke-linecap:butt;stroke-linejoin:miter;stroke-opacity:1" d="M141.52614 49.023978c-.33295.261941-.63418-.0095-.58799-.559853.0462-.550335.44001-1.379567.7732-1.641503.3332-.261936.6055.04339.55908.593733-.0464.550338-.41134 1.345682-.74429 1.607623z" fill="none" transform="translate(-109.69318 -2.2463352)"/><path style="fill:#f19ed1;fill-opacity:.801865;fill-rule:evenodd;stroke:none;stroke-width:.271332px;stroke-linecap:butt;stroke-linejoin:miter;stroke-opacity:1" d="M134.60265 57.761399c.19354.447622.58074 1.34318-.13272 1.598446-.71347.255265-2.52633-.128943-4.02407-.513586-1.49774-.384643-2.67658-.768806-3.39551-1.32487-.71892-.556063-.97709-1.283388-.0423-1.653877.93478-.370488 3.0616-.383456 4.49432-.08279 1.43272.300661 2.16976.914878 2.53826 1.221971.3685.307094.3685.307088.56203.754711z" transform="translate(-109.69318 -2.2463352)"/><path style="fill:#f19ed1;fill-opacity:.801865;fill-rule:evenodd;stroke:none;stroke-width:.204948px;stroke-linecap:butt;stroke-linejoin:miter;stroke-opacity:1" d="M162.73627 61.51089c-.41752-.303485.0405-1.188931.98143-1.709196.94088-.520265 2.55064-.695145 3.29735-.451765.74672.24338 1.04638.963246.71595 1.391545-.33043.428299-1.08839.468581-2.19831.634259-1.10991.165678-2.37891.438642-2.79642.135157z" transform="translate(-109.69318 -2.2463352)"/><path style="display:inline;fill:#072430;fill-opacity:1;fill-rule:evenodd;stroke:none;stroke-width:.266866px;stroke-linecap:butt;stroke-linejoin:miter;stroke-opacity:1" d="M162.25362 58.233539c-.26886.02536-.53012.05001-.91301.04078-.38289-.0092-.94123-.06007-1.44954-.113263-.5083-.0532-1.60156-.176575-1.69156-.127293-.09.04928.5861.296371 1.15946.505908.28477.108103.56986.216327 1.0926.309758.52274.09343 1.28323.172258 1.89589.120308.61265-.05195 1.0776-.234739 1.16362-.44831.086-.21357-.20726-.457973-.50046-.70231l-.757.414426z" transform="translate(-109.69318 -2.2463352)"/><path style="fill:#8fd1ee;fill-opacity:1;fill-rule:evenodd;stroke:none;stroke-width:.264583px;stroke-linecap:butt;stroke-linejoin:miter;stroke-opacity:1" d="M159.95573 62.908095c-.0602-.317376-.18064-.95243-.42766-1.457153-.24703-.504722-.62083-.879055-1.00469-1.14914-.38386-.270085-.77781-.435786-1.34567-.520746-.56786-.08496-1.30949-.08904-1.4612-.03198-.15172.05706.28646.175159.74556.321322.4591.146164.93907.320341 1.34484.723854.40576.403513.73743 1.036118.8961 1.539758.15867.503641.14451.878335-.11523 1.481648-.25974.603313-.78414 1.46691-.69541 1.615682.0887.148773.78096-.40143 1.23543-.885517.45447-.484086.67125-.902169.77967-1.111261.10842-.209091.10845-.209087.0483-.526463z" transform="translate(-109.69318 -2.2463352)"/><path style="fill:#8fd1ee;fill-opacity:1;fill-rule:evenodd;stroke:none;stroke-width:.218114px;stroke-linecap:butt;stroke-linejoin:miter;stroke-opacity:1" d="M142.70144 58.817743c-.15955.0056.16435.339134.46625.663492.3117.334823.60024.660074.78317 1.01467.18297.354594.26063.738514.36701 1.324996.10636.586485.24121 1.375472.55211 1.058313.31089-.317159.79793-1.740467.74494-2.473296-.053-.732832-.64597-.774998-1.30743-.984573-.66147-.209571-1.39151-.586674-1.58897-.602976-.006-.000644-.012-.000829-.0171-.000636z" transform="translate(-109.69318 -2.2463352)"/><g style="display:inline"><path style="display:inline;fill:#bd8377;fill-opacity:1;fill-rule:evenodd;stroke:none;stroke-width:.300016px;stroke-linecap:butt;stroke-linejoin:miter;stroke-opacity:1" d="M153.73827 64.765585c.72196.5675 2.16549 1.702202 3.03125 2.568351.86577.866149 1.1602 1.476679 1.45157 2.080863-.5738.527185-1.14753 1.054314-2.03929 1.451705-.89175.397391-2.10168.664994-3.2501.804419-1.14841.139425-2.23545.150628-3.41412.04626-1.17866-.104374-2.44897-.324384-3.49418-.703243-1.0452-.378859-1.8652-.916679-2.59041-1.713021-.72521-.796342-1.35531-1.851078-1.62768-3.095122-.27238-1.244045-.18674-2.67717-.10111-4.110174 1.00205.3483 2.00456.69676 3.02101 1.574411 1.01644.877652 2.0475 2.284502 3.07867 3.691508.27966-.957449.55928-1.914761.76353-2.675388.20425-.760628.33306-1.32435 1.06224-1.372883.72918-.04853 2.05797.418157 2.72232.651486.66435.233328.66435.233333 1.3863.800833z" transform="matrix(.96595559 .18083685 -.18621681 .93804828 -95.802906 -26.0675492)"/><path style="fill:#9e5b4d;fill-opacity:1;fill-rule:evenodd;stroke:none;stroke-width:.300177;stroke-linecap:butt;stroke-linejoin:miter;stroke-miterlimit:4;stroke-dasharray:none;stroke-opacity:1" d="M155.08629 66.887396c-.82631-.368164-2.47884-1.104449-3.73545-1.455975-1.2566-.351525-2.11591-.317706-2.97525-.283885.10359-.43557.20714-.870959.30949-1.297697.10234-.426738.20344-.844655.30451-1.262476.87283.405711 1.74604.811594 2.79762 1.290728 1.05159.479134 2.26049 1.022068 3.31371 1.846949 1.05323.824881 1.93983 1.926331 2.82673 3.028143-.67188-.49921-1.34342-.998164-1.67954-1.247896-.33611-.249733-.33551-.249727-1.16182-.617891z" transform="matrix(.96595559 .18083685 -.18621681 .93804828 -95.802906 -26.0675492)"/><path style="fill:none;fill-rule:evenodd;stroke:#072430;stroke-width:.300177;stroke-linecap:butt;stroke-linejoin:miter;stroke-miterlimit:4;stroke-dasharray:none;stroke-opacity:1" d="M158.60858 60.831955c.1751.101898.36323.211376.67182.520739.3086.309363.80284.878841.89799 1.750212.0952.87137-.19608 1.873838-.50749 2.945767 1.59532-1.608994 3.19062-3.217966 3.41615-4.471771.22553-1.253805-.91893-2.152535-2.06381-3.051595" transform="matrix(.96595559 .18083685 -.18621681 .93804828 -95.802906 -26.0675492)"/><path style="fill:#59332b;fill-opacity:1;fill-rule:evenodd;stroke:none;stroke-width:.300016px;stroke-linecap:butt;stroke-linejoin:miter;stroke-opacity:1" d="M149.26521 61.393159c.74006-.158282 1.48038-.31662 2.40698-.681629.9266-.365009 2.03984-.936713 3.07514-1.11483 1.03531-.178117 1.95684.02918 2.65417.308918.69733.279741 1.07.59132 1.45741.915219.0915.489301.18257.976252.0397 1.587266-.14282.611015-.51655 1.333968-.65763 2.007556-.14107.673587-.048 1.294136.0958 1.972678.14381.678541.33308 1.394515.32191 1.92011-.0112.525596-.22192.81261-.35344.891856-.13151.07925-.17907-.05661-.22652-.192163-.37231-.541665-.74438-1.082985-1.33811-1.734238-.59373-.651254-1.40894-1.41201-2.44881-2.090677-1.03988-.678667-2.30441-1.275094-3.22552-1.694017-.92112-.418924-1.49913-.660457-2.0768-.901844l.27566-1.194205z" transform="matrix(.96595559 .18083685 -.18621681 .93804828 -95.802906 -26.0675492)"/><path style="fill:#9e5b4d;fill-opacity:1;fill-rule:evenodd;stroke:#9e5b4d;stroke-width:.300177;stroke-linecap:butt;stroke-linejoin:miter;stroke-miterlimit:4;stroke-dasharray:none;stroke-opacity:1" d="m146.15943 65.208798-4.62073-.644389.1655-2.468785c.75372.279073 1.50778.558273 2.25029 1.077214.7425.51894 1.47358 1.277308 2.20494 2.03596z" transform="matrix(.96595559 .18083685 -.18621681 .93804828 -95.802906 -26.0675492)"/><path style="display:inline;fill:none;fill-opacity:1;fill-rule:evenodd;stroke:#072430;stroke-width:.30019px;stroke-linecap:butt;stroke-linejoin:miter;stroke-opacity:1" d="M141.85803 66.827574c.48728 1.586676 1.6282 3.187074 3.77869 4.097463 2.15048.910389 5.31012 1.130879 7.8539.748273 2.54377-.382605 4.47136-1.368029 4.98017-2.550611.50881-1.182582-.40152-2.561892-.28268-3.959885.11883-1.397993 1.12429-2.637409.76737-3.824224-.35693-1.186814-2.24693-1.923862-3.45137-1.920346-1.20444.0035-2.48599.776299-3.57068 1.237591-1.08469.461292-1.84058.593054-2.66822.737324l-.0471.204216c-.0471.204217-.15407.667478-.21565.926868-.0616.25939-.12335.508293-.32578 1.323439-.20243.815145-.53755 2.164438-.87271 3.513865-1.03203-1.449791-2.06385-2.899284-3.0804-3.777033-1.01656-.877749-2.01812-1.183374-3.01933-1.488891-.16672 1.572581-.33345 3.145274.15383 4.731951z" transform="matrix(.96595559 .18083685 -.18621681 .93804828 -95.802906 -26.0675492)"/><path style="fill:none;fill-opacity:1;fill-rule:evenodd;stroke:#351e1a;stroke-width:.300016px;stroke-linecap:butt;stroke-linejoin:miter;stroke-opacity:1" d="M148.98955 62.587364c1.92466.735289 3.84922 1.470539 5.27702 2.376536 1.4278.905997 2.35961 1.982915 2.9361 2.753392.57649.770477.79738 1.233844 1.01842 1.697507" transform="matrix(.96595559 .18083685 -.18621681 .93804828 -95.802906 -26.0675492)"/></g><path style="display:inline;opacity:.522436;fill:url(#z);fill-opacity:1;fill-rule:evenodd;stroke:none;stroke-width:.308185px;stroke-linecap:butt;stroke-linejoin:miter;stroke-opacity:1" d="M154.07469 57.002903s2.80264.688038 4.46809 2.943766c.8145 1.103189 2.06658 2.11822 1.58807 3.425054-.31894.871063-1.52897 1.931508-2.29276 2.452621-.13653.09315-1.91166 1.29967-1.91166 1.29967l-.24571-.183682s.82729-1.324338.96087-2.274715c.0577-.410244.0751-.693207.0174-1.01372-.11976-.665768-.4693-1.086878-.4693-1.086878l-.13625.832211-1.21826 2.174933-.25471 1.367444.0617 1.840282s-.3194 1.005262-.76911 1.401101c-.49439.435171-1.38932.765675-2.02665.909123-.80852.181975-2.48491.235089-3.30859.189343-1.74268-.09679-3.22215-.269654-4.82896-.936636-1.39993-.581109-2.5212-1.037492-3.59828-2.106248-.39562-.392551-.84463-.966493-1.12851-1.534397-.3555-.711203-.58336-1.495618-.6888-2.283701-.0919-.686527-.0813-1.398259.0559-2.077181.28659-1.418261 1.08928-3.524003 1.57725-4.044089.96553-1.029002 3.20278.271457 4.49471-.275069.38146-.16137 2.02494-1.140286 4.10949-1.336831 2.53252-.238782 5.54407.317599 5.54407.317599z" transform="translate(-109.69318 -2.2463352)"/><path style="fill:#692fd7;fill-opacity:.870588;fill-rule:evenodd;stroke:none;stroke-width:.264583px;stroke-linecap:butt;stroke-linejoin:miter;stroke-opacity:1" d="M152.7156 71.114922c.22454-.216786-1.26115.381109-3.44017.44785-2.17903.06674-5.05136-.397787-5.27588-.180969-.22452.216818 2.19883 1.11493 4.3778 1.048145 2.17896-.06678 4.1137-1.09824 4.33825-1.315026z" transform="translate(-109.69318 -2.2463352)"/><path style="fill:#8fd1ee;fill-opacity:.240093;fill-rule:evenodd;stroke:none;stroke-width:.188268px;stroke-linecap:butt;stroke-linejoin:miter;stroke-opacity:1" d="M164.13097 34.921623c1.01892-.740183.22326-2.950768-1.30871-4.448883-1.53197-1.498114-3.80021-2.283341-5.69409-2.441067-1.89388-.157726-3.41315.312134-3.2979 1.445146.11525 1.133012 1.86486 2.928888 4.15653 4.191861 2.29167 1.262973 5.12526 1.993126 6.14417 1.252943z" transform="translate(-109.69318 -2.2463352)"/></g></svg>