<svg width="74mm" height="74mm" viewBox="0 0 74 74" xmlns:xlink="http://www.w3.org/1999/xlink" xmlns="http://www.w3.org/2000/svg"><defs><linearGradient id="l"><stop style="stop-color:#5824bb;stop-opacity:1" offset="0"/><stop style="stop-color:#5824bb;stop-opacity:0" offset="1"/></linearGradient><linearGradient id="j"><stop style="stop-color:#fff;stop-opacity:1" offset="0"/><stop style="stop-color:#757575;stop-opacity:1" offset="1"/></linearGradient><linearGradient id="k"><stop style="stop-color:#fff;stop-opacity:1" offset="0"/><stop style="stop-color:#757575;stop-opacity:1" offset="1"/></linearGradient><linearGradient id="b"><stop style="stop-color:#42b3e2;stop-opacity:1" offset="0"/><stop style="stop-color:#a86bf8;stop-opacity:1" offset="1"/></linearGradient><linearGradient id="i"><stop style="stop-color:#4ab5e3;stop-opacity:1" offset="0"/><stop style="stop-color:#a86bf8;stop-opacity:1" offset="1"/></linearGradient><linearGradient id="h"><stop style="stop-color:#f9ebeb;stop-opacity:1" offset="0"/><stop style="stop-color:#dc00dc;stop-opacity:0" offset="1"/></linearGradient><linearGradient id="g"><stop style="stop-color:#060021;stop-opacity:1" offset="0"/><stop style="stop-color:#270027;stop-opacity:0" offset="1"/></linearGradient><linearGradient id="f"><stop style="stop-color:#fff;stop-opacity:1" offset="0"/><stop style="stop-color:#fff;stop-opacity:0" offset="1"/></linearGradient><linearGradient id="e"><stop style="stop-color:#fff;stop-opacity:1" offset="0"/><stop style="stop-color:#fff;stop-opacity:0" offset="1"/></linearGradient><linearGradient id="d"><stop style="stop-color:#6949f6;stop-opacity:1" offset="0"/><stop style="stop-color:#59d4e6;stop-opacity:1" offset="1"/></linearGradient><linearGradient id="c"><stop style="stop-color:#6949f6;stop-opacity:1" offset="0"/><stop style="stop-color:#59d4e6;stop-opacity:1" offset="1"/></linearGradient><linearGradient id="a"><stop style="stop-color:#42b3e2;stop-opacity:1" offset="0"/><stop style="stop-color:#a86bf8;stop-opacity:1" offset="1"/></linearGradient><linearGradient xlink:href="#a" id="n" x1="143.82512" y1="3.4783132" x2="132.10838" y2="24.582396" gradientUnits="userSpaceOnUse" gradientTransform="matrix(.89987 -.24835 .2289 .69435 16.433037 41.413184)"/><linearGradient xlink:href="#b" id="o" x1="159.02138" y1="10.882603" x2="147.66571" y2="18.200302" gradientUnits="userSpaceOnUse" gradientTransform="matrix(.9283 -.13728 .1203 .65253 15.100219 32.494358)"/><linearGradient xlink:href="#c" id="q" x1="140.66444" y1="46.230885" x2="140.42838" y2="54.74342" gradientUnits="userSpaceOnUse" gradientTransform="matrix(.92632 .17342 -.18622 .93805 20.77679 -22.531986)"/><linearGradient xlink:href="#d" id="v" x1="161.78847" y1="45.19524" x2="161.5842" y2="51.382637" gradientUnits="userSpaceOnUse" gradientTransform="matrix(.92632 .17342 -.17622 .8877 20.182856 -19.540104)"/><linearGradient xlink:href="#e" id="y" x1="131.88144" y1="51.338135" x2="131.6008" y2="51.665539" gradientUnits="userSpaceOnUse" gradientTransform="matrix(.92632 .17342 -.17622 .8877 20.182856 -19.540104)"/><linearGradient xlink:href="#f" id="x" x1="131.88144" y1="51.338135" x2="131.6008" y2="51.665539" gradientUnits="userSpaceOnUse" gradientTransform="matrix(.92632 .17342 -.18622 .93805 20.77679 -22.531986)"/><linearGradient xlink:href="#g" id="t" x1="140.72685" y1="46.609943" x2="139.8219" y2="51.504734" gradientUnits="userSpaceOnUse" gradientTransform="matrix(.92632 .17342 -.18622 .93805 20.77679 -22.531986)"/><linearGradient xlink:href="#g" id="w" gradientUnits="userSpaceOnUse" x1="161.72787" y1="45.857281" x2="161.51447" y2="49.627594" gradientTransform="matrix(.93937 .08927 -.10073 .89832 14.471997 -6.4529627)"/><linearGradient xlink:href="#h" id="z" x1="152.84903" y1="70.163811" x2="146.62292" y2="59.815025" gradientUnits="userSpaceOnUse" gradientTransform="matrix(1.25615 .23516 -.20673 1.04137 -28.181437 -37.716836)"/><linearGradient xlink:href="#i" id="m" x1="153.90926" y1="59.359982" x2="145.58804" y2="22.809269" gradientUnits="userSpaceOnUse" gradientTransform="matrix(.92632 .17342 -.18622 .93805 20.752155 -22.40789)"/><linearGradient xlink:href="#j" id="p" x1="141.95956" y1="58.657475" x2="133.15926" y2="43.768059" gradientUnits="userSpaceOnUse" gradientTransform="matrix(.92632 .17342 -.18622 .93805 20.77679 -22.531986)"/><linearGradient xlink:href="#k" id="u" x1="164.06068" y1="55.547611" x2="157.70811" y2="43.206776" gradientUnits="userSpaceOnUse" gradientTransform="matrix(.92632 .17342 -.17622 .8877 20.182856 -19.540104)"/><linearGradient xlink:href="#l" id="r" x1="130.26138" y1="39.161667" x2="144.01241" y2="35.179623" gradientUnits="userSpaceOnUse" gradientTransform="matrix(.92632 .17342 -.18622 .93805 20.77679 -22.531986)"/><linearGradient xlink:href="#l" id="s" x1="157.31148" y1="35.555443" x2="165.43063" y2="37.804401" gradientUnits="userSpaceOnUse" gradientTransform="matrix(.92632 .17342 -.18622 .93805 20.77679 -22.531986)"/></defs><g style="display:inline;opacity:1"><path style="fill:url(#m);fill-opacity:1;fill-rule:evenodd;stroke:#0e455d;stroke-width:.265255px;stroke-linecap:butt;stroke-linejoin:miter;stroke-opacity:1" d="M148.56187 20.712703c-5.94511-.883215-7.31921-.822826-13.8199-.313475-6.29927.666743-10.88486 3.803024-15.07135 6.877869-4.18647 3.07485-7.57434 8.091779-9.05455 12.826261-1.4802 4.734486-.93273 11.782987 2.14021 16.636967 3.07295 4.85398 5.7748 7.8291 11.96033 10.811823 6.18553 2.982724 16.44956 5.848289 21.73935 6.222026 5.28981.373741 10.82467-2.479206 14.6388-3.58407 2.04207-.59154 8.30841-2.805113 10.43049-9.985781.64807-2.19293-1.44582-8.247766-1.11125-10.757535.51964-3.897893 1.39553-7.105329.5906-10.526135-.70631-3.001729-1.20891-4.738856-4.58262-8.036349-2.41342-2.358895-5.01633-5.034751-9.51444-6.817042-2.55653-.606972-5.45072-2.662529-8.34567-3.354559z" transform="translate(-104.79273 -.32107474)"/><path style="fill:url(#n);fill-opacity:1;fill-rule:evenodd;stroke:#0e455d;stroke-width:.218448px;stroke-linecap:butt;stroke-linejoin:miter;stroke-opacity:1" d="M141.31726 21.640423c-.77352-3.235963-1.54703-6.471897-1.70472-9.085791-.15769-2.6138947.30049-4.6052852 1.09854-5.8683136.79805-1.2630284 1.93564-1.7973069 3.19817-1.2574799 1.26253.539827 2.64982 2.1533711 3.96383 2.7799327 1.31401.6265617 2.55437.2663909 2.76961-.755074.21525-1.0214648-.59488-2.7043885-1.93065-4.0781394-1.33576-1.3737508-3.19736-2.43826372-5.25643-2.38387176-2.05906.054392-4.31525 1.22797856-5.76923 3.43490586-1.45399 2.2069273-2.10552 5.4472085-2.14957 8.1674761-.044 2.720267.51965 4.922831.73152 6.247378s.0728 1.77515-.0663 2.225685" transform="translate(-104.79273 -.32107474)"/><path style="fill:url(#o);fill-opacity:1;fill-rule:evenodd;stroke:#0e455d;stroke-width:.208711px;stroke-linecap:butt;stroke-linejoin:miter;stroke-opacity:1" d="M153.91276 24.279546c.75565-2.217544 1.51124-4.434889 2.74846-6.658734 1.23723-2.223844 2.95608-4.454025 4.79606-5.500235 1.83998-1.046211 3.80141-.908932 5.58611.281814 1.7847 1.190746 3.39237 3.434335 3.25923 4.763465-.13313 1.32913-2.00705 1.744085-3.33787 1.245234-1.33081-.498851-2.11788-1.911535-2.99632-2.440087-.87845-.528553-1.84811-.17242-2.77583 1.031762-.92772 1.204181-1.8132 3.256208-2.22219 4.882298-.409 1.626091-.34155 2.825923-.27411 4.025739" transform="translate(-104.79273 -.32107474)"/><path style="opacity:.25;fill:#8fd1ee;fill-opacity:1;fill-rule:evenodd;stroke:none;stroke-width:.251176px;stroke-linecap:butt;stroke-linejoin:miter;stroke-opacity:1" d="M164.02824 29.251241c.0288.157365.0575.314436.67188 1.256307.61437.94187 1.8378 2.702512 2.73137 4.69005.89356 1.987538 1.46915 4.218817 1.53332 6.46058.0642 2.241764-.38291 4.493948-.38806 6.859301-.005 2.365354.43153 4.843655.81559 6.97344.38406 2.129786.71935 3.931778 1.04471 4.254291.32535.322513.6428-.823889.60089-2.196885-.0419-1.372996-.44334-2.972499-.59187-4.752298-.14853-1.779799-.0441-3.739634.1658-5.645741.20986-1.906107.5251-3.758228.42681-5.847128-.0983-2.0889-.61022-4.414403-1.42889-6.156637-.81867-1.742234-1.94417-2.900915-2.89228-3.84065-.94812-.939735-1.71874-1.66039-2.48963-2.381292" transform="translate(-104.79273 -.32107474)"/><path style="fill:url(#p);fill-opacity:1;fill-rule:evenodd;stroke:#092d3d;stroke-width:.251176px;stroke-linecap:butt;stroke-linejoin:miter;stroke-opacity:1" d="M145.98813 45.272051c-.15347-.616532-.46048-1.849925-1.01606-2.735049-.55559-.885123-1.3599-1.421818-2.31991-1.601624-.96001-.179807-2.07551-.0025-3.34895.4628-1.27343.465326-2.72809 1.231019-4.31404 2.183857-1.58595.952839-3.31476 2.098898-3.86105 3.090786-.5463.991888.0898 1.829217.70549 2.926952.6157 1.097735 1.14714 2.309953 1.71063 3.595265.41697.551793.82981 1.098107 1.82857 1.817157.99877.719051 2.8539 1.755614 3.85186 1.881759.99796.126144 2.11921-.54104 2.82331-1.196408.7041-.655369 1.17783-1.410132 1.73243-2.441592.55459-1.03146 1.31611-2.59915 1.6424-3.620367.32628-1.021216.54023-2.506948.62951-3.126974.0893-.620027.0893-.62003-.0642-1.236562z" transform="translate(-104.79273 -.32107474)"/><path style="fill:url(#q);fill-opacity:1;fill-rule:evenodd;stroke:#0c3d52;stroke-width:.24459px;stroke-linecap:butt;stroke-linejoin:miter;stroke-opacity:1" d="M144.71106 41.734024c-.76821-.35044-2.30489-1.051437-3.8836-.422847-1.57872.62859-3.19905 2.586764-4.09518 4.290092-.89614 1.703329-1.06805 3.151507-.83042 4.42353.23763 1.272024.88458 2.367766 1.62294 2.986838.73836.619071 1.56802.761686 2.37087.692027.80286-.06966 1.57902-.351509 2.38194-1.035126.80292-.683617 1.63269-1.76906 2.25559-3.068724.62289-1.299663 1.03886-2.813528 1.16211-4.101767.12324-1.288239-.0464-2.350734-.1312-2.882156-.0848-.531423-.0848-.531427-.85305-.881867z" transform="translate(-104.79273 -.32107474)"/><path style="fill:#072430;fill-opacity:1;fill-rule:evenodd;stroke:#0c334d;stroke-width:.259166;stroke-linecap:butt;stroke-linejoin:miter;stroke-miterlimit:4;stroke-dasharray:none;stroke-opacity:1" d="M145.9263 44.954672c-.15589-.567416-.46775-1.702583-1.11863-2.461134s-1.64092-1.140246-2.73417-1.170426c-1.09326-.03018-2.28949.291284-3.48033.864709-1.19084.573424-2.37609 1.398737-3.55406 2.410916-1.17798 1.012179-2.34852 2.211064-3.51914 3.410024l.61283 2.36529 1.41144 2.820987-2.14353-2.94211-1.36115-3.175829c2.24989-1.825957 4.49976-3.651894 6.52603-4.854341 2.02627-1.202447 3.82872-1.78131 5.31103-1.820591 1.48232-.03928 2.65244.464392 3.35339 1.133225.70095.668834.9369 1.504053 1.17294 2.339597l.0501 3.550417c-.12361-.634439-.24715-1.268562-.30899-1.58594-.0618-.317378-.0619-.317378-.21776-.884794z" transform="translate(-104.79273 -.32107474)"/><path style="fill:url(#r);fill-opacity:1;fill-rule:evenodd;stroke:none;stroke-width:.21167;stroke-linecap:butt;stroke-linejoin:miter;stroke-miterlimit:4;stroke-dasharray:none;stroke-opacity:1" d="M147.62714 35.442314c.32315.281138.6465.562449-.62313.470682-1.26962-.09177-4.13195-.556288-6.62295-.268563-2.491.287725-4.61027 1.327782-6.72952 2.36783.96482-1.210802 1.92961-2.421555 3.47741-3.196466 1.5478-.774912 3.67814-1.113819 5.36252-1.136607 1.68438-.02279 2.92245.270426 3.70416.617078.78171.346652 1.10651.746231 1.43151 1.146046z" transform="translate(-104.79273 -.32107474)"/><path style="fill:url(#s);fill-opacity:1;fill-rule:evenodd;stroke:none;stroke-width:.205762;stroke-linecap:butt;stroke-linejoin:miter;stroke-miterlimit:4;stroke-dasharray:none;stroke-opacity:1" d="M164.40177 40.125566c1.25901.741211 1.88462 1.764325 2.51038 2.787688-.25912-1.06771-.51817-2.135132-.88014-2.877061-.36198-.74193-.82678-1.157826-1.60296-1.538188-.77618-.380362-2.00225-.768952-2.62704-.808816-.62478-.03986-.90015.16276-1.36902.392561-.46888.229801-.91154.343277-.56765.467271.3439.123993 3.27742.835334 4.53643 1.576545z" transform="translate(-104.79273 -.32107474)"/><path style="fill:url(#t);fill-opacity:1;fill-rule:evenodd;stroke:none;stroke-width:.251176px;stroke-linecap:butt;stroke-linejoin:miter;stroke-opacity:1" d="M140.87825 46.389024c-.25801.383392-.77394 1.150051-.85884 1.911477-.0849.761426.261 1.517356.79598 1.703162.53498.185806 1.2591-.19821 1.72455-.735426.46545-.537216.6723-1.227798.7689-1.801449.0966-.573651.0829-1.030353-.11499-1.35136-.19785-.321007-.58005-.506092-.95379-.501793-.37374.0043-.73874.198138-.92125.295067-.18252.09693-.18255.09693-.44056.480322z" transform="translate(-104.79273 -.32107474)"/><path style="display:inline;fill:url(#u);fill-opacity:1;fill-rule:evenodd;stroke:#092d3d;stroke-width:.188232px;stroke-linecap:butt;stroke-linejoin:miter;stroke-opacity:1" d="M158.49031 47.440995c.26817-.471415.80464-1.41448 1.38352-1.999245.57887-.584764 1.20024-.811074 1.80785-.697397.60761.113677 1.20123.567453 1.80131 1.302711.60007.735259 1.22075 1.775753 1.86079 3.004589.64003 1.228836 1.30647 2.657812 1.3338 3.63384.0273.976029-.58422 1.498915-1.25947 2.243915-.67525.745-1.33592 1.609576-2.03583 2.525509-.40174.345175-.79949.686927-1.61763.883276-.81814.196349-2.26552.248218-2.8798.07955-.61427-.168673-.99443-.726988-1.1801-1.338982-.18566-.611993-.24003-1.370642-.26068-2.381958-.0206-1.011317-.005-2.526043.10349-3.466183.10842-.940139.41699-2.236349.54576-2.777279.12877-.54093.12882-.540926.39699-1.012341z" transform="translate(-104.79273 -.32107474)"/><path style="display:inline;fill:url(#v);fill-opacity:1;fill-rule:evenodd;stroke:#0c3d52;stroke-width:.183297px;stroke-linecap:butt;stroke-linejoin:miter;stroke-opacity:1" d="M162.06673 44.88621c.33132.228819.99421.68664 1.53893 1.479433.54472.792793.97184 1.920809 1.17444 2.810054.20261.889245.1808 1.539002-.0307 2.423012-.21145.884011-.61192 2.00001-1.21284 2.84633-.60091.84632-1.40101 1.421382-2.10351 1.641346-.7025.219964-1.30493.08405-1.78565-.166972-.48073-.251022-.83807-.616582-1.02224-1.325727-.18416-.709145-.19459-1.761218-.0729-3.042642.12173-1.281423.37563-2.791668.68226-3.799018.30663-1.00735.66594-1.511388.94704-1.917277.2811-.40589.48393-.713556.72985-.893388.24591-.179833.53514-.231941.67954-.257955.1444-.02602.14439-.02602.4757.202804z" transform="translate(-104.79273 -.32107474)"/><path style="display:inline;fill:#072430;fill-opacity:1;fill-rule:evenodd;stroke:#0c334d;stroke-width:.194353px;stroke-linecap:butt;stroke-linejoin:miter;stroke-opacity:1" d="M158.49032 47.440987c.38339-.677218.89407-1.537141 1.51128-1.993457.61721-.456315 1.34105-.508809 1.98248-.233626.64144.275183 1.19911.876854 1.70095 1.684385.50183.80753.94721 1.820192 1.33401 2.986496.38679 1.166305.71496 2.486004 1.04316 3.805867l-1.04271 1.801926-1.6372 1.96234 2.09587-1.862337 1.71138-2.27169c-.77-2.138263-1.53996-4.276417-2.36203-5.833994-.82207-1.557577-1.69615-2.534332-2.54063-2.974016-.84447-.439683-1.67077-.340901-2.27079.02383-.60003.364728-.97954.995661-1.3592 1.626827l-1.06204 2.943473c.2561-.494517.51209-.988802.89547-1.666021z" transform="translate(-104.79273 -.32107474)"/><path style="display:inline;fill:url(#w);fill-opacity:1;fill-rule:evenodd;stroke:none;stroke-width:.182553px;stroke-linecap:butt;stroke-linejoin:miter;stroke-opacity:1" d="M161.61682 48.694455c.14991.0011.44965.0034.70025.20755.2506.204198.45243.610149.46068 1.102488.008.492339-.17666 1.069652-.3694 1.555402-.19274.485751-.39292.878807-.62931 1.11808-.23638.239273-.50747.323472-.76888.300624-.2614-.02285-.47774-.13511-.66385-.427666-.18612-.292556-.23132-.521113-.23436-1.067298-.003-.546184.0344-.79711.23088-1.316767.19651-.519656.36973-.780632.59856-1.04316.22883-.262528.36847-.341514.44702-.385947.0786-.04443.0785-.04442.22841-.04331z" transform="translate(-104.79273 -.32107474)"/><path style="fill:#135979;fill-opacity:1;fill-rule:evenodd;stroke:none;stroke-width:.251176px;stroke-linecap:butt;stroke-linejoin:miter;stroke-opacity:1" d="M147.79865 40.318466c.34289.01205 1.02843.03615 1.28659.758151.25816.721999.0892 2.141264-.0798 3.560848-.10121-1.213383-.2024-2.426439-.91936-3.165543-.71695-.739105-2.05005-1.003689-3.38294-1.26823.91755.03425 1.83531.0685 2.29398.08562.45867.01712.45866.0171.80155.02916zM158.76539 42.823488c.85272-.448915 1.74874-.487764 2.68496-.528357-1.09933-.244993-2.19838-.489923-2.97547-.416309-.7771.07362-1.2317.465936-1.49978 1.019107-.26807.55317-.34951 1.266703-.43097 1.980459.69919-.820493 1.36855-1.605985 2.22126-2.0549z" transform="translate(-104.79273 -.32107474)"/><path style="display:inline;fill:#072430;fill-opacity:1;fill-rule:evenodd;stroke:none;stroke-width:.244341px;stroke-linecap:butt;stroke-linejoin:miter;stroke-opacity:1" d="M134.3334 54.214343c.92909.655186 1.85842 1.310544 2.70878 1.748811.85035.438267 1.62192.659706 2.33935.807118s1.38048.220811 2.04376.294235l-.64824.07234c-.64823.07234-2.20384.245947-3.16281-.01216-.95896-.258107-2.27903-1.205992-3.07263-1.680476-.7936-.474484-1.28081-.633378-1.76774-.792185l1.55953-.437687z" transform="translate(-104.79273 -.32107474)"/><path style="fill:#fff;fill-opacity:1;fill-rule:evenodd;stroke:none;stroke-width:.248561px;stroke-linecap:butt;stroke-linejoin:miter;stroke-opacity:1" d="M138.21151 44.394836c.68337-.190636 1.54936-.119524 2.05728.05808.50792.177605 1.08657 1.273135.72281 1.553761-.36376.280625-1.45555.152503-2.32093-.0017-.86538-.154189-1.50431-.334474-1.57367-.650821-.0694-.316348.43113-.768698 1.11451-.959334z" transform="translate(-104.79273 -.32107474)"/><path style="fill:#fff;fill-opacity:1;fill-rule:evenodd;stroke:none;stroke-width:.244341px;stroke-linecap:butt;stroke-linejoin:miter;stroke-opacity:1" d="M159.30659 48.094482c.36555-.06793.86686-.103271 1.26715-.0067.4003.09657.69949.32483.61382.567082-.0857.242252-.55598.498703-1.02073.576784-.46475.07808-.92414-.02227-1.20413-.196563-.27999-.174289-.38045-.422751-.31588-.597437.0646-.174687.29422-.275227.65977-.343161z" transform="translate(-104.79273 -.32107474)"/><path style="fill:url(#x);fill-opacity:1;fill-rule:evenodd;stroke:none;stroke-width:.251176px;stroke-linecap:butt;stroke-linejoin:miter;stroke-opacity:1" d="M142.7944 52.413485c-.25506-.154949-.76544-.465009-1.25159-.577552-.48615-.112544-.9479-.02738-1.09735.29877-.14946.326148.0134.89291.44215 1.187521.42876.294612 1.12326.317378 1.52777.146542.40451-.170835.51926-.53547.57667-.717898.0574-.182429.0574-.182433-.19765-.337383z" transform="translate(-104.79273 -.32107474)"/><path style="display:inline;fill:url(#y);fill-opacity:1;fill-rule:evenodd;stroke:none;stroke-width:.244341px;stroke-linecap:butt;stroke-linejoin:miter;stroke-opacity:1" d="M163.37401 55.293728c-.31993-.202127-.88017-.367913-1.25133-.366341-.37116.0016-.55299.170533-.43412.426296.11886.255764.53809.598142.94894.715546.41086.117405.81345.01008.97484-.16253.1614-.172612.0816-.410843-.23833-.612971z" transform="translate(-104.79273 -.32107474)"/><path style="fill:#000;fill-opacity:0;fill-rule:evenodd;stroke:#39bec1;stroke-width:.207847px;stroke-linecap:butt;stroke-linejoin:miter;stroke-opacity:1" d="M161.66785 51.551632c.0809-.376925.24275-1.130997.18662-1.51162-.0561-.380623-.33053-.387593-.56917-.03555-.23865.352039-.44124 1.062853-.38483 1.443316.0564.380463.37153.430637.52899.455709.15745.02507.15749.02508.23839-.35185z" fill="none" transform="translate(-104.79273 -.32107474)"/><path style="display:inline;fill:#000;fill-opacity:0;fill-rule:evenodd;stroke:#39bec1;stroke-width:.172491px;stroke-linecap:butt;stroke-linejoin:miter;stroke-opacity:1" d="M141.52614 49.023978c-.33295.261941-.63418-.0095-.58799-.559853.0462-.550335.44001-1.379567.7732-1.641503.3332-.261936.6055.04339.55908.593733-.0464.550338-.41134 1.345682-.74429 1.607623z" fill="none" transform="translate(-104.79273 -.32107474)"/><path style="fill:#f19ed1;fill-opacity:1;fill-rule:evenodd;stroke:none;stroke-width:.285327px;stroke-linecap:butt;stroke-linejoin:miter;stroke-opacity:1" d="M131.07805 55.762112c1.2095.975759.6176 1.794577-.82723 1.775347-1.44483-.01923-3.74279-.876508-4.95259-1.852175s-1.33099-2.069695.11421-2.050567c1.4452.01913 4.45611 1.151635 5.66561 2.127395z" transform="translate(-104.79273 -.32107474)"/><path style="fill:#f19ed1;fill-opacity:1;fill-rule:evenodd;stroke:none;stroke-width:.217015px;stroke-linecap:butt;stroke-linejoin:miter;stroke-opacity:1" d="M163.1315 61.571826c-1.06878-.268167-1.46994-.971089-.574-1.373577.89594-.402488 3.37884-.517726 4.30626-.2847.92742.233027.87527.828097-.19964 1.310734-1.07492.482636-2.46385.615711-3.53262.347543z" transform="translate(-104.79273 -.32107474)"/><path style="display:inline;fill:#072430;fill-opacity:1;fill-rule:evenodd;stroke:none;stroke-width:.244341px;stroke-linecap:butt;stroke-linejoin:miter;stroke-opacity:1" d="M162.56131 57.918243c-.36445.119293-.72881.238557-1.15367.348155-.42485.109598-.97849.223565-1.29646.236523-.31797.01296-.69407-.06296-.97772-.139588-.28365-.07663-.54592-.17277-.75998-.282328-.21407-.109557-.53335-.309121-.85499-.413134-.32164-.104014-.59045-.11035-.88617-.11732l.80555.390665 1.05082.81617c.5228.15253 1.04587.305143 1.71355.308565.66768.0034 1.48039-.142159 2.05929-.245907.57891-.103748.92401-.165665 1.09658-.196626l.17256-.03096-.96936-.674214z" transform="translate(-104.79273 -.32107474)"/><g style="display:inline"><path style="fill:#692fd7;fill-opacity:.869565;fill-rule:evenodd;stroke:none;stroke-width:.300016px;stroke-linecap:butt;stroke-linejoin:miter;stroke-opacity:1" d="M149.28257 72.075876c.10308 0 .20572 0 .98887.0487.78316.0487 2.24665.146074 3.58818-.0061 1.34153-.152197 2.56112-.553874 2.49046-.334768-.0707.219107-1.43147 1.058969-3.16451 1.320733-1.73304.261763-3.83845-.05471-5.11588-.456271-1.27743-.401559-1.72675-.888429-1.36083-.985922.36592-.09749 1.54703.194641 2.72776.486682" transform="matrix(.96596 .18084 -.18622 .93805 -90.902466 -24.14228874)"/><path style="fill:#135979;fill-opacity:1;fill-rule:evenodd;stroke:none;stroke-width:.300015px;stroke-linecap:butt;stroke-linejoin:miter;stroke-opacity:1" d="M155.9468 59.322492c.0392-.0106 3.04194-.03738 3.61632.556462.41383.427889.91696 1.030316.99186 1.25846.12181.370879.2653 1.489955.33984 1.773601.18416.700792-1.22376 3.137656-1.22376 3.137656l.18134-4.229428-.99349-.998404z" transform="matrix(.96596 .18084 -.18622 .93805 -90.902466 -24.14228874)"/><path style="display:inline;fill:#bd8377;fill-opacity:1;fill-rule:evenodd;stroke:none;stroke-width:.300016px;stroke-linecap:butt;stroke-linejoin:miter;stroke-opacity:1" d="M148.98954 62.587364c1.04008.462631 3.11986 1.387719 4.68609 2.300697 1.56623.912978 2.61894 1.81371 3.40156 2.609681.78262.79597 1.30667 1.502557 1.23442 2.015327-.0722.51277-.73493.839833-1.45658 1.123869-.72166.284036-1.50236.525036-2.35112.701498-.84877.176461-1.76561.288349-2.61439.327302-.84878.03895-1.6476.0041-2.46913-.129237-.82154-.133369-1.67486-.365757-2.46011-.740093-.78526-.374336-1.50241-.890754-2.16162-1.422637-.65921-.531884-1.26043-1.079254-1.69791-2.087554-.43747-1.008299-.71089-2.477277-.52758-3.573751.1833-1.096475.82339-1.819913 1.2307-2.314483.40731-.494569.58182-.760277.72639-.573625.14456.186652.25907.825382.36195 1.458629.10287.633246.19412 1.260966.67752 2.106442.4834.845476 1.35872 1.908707 2.23419 2.972113-.17458-1.058526-.34911-2.116767-.28317-2.971388.0659-.854622.37247-1.505178.48425-1.848694.11178-.343516.0283-.38005-.0136-.398388-.0419-.01834-.0419-.01834.99815.444292z" transform="matrix(.96596 .18084 -.18622 .93805 -90.902466 -24.14228874)"/><path style="fill:#9e5b4d;fill-opacity:1;fill-rule:evenodd;stroke:none;stroke-width:.300016px;stroke-linecap:butt;stroke-linejoin:miter;stroke-opacity:1" d="M155.08629 66.887396c-.82631-.368164-2.47884-1.104449-3.89113-1.498926-1.41229-.394477-2.58149-.44649-3.16744-.472556-.58595-.02607-.58595-.02607-.5794.255523.007.281591.0197.844993-.3131.871024-.33275.02603-1.0111-.485279-1.87466-.808731-.86356-.323452-1.91486-.45954-2.96503-.595482.28945-.776564.57883-1.552956.95632-2.264074.37748-.711118.84293-1.356592 1.10096-1.304207.25804.05238.30851.802347.57446 1.666213.26595.863866.74718 1.841303 1.20876 2.500851.46159.659549.90594 1.003288 1.16188.602779.25593-.400508.32954-1.554234.45873-2.339352.1292-.785119.3144-1.207761.96585-1.096627.65144.111134 1.76868.756005 2.94247 1.354701 1.17379.598696 2.38269 1.14163 3.43591 1.966511 1.05323.824881 1.94009 1.926647 2.04764 2.227917.10755.30127-.56433-.197938-.90045-.44767-.33611-.249733-.33546-.24973-1.16177-.617894z" transform="matrix(.96596 .18084 -.18622 .93805 -90.902466 -24.14228874)"/><path style="fill:#135979;fill-opacity:1;fill-rule:evenodd;stroke:none;stroke-width:.300009px;stroke-linecap:butt;stroke-linejoin:miter;stroke-opacity:1" d="M148.92558 60.439113c-.56909.187944-1.0723.569467-1.4069 1.066683-.32778.487069-.48979 1.066921-.59107 1.645207-.15487.884291-.17905 1.79136-.0715 2.682645-.70862-.897833-1.27722-1.905959-1.67899-2.976857-.30045-.800822-.50788-1.636497-.61679-2.484862-.15451.601236-.19948 1.230442-.13204 1.84754.0762.697458.29472 1.375066.59942 2.007057.61394 1.273391 1.5864 2.371551 2.77618 3.135016-.26289-1.011209-.33292-2.072199-.20522-3.109189.083-.674223.24875-1.337188.47528-1.977622.22526-.636849.51081-1.252358.85158-1.835618" transform="matrix(.96596 .18084 -.18622 .93805 -90.902466 -24.14228874)"/><path style="fill:#59332b;fill-opacity:1;fill-rule:evenodd;stroke:none;stroke-width:.300016px;stroke-linecap:butt;stroke-linejoin:miter;stroke-opacity:1" d="M148.184 62.233003c.0577-.168437.16383-.478563.30769-.831789.14386-.353226.28286-.645048.43389-.962101.28052.07533.56129.150724.98798.230583.42668.07986.99933.164251 2.06744-.131618 1.06811-.295869 2.94218-1.106155 3.78807-1.27069.84589-.164535 1.48167.143411 1.94542.477202.46375.333791.79751.697852 1.14442 1.076249.24929.161236.49758.32182.35464.932829-.14293.611009-.67374 1.660527-.89367 2.498054-.21992.837526-.12686 1.458075.017 2.136617.14381.678541.33308 1.394515.32191 1.92011-.0112.525596-.22192.81261-.35344.891856-.13151.07925-.17907-.05661-.22652-.192163-.37231-.541665-.74438-1.082985-1.33811-1.734238-.59373-.651254-1.40894-1.41201-2.44881-2.090677-1.03988-.678667-2.30441-1.275094-3.36938-1.725013-1.06497-.449919-1.93037-.753281-2.36326-.905027-.43289-.151747-.43289-.151747-.37523-.320184z" transform="matrix(.96596 .18084 -.18622 .93805 -90.902466 -24.14228874)"/><path style="display:inline;fill:none;fill-opacity:1;fill-rule:evenodd;stroke:#072430;stroke-width:.30019px;stroke-linecap:butt;stroke-linejoin:miter;stroke-opacity:1" d="M155.9468 59.322497c-1.13407.03641-2.67331.840761-3.94718 1.144906-1.27386.304145-2.13319.145455-3.07404-.02829-.16861.267294-.33295.527815-.5846 1.078266-.25165.55045-.62954 1.496084-.71173 2.313441-.0822.817357.0578 2.296581.17468 3.530727-1.21388-1.071469-2.42741-2.142628-2.97094-3.30764-.54354-1.165012-.41634-2.423574-.28916-3.681978-1.09317 1.456989-2.18632 2.913958-2.12195 4.715664.0644 1.801705 1.28602 3.947611 3.42647 5.203062 2.14044 1.255451 5.19929 1.620606 7.69267 1.310328 2.49337-.310278 4.42096-1.295702 4.92977-2.478284.50881-1.182582-.40152-2.561892-.28268-3.959885.11883-1.397993 1.12429-2.637409.89942-3.84039-.22486-1.202981-2.00666-2.036337-3.14073-1.999927z" transform="matrix(.96596 .18084 -.18622 .93805 -90.902466 -24.14228874)"/><path style="display:inline;fill:#8fd1ee;fill-opacity:1;fill-rule:evenodd;stroke:none;stroke-width:.300016px;stroke-linecap:butt;stroke-linejoin:miter;stroke-opacity:1" d="M159.63319 58.832269c.67787.256 1.35598.512089 1.8415.872292.48553.360203.77873.824341.74546 1.451914-.0333.627574-.39274 1.418758-.72011 2.094312-.32737.675554-.62263 1.235467-.33819 1.103648.28445-.131818 1.14848-.955205 1.56575-1.597152.41728-.641948.38772-1.102668.32802-1.591692-.0597-.489024-.14957-1.006328-.42981-1.455043-.28025-.448715-.75112-.828726-1.44029-1.06775-.68917-.239023-1.59668-.336828-2.504-.434613l.95167.624084z" transform="matrix(.96596 .18084 -.18622 .93805 -90.902466 -24.14228874)"/><path style="fill:none;fill-rule:evenodd;stroke:#072430;stroke-width:.300016px;stroke-linecap:butt;stroke-linejoin:miter;stroke-opacity:1" d="M158.85891 60.820839c.38609.246867.81601.52176.96213 1.463528.14612.941768.004 2.293464-.1501 3.764304 1.56418-1.437918 3.12835-2.87583 3.41722-4.13356.28887-1.25773-.69776-2.335468-1.68473-3.41357" transform="matrix(.96596 .18084 -.18622 .93805 -90.902466 -24.14228874)"/><path style="fill:none;fill-opacity:1;fill-rule:evenodd;stroke:#351e1a;stroke-width:.300016px;stroke-linecap:butt;stroke-linejoin:miter;stroke-opacity:1" d="M147.96459 62.355853c2.26632.812454 4.53259 1.624884 6.13118 2.569464 1.5986.94458 2.53041 2.021498 3.1069 2.791975.57649.770477.79738 1.233844 1.01842 1.697507" transform="matrix(.96596 .18084 -.18622 .93805 -90.902466 -24.14228874)"/></g><path style="display:inline;opacity:.522436;fill:url(#z);fill-opacity:1;fill-rule:evenodd;stroke:none;stroke-width:.308185px;stroke-linecap:butt;stroke-linejoin:miter;stroke-opacity:1" d="M151.3298 56.109879s5.73116 1.799226 7.39661 4.054954c.8145 1.103189 1.63956 2.019676 1.16105 3.32651-.31894.871063-.97054 1.557753-1.73434 2.078858-.61968.42278-1.78653 1.007005-2.31896 1.537924-.49235.490965-.77129 1.263441-1.1069 1.873504-.28936.525996-.58218.923142-1.03189 1.318981-.49439.435177-1.61925.716404-2.25658.859852-.80852.181975-1.56518.152969-2.38886.107223-1.74268-.09679-3.35189-.381803-4.9587-1.048785-1.39993-.581109-2.66246-1.196336-3.73954-2.265092-.39562-.392551-.66606-.849106-.98889-1.370159-.30841-.497794-.67599-1.056581-.77093-1.585686-.2616-1.458147.0978-2.472209.51436-3.903933.19928-.684893.6871-2.203574 1.17511-2.72366.96553-1.029002 2.45251-.827483 3.74444-1.374016.8449-.357418 2.54903-1.035827 2.54903-1.035827s1.35048.704258 2.09196.748848c.90401.05436 2.66303-.599496 2.66303-.599496z" transform="translate(-104.79273 -.32107474)"/></g></svg>