<svg width="238.11024" height="238.11024" viewBox="0 0 496.55131 496.55124" xml:space="preserve" xmlns:xlink="http://www.w3.org/1999/xlink" xmlns="http://www.w3.org/2000/svg">
  <defs>
    <linearGradient id="e">
      <stop style="stop-color:#00000f;stop-opacity:1" offset="0"/>
      <stop style="stop-color:#6949f6;stop-opacity:0" offset="1"/>
    </linearGradient>
    <linearGradient id="d">
      <stop style="stop-color:#00000f;stop-opacity:1" offset="0"/>
      <stop style="stop-color:#6949f6;stop-opacity:0" offset="1"/>
    </linearGradient>
    <linearGradient id="c">
      <stop style="stop-color:#1c88b7;stop-opacity:1" offset="0"/>
      <stop style="stop-color:#a86bf8;stop-opacity:1" offset="1"/>
    </linearGradient>
    <linearGradient id="b">
      <stop style="stop-color:#a86bf8;stop-opacity:1" offset="0"/>
      <stop style="stop-color:#4ab5e3;stop-opacity:1" offset="1"/>
    </linearGradient>
    <linearGradient id="a">
      <stop style="stop-color:#4ab5e3;stop-opacity:1" offset="0"/>
      <stop style="stop-color:#a86bf8;stop-opacity:1" offset="1"/>
    </linearGradient>
    <linearGradient xlink:href="#a" id="f" x1="-35.226227" y1="-333.97803" x2="-25.068338" y2="-255.2402" gradientUnits="userSpaceOnUse" gradientTransform="matrix(.88355891 .10092724 -.03806108 1.0688099 355.85873 68.166157)"/>
    <linearGradient xlink:href="#b" id="g" x1="99.386841" y1="-220.6669" x2="106.82124" y2="-276.00986" gradientUnits="userSpaceOnUse" gradientTransform="matrix(1.4108631 -.27525029 .23065856 1.6643509 110.54249 216.64716)"/>
    <linearGradient xlink:href="#d" id="h" x1="153.1044" y1="-88.348274" x2="230.05362" y2="-29.456701" gradientUnits="userSpaceOnUse" gradientTransform="matrix(-.96443621 .09075913 .08579188 .91165262 367.34735 -3.5015215)"/>
    <linearGradient xlink:href="#e" id="i" x1="430.55627" y1="-84.220474" x2="376.0235" y2="-.14959636" gradientUnits="userSpaceOnUse" gradientTransform="matrix(.96443621 -.09075913 .08579188 .91165262 21.621064 29.033359)"/>
  </defs>
  <g style="display:inline">
    <path style="display:inline;fill:url(#f);fill-opacity:1;fill-rule:evenodd;stroke:none;stroke-width:.216281px;stroke-linecap:butt;stroke-linejoin:miter;stroke-opacity:1" d="M305.51358-203.95089c-7.6898-.73519-7.74866-2.94203-11.41007-23.98123-3.66141-21.0392-10.92423-60.90441-.2171-94.2643 10.70712-33.35988 39.38455-60.20283 65.49262-61.7926 26.10808-1.58978 49.64279 22.07346 55.00708 41.73713 5.36429 19.66368-7.43774 35.32147-17.45638 31.10579-10.01865-4.21567-17.2504-28.30784-31.09456-30.50014-13.84415-2.1923-34.29911 17.51627-39.06565 43.99608-4.76653 26.47981 6.1526 59.71803 17.07366 92.96214-15.32018.73617-30.6398 1.47231-38.3296.73713z" transform="translate(-11.427831 384.19145)"/>
    <path style="display:inline;fill:#a86bf8;fill-opacity:1;fill-rule:evenodd;stroke:none;stroke-width:2.04505px;stroke-linecap:butt;stroke-linejoin:miter;stroke-opacity:1" d="M502.83025-53.783803c-12.87312-44.791395-49.80572-98.810567-98.27785-131.773647-48.47213-32.96308-108.48211-44.86934-172.52402-35.88475-64.04191 8.98459-132.091262 38.84841-173.2064 84.25875C17.706841-91.77311 3.5816357-30.883615 15.515712 11.734708 27.449787 54.353032 65.4413 78.671327 118.86899 94.217503c53.42768 15.546177 122.23813 22.309247 187.22978 15.497597 64.99165-6.81164 126.09874-27.193702 162.25956-55.171556 36.16082-27.977855 47.34503-63.5359521 34.47192-108.327347Z" transform="translate(-11.427831 384.19145)"/>
    <path style="display:inline;fill:url(#g);fill-opacity:1;fill-rule:evenodd;stroke:none;stroke-width:.276513px;stroke-linecap:butt;stroke-linejoin:miter;stroke-opacity:1" d="M136.1949-200.27685c-11.30785-22.78204-28.13254-64.29711-22.12675-102.70124 6.00579-38.40412 34.83943-73.67664 63.6143-80.09322 28.77488-6.41659 57.47107 16.03171 64.96623 34.30314 7.49516 18.27143-6.20839 32.3552-19.25601 27.80473-13.04762-4.55046-25.42261-27.7236-40.29716-21.93734-14.87456 5.78627-32.22927 40.52983-27.29117 71.00476 4.93809 30.47492 32.16765 56.66438 36.42861 73.03339 4.26095 16.36902-14.44304 22.91063-26.69313 24.16028-12.25009 1.24966-18.03708-2.79247-29.34492-25.5745z" transform="translate(-11.427831 384.19145)"/>
    <path style="display:inline;fill:#761111;fill-opacity:.408511;fill-rule:evenodd;stroke:none;stroke-width:.402204px;stroke-linecap:butt;stroke-linejoin:miter;stroke-opacity:1" d="M250.70183-115.74268c-12.9187-15.11395-38.01562-19.9841-66.44335-2.60171-28.42773 17.38238-60.17838 57.007911-53.48847 83.194851 6.6899 26.1869406 51.81497 38.9272092 80.61374 34.22590791C240.18252-5.6249323 252.63855-27.767437 258.49917-51.521163c5.86061-23.753726 5.12137-49.107567-7.79734-64.221517z" transform="matrix(1.1595563 -.25501304 .24755306 1.1255224 -49.252321 460.072358)"/>
    <path style="display:inline;fill:url(#h);fill-opacity:1;fill-rule:evenodd;stroke:none;stroke-width:.300566px;stroke-linecap:butt;stroke-linejoin:miter;stroke-opacity:1" d="M242.78329-97.707345c-9.45046-12.542245-27.28451-17.324185-46.56566-4.341335-19.28116 12.982847-40.0007 43.720433-37.02195 63.425526 2.97875 19.705093 29.65312 28.369477 49.46692 25.540233 19.8138-2.829245 32.75377-17.152891 38.69435-34.467761 5.94057-17.314869 4.8768-37.614418-4.57366-50.156663z" transform="matrix(1.1595563 -.25501304 .24755306 1.1255224 -49.252321 460.072358)"/>
    <path style="display:inline;fill:#fff;fill-opacity:1;fill-rule:evenodd;stroke:none;stroke-width:.135593px;stroke-linecap:butt;stroke-linejoin:miter;stroke-opacity:1" d="M237.15952-78.420494c-3.4793-6.058353-9.42445-10.593036-16.33114-6.602568-6.90669 3.990467-14.77009 16.499296-13.97814 25.438365.79194 8.93907 10.2371 14.302485 17.65071 14.105533 7.41362-.196953 12.78667-5.956317 14.96892-12.629136 2.18226-6.67282 1.16894-14.25384-2.31035-20.312194z" transform="matrix(1.1595563 -.25501304 .24755306 1.1255224 -49.252321 460.072358)"/>
    <path style="display:inline;fill:#761111;fill-opacity:.407843;fill-rule:evenodd;stroke:none;stroke-width:2.21364px;stroke-linecap:butt;stroke-linejoin:miter;stroke-opacity:1" d="M282.52182-84.560835c4.01806 4.09063 9.45122 7.06575 12.31432 5.340847 2.8631-1.724902 3.15649-8.15193-.15489-13.582495-3.31138-5.430565-10.23048-9.863777-14.39304-10.739387-4.16255-.87562-5.56962 1.8053-4.9741 5.748672.59551 3.943375 3.18965 9.141733 7.20771 13.232363z" transform="matrix(1.1595563 -.25501304 .24755306 1.1255224 -49.252321 460.072358)"/>
    <path style="display:inline;fill:#761111;fill-opacity:.407843;fill-rule:evenodd;stroke:none;stroke-width:1.73669px;stroke-linecap:butt;stroke-linejoin:miter;stroke-opacity:1" d="M282.27004-152.25069c4.73672-1.65389-.41462-7.51684-9.11284-10.38159-8.69822-2.86476-20.9377-2.73069-34.72294 1.43-13.78525 4.16069-29.11027 12.34521-27.72566 13.93197 1.38461 1.58676 19.47988-3.4246 35.84061-4.65312 16.36072-1.22852 30.98411 1.32663 35.72083-.32726z" transform="matrix(1.1595563 -.25501304 .24755306 1.1255224 -49.252321 460.072358)"/>
    <g style="display:inline">
      <path style="display:inline;fill:#761111;fill-opacity:.408511;fill-rule:evenodd;stroke:none;stroke-width:.333695px;stroke-linecap:butt;stroke-linejoin:miter;stroke-opacity:1" d="M393.9911-127.6115c8.53432-13.34799 28.13635-16.64187 50.82139-2.64562 22.68503 13.99625 48.43704 45.275478 44.59143 71.272528-3.84562 25.99705-37.28195 46.700616-58.69749 44.403935-21.41554-2.296681-30.79224-27.588399-36.75218-51.939399-5.95993-24.351001-8.49746-47.743444.0369-61.091444z" transform="matrix(1.0994816 .09939933 -.09630718 1.1347827 -93.302921 365.59542)"/>
      <path style="display:inline;fill:url(#i);fill-opacity:1;fill-rule:evenodd;stroke:none;stroke-width:.266831px;stroke-linecap:butt;stroke-linejoin:miter;stroke-opacity:1" d="M396.02502-111.36721c7.01845-9.64108 21.97889-9.98381 38.53868.62382 16.55979 10.60762 34.70536 32.158777 32.32606 50.400862-2.3793 18.242085-25.27716 33.164903-41.373 32.025932-16.09584-1.138972-25.37284-18.335158-30.47813-36.407645-5.10529-18.072486-6.03205-37.001899.98639-46.642969z" transform="matrix(1.0994816 .09939933 -.09630718 1.1347827 -93.302921 365.59542)"/>
      <path style="display:inline;fill:#fff;fill-opacity:1;fill-rule:evenodd;stroke:none;stroke-width:.126482px;stroke-linecap:butt;stroke-linejoin:miter;stroke-opacity:1" d="M416.31961-100.19145c4.00367-2.74432 12.16999-1.00468 18.49273 3.857847 6.32273 4.862527 10.78983 12.840021 9.50399 18.480957-1.28585 5.640936-8.32087 8.941117-14.55935 7.692642-6.23848-1.248476-11.67319-7.042074-14.47487-13.553448-2.80167-6.511374-2.96618-13.733676 1.0375-16.477998z" transform="matrix(1.0994816 .09939933 -.09630718 1.1347827 -93.302921 365.59542)"/>
      <path style="display:inline;fill:#761111;fill-opacity:.407843;fill-rule:evenodd;stroke:none;stroke-width:2.30928px;stroke-linecap:butt;stroke-linejoin:miter;stroke-opacity:1" d="M360.42048-93.331163c-1.50102-2.29014-1.62989-7.452097-.63388-11.391657.99601-3.93955 3.1167-6.6519 5.73073-7.41741 2.61403-.76551 5.72035.41517 6.17249 4.02311s-1.80279 9.799667-4.35032 13.146768c-2.54752 3.347102-5.418 3.929329-6.91902 1.639189z" transform="matrix(1.0994816 .09939933 -.09630718 1.1347827 -93.302921 365.59542)"/>
      <path style="display:inline;fill:#761111;fill-opacity:.407843;fill-rule:evenodd;stroke:none;stroke-width:1.81173px;stroke-linecap:butt;stroke-linejoin:miter;stroke-opacity:.407843" d="M376.2349-171.69242c7.05791-2.45138 16.37569-3.02339 26.43684.33085 10.06115 3.35424 20.86334 10.63499 21.22499 12.62402.36166 1.98903-9.71607-1.31386-22.17604-2.50361s-27.29908-.26649-32.32036-1.96865c-5.02129-1.70216-.22334-6.03122 6.83457-8.48261z" transform="matrix(1.0994816 .09939933 -.09630718 1.1347827 -93.302921 365.59542)"/>
    </g>
    <path style="display:inline;fill:#f19ed1;fill-opacity:.8;fill-rule:evenodd;stroke:none;stroke-width:1.63312px;stroke-linecap:butt;stroke-linejoin:miter;stroke-opacity:1" d="M434.14367 15.839854c7.64055-8.0133161 21.20778-17.3980717 31.48654-17.4664239 10.27877-.068352 17.23854 9.1436123 9.56433 17.1888699-7.67422 8.045257-29.85291 14.793853-40.12975 14.862458-10.27684.06861-8.56167-6.571587-.92112-14.584904z" transform="translate(-11.427831 384.19145)"/>
    <path style="display:inline;fill:#f19ed1;fill-opacity:.8;fill-rule:evenodd;stroke:none;stroke-width:3.04538px;stroke-linecap:butt;stroke-linejoin:miter;stroke-opacity:1" d="M106.91885 25.983726c-18.299914-1.706799-27.328162 6.704651-26.197488 13.700368 1.130675 6.995717 12.417818 12.572088 25.546178 16.347212 13.12836 3.775125 28.06652 5.743335 40.72084 4.658454 12.65432-1.084881 22.97112-5.216982 14.35916-13.202042-8.61196-7.98506-36.12877-19.797192-54.42869-21.503992z" transform="translate(-11.427831 384.19145)"/>
    <path style="fill:#6f00d4;fill-opacity:1;fill-rule:evenodd;stroke:none;stroke-width:1.44242px;stroke-linecap:butt;stroke-linejoin:miter;stroke-opacity:1" d="M346.21346 17.421464c-1.34234-.291363-2.18299 5.102952-7.37994 9.469507-5.19694 4.366556-14.7403 7.702052-22.64484 8.797203-7.90453 1.095152-14.15407-.05069-20.30281-2.945115-6.14874-2.894424-12.18187-7.530948-15.91118-12.410856s-5.15438-10.004001-6.98896-10.144461c-1.83457-.140461-4.07457 4.698812.71086 13.011533 4.78542 8.312721 16.58545 20.083394 30.68514 21.741272 14.09969 1.657877 30.47361-6.802808 37.74581-14.026226 7.2722-7.223418 5.42826-13.201494 4.08592-13.492857z" transform="translate(-11.427831 384.19145)"/>
  </g>
</svg>
