<svg width="512.9314" height="486.86853" viewBox="0 0 1069.6589 1015.3077" xml:space="preserve" xmlns:xlink="http://www.w3.org/1999/xlink" xmlns="http://www.w3.org/2000/svg">
  <defs>
    <linearGradient id="g">
      <stop style="stop-color:#a86bf8;stop-opacity:1" offset="0"/>
      <stop style="stop-color:#4ab5e3;stop-opacity:1" offset="1"/>
    </linearGradient>
    <linearGradient id="f">
      <stop style="stop-color:#000;stop-opacity:1" offset="0"/>
      <stop style="stop-color:#6f00d4;stop-opacity:0" offset="1"/>
    </linearGradient>
    <linearGradient id="d">
      <stop style="stop-color:#1c88b7;stop-opacity:1" offset="0"/>
      <stop style="stop-color:#a86bf8;stop-opacity:1" offset="1"/>
    </linearGradient>
    <linearGradient id="e">
      <stop style="stop-color:#000;stop-opacity:1" offset="0"/>
      <stop style="stop-color:#6949f6;stop-opacity:0" offset="1"/>
    </linearGradient>
    <linearGradient id="c">
      <stop style="stop-color:#a86bf8;stop-opacity:1" offset="0"/>
      <stop style="stop-color:#4ab5e3;stop-opacity:1" offset="1"/>
    </linearGradient>
    <linearGradient id="b">
      <stop style="stop-color:#4ab5e3;stop-opacity:1" offset="0"/>
      <stop style="stop-color:#a86bf8;stop-opacity:1" offset="1"/>
    </linearGradient>
    <linearGradient id="a">
      <stop style="stop-color:#4ab5e3;stop-opacity:1" offset="0"/>
      <stop style="stop-color:#a86bf8;stop-opacity:1" offset="1"/>
    </linearGradient>
    <linearGradient xlink:href="#a" id="m" x1="-174.83905" y1="122.8033" x2="-42.616123" y2="13.162251" gradientUnits="userSpaceOnUse" gradientTransform="matrix(-.70631748 -.75803869 -1.0582912 .53024729 726.66767 410.30025)"/>
    <linearGradient xlink:href="#b" id="j" x1="52.152649" y1="-384.12872" x2="-26.99741" y2="-219.85088" gradientUnits="userSpaceOnUse" gradientTransform="matrix(1.0368071 -.13733763 .16107175 .96974508 -4.6783788 7.1749883)"/>
    <linearGradient xlink:href="#c" id="i" x1="73.442802" y1="-222.57249" x2="138.18085" y2="-285.8136" gradientUnits="userSpaceOnUse" gradientTransform="matrix(1.105762 .11096005 -.09095492 1.0453019 -84.737803 -6.9524112)"/>
    <linearGradient xlink:href="#e" id="l" x1="-10.043543" y1="-108.36281" x2="-65.375191" y2="-24.973192" gradientUnits="userSpaceOnUse" gradientTransform="matrix(.98991166 -.13684928 .14668833 .87643726 -37.268164 -7.3075234)"/>
    <linearGradient xlink:href="#f" id="k" x1="116.26831" y1="-115.47525" x2="99.921776" y2="-48.87952" gradientUnits="userSpaceOnUse"/>
    <linearGradient xlink:href="#g" id="h" x1="546.37054" y1="440.18927" x2="502.57745" y2="531.94617" gradientUnits="userSpaceOnUse" gradientTransform="translate(.00001 -12.685603)"/>
  </defs>
  <path style="display:inline;fill:#e38d4a;fill-rule:evenodd;stroke:none;stroke-width:2.08538px;stroke-linecap:butt;stroke-linejoin:miter;stroke-opacity:1" d="m371.06145 456.3819 449.8408 62.93447 70.36847-81.26008 178.38808 56.54214-22.7293 176.51644-118.91801 337.98493-787.43053-89.84515c82.11995-156.43914 123.54118-322.74537 230.48049-462.87275Z"/>
  <path style="display:inline;fill:url(#h);fill-opacity:1;fill-rule:evenodd;stroke:none;stroke-width:2.08538px;stroke-linecap:butt;stroke-linejoin:miter;stroke-opacity:1" d="M553.18515 449.22674c-10.10464-.37876-29.89916 5.30933-39.50274 16.00181-9.60357 10.69249-18.72383 34.4675-35.16558 58.35617-16.44176 23.88866-36.24432 43.89331-58.02829 65.89958l48.21684 18.15766c37.22515-48.98349 70.73324-93.0758 86.78567-122.87928 16.05243-29.80348 7.79874-35.15718-2.3059-35.53594z"/>
  <path style="display:inline;fill:#a86bf8;fill-opacity:1;fill-rule:evenodd;stroke:none;stroke-width:.25422px;stroke-linecap:butt;stroke-linejoin:miter;stroke-opacity:1" d="M635.11766 446.38721c-12.35659-20.241-23.51777-18.43705-37.49089-13.52526-13.97312 4.91179-31.28083 13.09171-66.50971 60.25939-35.22889 47.16768-95.48404 145.09147-69.63584 175.62692 25.84821 30.53546 148.40174 17.62456 199.79251-11.12111 51.39078-28.74567 29.73303-73.26724 16.04858-107.17001-13.68446-33.90277-29.84805-83.82893-42.20465-104.06993z"/>
  <g style="display:inline">
    <path style="display:inline;fill:url(#i);fill-opacity:1;fill-rule:evenodd;stroke:none;stroke-width:.192263px;stroke-linecap:butt;stroke-linejoin:miter;stroke-opacity:1" d="M9.5941955-239.76782c.00593-.84635.0178-2.53921-1.7123412-16.21664-1.7301411-13.67744-5.201813-39.33575 4.1932787-65.54841 9.395091-26.21266 31.656511-52.97098 58.311421-54.84581 26.65491-1.87482 57.694296 21.13142 63.766446 36.58831 6.07215 15.45689-12.82113 23.35842-27.17881 19.24049-14.357684-4.11794-24.168993-20.25593-36.062176-20.72772-11.893183-.47179-25.863508 14.72735-30.082095 37.38817-4.218587 22.66082 1.313563 52.77351 6.846549 82.89075-12.696069-5.97426-25.390981-11.94798-31.739595-14.93539-6.3486129-2.9874-6.3486104-2.9874-6.3426775-3.83375z" transform="matrix(-.97897687 -.12897859 -.13374352 .94846183 558.50808 372.95714)"/>
    <path style="fill:url(#j);fill-opacity:1;fill-rule:evenodd;stroke:none;stroke-width:.225152px;stroke-linecap:butt;stroke-linejoin:miter;stroke-opacity:1" d="M-115.88191-224.12677c-7.93468 1.22111-8.42553-.74569-16.67521-18.69674s-24.25567-51.88095-18.3211-84.60531c5.93457-32.72437 33.81189-64.23225 63.571362-72.39648 29.759468-8.16423 61.397212 7.01569 71.344522 23.29175 9.9473102 16.27606-1.793072 33.64198-14.138388 32.44118-12.345316-1.20079-25.291689-20.97255-42.327257-19.6239-17.035568 1.34865-38.158499 23.81862-39.632759 48.93313-1.47426 25.11451 16.696511 52.86417 34.869841 80.61774-15.378294 4.40879-30.756341 8.81751-38.691011 10.03863z" transform="matrix(-.97897687 -.12897859 -.13374352 .94846183 558.50808 372.95714)"/>
    <path style="fill:#a86bf8;fill-opacity:1;fill-rule:evenodd;stroke:none;stroke-width:.264583px;stroke-linecap:butt;stroke-linejoin:miter;stroke-opacity:1" d="M133.17811-168.02681c-29.40409-31.16442-71.049195-55.02413-113.120145-67.76006-42.07095-12.73593-84.561985-14.34795-124.516945-6.74588-39.95496 7.60208-77.35184 24.41145-110.58073 57.64184-33.22889 33.23038-62.26592 82.85488-58.28143 124.120058 3.98448 41.265176 40.98111 74.136294 95.79173 95.759631 54.81061 21.623337 127.367243 31.97032 189.454013 26.616669 62.08677-5.353651 113.662907-26.40943 142.743567-49.284399 29.08067-22.874969 35.65364-47.562446 30.3617-79.14308-5.29194-31.580635-22.44768-70.040359-51.85176-101.204779z" transform="matrix(-.97897687 -.12897859 -.13374352 .94846183 558.50808 372.95714)"/>
    <path style="display:inline;fill:#f19ed1;fill-opacity:.8;fill-rule:evenodd;stroke:none;stroke-width:2.17039px;stroke-linecap:butt;stroke-linejoin:miter;stroke-opacity:1" d="M-145.28506-6.2293329c-7.63415-7.2207381-19.98013-15.1049561-31.84914-17.0148901-11.86901-1.909934-23.2447 2.150905-22.58689 9.047448.65781 6.8965432 13.34462 16.6167345 26.67423 21.8073096 13.32961 5.1905754 27.28585 5.8402404 32.80255 2.8884424 5.5167-2.9517968 2.5934-9.50757144-5.04075-16.7283099z" transform="matrix(-.97897687 -.12897859 -.13374352 .94846183 558.50808 372.95714)"/>
    <path style="display:inline;fill:#f19ed1;fill-opacity:.8;fill-rule:evenodd;stroke:none;stroke-width:2.59484px;stroke-linecap:butt;stroke-linejoin:miter;stroke-opacity:1" d="M119.70413-7.9068763c2.08054-5.1157027 13.07107-13.0657677 23.88058-15.3418727 10.80951-2.276106 21.43426 1.121011 22.5709 5.282136 1.13665 4.161126-7.21442 9.0859415-14.61201 12.5034575-7.39758 3.417516-13.83122 5.32447838-20.46244 5.13862764-6.63123-.18585075-13.45758-2.46664554-11.37703-7.58234844z" transform="matrix(-.97897687 -.12897859 -.13374352 .94846183 558.50808 372.95714)"/>
    <path style="display:inline;fill:#000;fill-opacity:.8;fill-rule:evenodd;stroke:none;stroke-width:.234808px;stroke-linecap:butt;stroke-linejoin:miter;stroke-opacity:1" d="M34.656825-9.0988826C25.29693-17.665823 7.3618002-18.601818-10.948765-12.637688-29.259331-6.6735581-47.933361 6.1828839-49.656899 15.83244c-1.723537 9.649557 13.508924 16.088172 32.209685 18.225608 18.7007613 2.137437 40.85834-.02493 51.553122-9.207755 10.694782-9.182822 9.910812-25.38223558.550917-33.9491756z" transform="matrix(-.97897687 -.12897859 -.13374352 .94846183 562.67884759 378.17059944)"/>
    <path style="display:inline;fill:#e93a3a;fill-opacity:.8;fill-rule:evenodd;stroke:none;stroke-width:.234808px;stroke-linecap:butt;stroke-linejoin:miter;stroke-opacity:1" d="M34.173093 25.196545C24.463951 16.696753 14.372786 7.8625215 3.5950524 3.0338636-7.1826815-1.7947943-26.377021-4.1366677-32.296509-2.2536828-38.215998-.37069802-52.284247 12.325304-49.906498 19.50462c2.377749 7.179317 16.702025 12.89327 31.013184 14.804909 14.3111587 1.911639 28.5875887.01743 37.430138-2.135773 8.84255-2.153202 12.240207-4.565772 15.636269-6.977211z" transform="matrix(-.97897687 -.12897859 -.13374352 .94846183 562.67884759 378.17059944)"/>
    <g style="display:inline">
      <path style="display:inline;fill:#761111;fill-opacity:.408511;fill-rule:evenodd;stroke:none;stroke-width:.382938px;stroke-linecap:butt;stroke-linejoin:miter;stroke-opacity:1" d="M121.13925-167.82785c-18.33191-8.02562-32.42001-.20443-38.39823 19.72759-5.978219 19.93202-3.843215 51.963585 7.369219 69.309592 11.212431 17.346007 31.492151 19.998827 48.754311 12.002626 17.26217-7.996201 31.49446-26.633677 27.33012-47.893288-4.16435-21.25961-26.72352-45.1209-45.05542-53.14652z" transform="matrix(-.98714586 -.0239631 -.03195143 .95731201 586.48366123 396.45311248)"/>
      <path style="display:inline;fill:url(#k);fill-opacity:1;fill-rule:evenodd;stroke:none;stroke-width:.282687px;stroke-linecap:butt;stroke-linejoin:miter;stroke-opacity:1" d="M110.48593-150.58155c-13.532744-5.92456-23.932673-.15091-28.345837 14.56303-4.413165 14.71395-2.837091 38.359875 5.440005 51.164815 8.277096 12.80494 23.247732 14.76327 35.990772 8.86042 12.74304-5.90285 23.24942-19.661161 20.17527-35.355145-3.07415-15.69399-19.72747-33.30855-33.26021-39.23312z" transform="matrix(-.98714586 -.0239631 -.03195143 .95731201 586.48366123 396.45311248)"/>
      <path style="fill:#761111;fill-opacity:.408511;fill-rule:evenodd;stroke:none;stroke-width:2.17039px;stroke-linecap:butt;stroke-linejoin:miter;stroke-opacity:1" d="M65.47497-150.66363c-2.58479-.006-7.373156 5.11293-8.90392 11.5377-1.530763 6.42476.195899 14.15225 2.780478 14.15652 2.58458.004 6.027602-7.71284 7.55861-14.13564 1.531008-6.42279 1.149622-11.55228-1.435168-11.55858z" transform="matrix(-.98714586 -.0239631 -.03195143 .95731201 586.48366123 396.45311248)"/>
      <path style="fill:#761111;fill-opacity:.408511;fill-rule:evenodd;stroke:none;stroke-width:2.33399px;stroke-linecap:butt;stroke-linejoin:miter;stroke-opacity:1" d="M98.418149-198.72022c12.818511 2.10741 29.653871 10.44174 28.943331 7.61868-.71055-2.82305-18.53846-16.45868-33.448414-20.24157-14.909956-3.78288-25.285675 2.67433-28.891541 7.5981-3.605867 4.92377-.384144 7.8406 6.136868 7.2971 6.521011-.5435 14.441241-4.37972 27.259756-2.27231z" transform="matrix(-.98714586 -.0239631 -.03195143 .95731201 586.48366123 396.45311248)"/>
      <path style="display:inline;fill:#fff;fill-opacity:1;fill-rule:evenodd;stroke:none;stroke-width:.146364px;stroke-linecap:butt;stroke-linejoin:miter;stroke-opacity:1" d="M110.83222-143.092c-7.00672-3.06751-12.391399-.0781-14.676366 7.54018-2.284967 7.61831-1.468938 19.86125 2.816618 26.49115 4.285558 6.6299 12.036778 7.64385 18.634618 4.58758 6.59785-3.05626 12.03765-10.17979 10.44598-18.30552-1.59168-8.12574-10.21412-17.24588-17.22085-20.31339z" transform="matrix(-.98714586 -.0239631 -.03195143 .95731201 586.48366123 396.45311248)"/>
    </g>
    <g style="display:inline">
      <path style="fill:#761111;fill-opacity:.408511;fill-rule:evenodd;stroke:none;stroke-width:2.04486px;stroke-linecap:butt;stroke-linejoin:miter;stroke-opacity:1" d="M-4.5084176-117.45819c-1.306654-5.59836-5.3604015-12.97854-10.4182644-16.90651-5.057862-3.92797-11.119662-4.40124-12.378201-1.05986-1.258539 3.34138 2.286302 10.4946 6.625391 16.32952 4.33909 5.83492 9.471448 10.35212 12.755458 10.70221 3.2840098.35009 4.7222703-3.46701 3.4156164-9.06536zM-25.705125-180.40312c-6.131488 1.44871-18.814067-3.06689-40.406531.9798-21.592464 4.0467-52.095244 16.66113-54.620344 14.65879-2.52511-2.00234 22.929458-18.62039 44.310569-26.3748 21.38111-7.75441 38.690676-6.64904 47.556979-2.38754 8.866304 4.26149 9.290815 11.67503 3.159327 13.12375z" transform="matrix(-.97897687 -.12897859 -.13374352 .94846183 560.7199536 384.0165506)"/>
      <path style="display:inline;fill:#761111;fill-opacity:.408511;fill-rule:evenodd;stroke:none;stroke-width:.346869px;stroke-linecap:butt;stroke-linejoin:miter;stroke-opacity:1" d="M-37.874733-132.02317c-12.660968-17.45298-35.761613-30.95374-62.439927-17.34483-26.67831 13.60891-56.92643 54.31875-53.67299 81.876234 3.25345 27.557483 40.01 41.955815 67.797269 39.051043 27.787264-2.904772 46.602241-23.112029 54.899827-43.91863 8.297586-20.806601 6.076789-42.210847-6.584179-59.663817z" transform="matrix(-.97897687 -.12897859 -.13374352 .94846183 560.7199536 384.0165506)"/>
      <path style="display:inline;fill:url(#l);fill-opacity:1;fill-rule:evenodd;stroke:none;stroke-width:.24928px;stroke-linecap:butt;stroke-linejoin:miter;stroke-opacity:1" d="M-35.411941-122.79726c-7.817045-12.44974-21.159009-21.78181-39.564286-12.5752-18.405276 9.20661-41.866893 36.944675-40.943313 57.846964.92357 20.902288 26.227638 34.959705 45.779929 33.539454 19.552291-1.420251 33.336509-18.319036 39.086513-34.55682 5.750003-16.237784 3.458202-31.804648-4.358843-44.254398z" transform="matrix(-.97897687 -.12897859 -.13374352 .94846183 560.7199536 384.0165506)"/>
      <path style="display:inline;fill:#fff;fill-opacity:1;fill-rule:evenodd;stroke:none;stroke-width:.132519px;stroke-linecap:butt;stroke-linejoin:miter;stroke-opacity:1" d="M-42.191272-119.11099c-4.155604-6.61839-11.248295-11.57939-21.032683-6.68508-9.784388 4.8943-22.256772 19.64008-21.765791 30.751896.490981 11.11182 13.942822 18.584854 24.336973 17.829837 10.394152-.755017 17.72195-9.738544 20.778697-18.370679 3.056747-8.632134 1.838408-16.907594-2.317196-23.525974z" transform="matrix(-.97897687 -.12897859 -.13374352 .94846183 560.7199536 384.0165506)"/>
    </g>
  </g>
  <path style="display:inline;fill:#def86b;fill-opacity:1;fill-rule:evenodd;stroke:none;stroke-width:1.03669px;stroke-linecap:butt;stroke-linejoin:miter;stroke-opacity:1" d="m0 482.80649 117.36733-22.42825 132.26894 18.82332 44.15693 62.18412 268.33295 36.53784 336.42908 45.81021 13.68788 168.51609 18.11808 223.05788-451.51996-53.26814-367.15372-43.31504-82.73204-209.15667Z"/>
  <path style="display:inline;fill:#4ab5e3;fill-rule:evenodd;stroke:none;stroke-width:3.21157px;stroke-linecap:butt;stroke-linejoin:miter;stroke-opacity:1" d="M397.75483 555.69494c-8.02187-16.82953-44.14886-29.97849-71.0038-21.89171-26.85494 8.08679-44.42768 37.40696-36.40305 54.23711 8.02463 16.83016 41.64422 21.1659 68.49465 13.07923 26.85043-8.08666 46.93407-28.59509 38.9122-45.42463z"/>
  <path style="display:inline;fill:url(#m);fill-opacity:1;fill-rule:evenodd;stroke:none;stroke-width:.287016px;stroke-linecap:butt;stroke-linejoin:miter;stroke-opacity:0" d="M629.01487 462.31467c13.18821-9.17001 38.60228 3.28285 57.97949 17.24953 19.37721 13.96669 32.71636 29.44457 52.01948 52.81254s44.56097 54.61459 43.80091 75.16886c-.76005 20.55427-27.54082 30.40293-53.81954 46.50883-26.27872 16.10591-52.0519 38.4665-72.82114 57.5338-20.76925 19.0673-36.51234 34.82081-59.14264 35.65538-22.6303.83458-52.14098-13.25289-57.06088-26.70527-4.9199-13.45238 14.75838-26.25906 41.5602-40.99s60.72115-31.38325 80.09209-51.41132c19.37094-20.02806 24.16952-43.40547 13.7899-59.81222-10.37961-16.40675-35.93836-25.83066-48.24195-45.94062-12.30359-20.10997-11.34412-50.8995 1.84408-60.06951z"/>
</svg>
