<svg width="761.64258" height="542.09802" viewBox="0 0 1588.3172 1130.4824" xmlns:xlink="http://www.w3.org/1999/xlink" xmlns="http://www.w3.org/2000/svg">
  <defs>
    <linearGradient id="h">
      <stop style="stop-color:#000;stop-opacity:1" offset="0"/>
      <stop style="stop-color:#6949f6;stop-opacity:0" offset="1"/>
    </linearGradient>
    <linearGradient id="g">
      <stop style="stop-color:#1c88b7;stop-opacity:1" offset="0"/>
      <stop style="stop-color:#a86bf8;stop-opacity:1" offset="1"/>
    </linearGradient>
    <linearGradient id="f">
      <stop style="stop-color:#000;stop-opacity:1" offset="0"/>
      <stop style="stop-color:#6949f6;stop-opacity:0" offset="1"/>
    </linearGradient>
    <linearGradient id="e">
      <stop style="stop-color:#a86bf8;stop-opacity:1" offset="0"/>
      <stop style="stop-color:#4ab5e3;stop-opacity:1" offset="1"/>
    </linearGradient>
    <linearGradient id="d">
      <stop style="stop-color:#4ab5e3;stop-opacity:1" offset="0"/>
      <stop style="stop-color:#a86bf8;stop-opacity:1" offset="1"/>
    </linearGradient>
    <linearGradient id="c">
      <stop style="stop-color:#4ab5e3;stop-opacity:1" offset="0"/>
      <stop style="stop-color:#a86bf8;stop-opacity:1" offset="1"/>
    </linearGradient>
    <linearGradient id="b">
      <stop style="stop-color:#4ab5e3;stop-opacity:1" offset="0"/>
      <stop style="stop-color:#a86bf8;stop-opacity:1" offset="1"/>
    </linearGradient>
    <linearGradient id="a">
      <stop style="stop-color:#4ab5e3;stop-opacity:1" offset="0"/>
      <stop style="stop-color:#a86bf8;stop-opacity:1" offset="1"/>
    </linearGradient>
    <linearGradient xlink:href="#a" id="n" x1="-17.358505" y1="453.29712" x2="-167.32672" y2="310.62714" gradientUnits="userSpaceOnUse" gradientTransform="matrix(.94249066 .23711074 -.2433543 .91830989 77.989536 -17.421994)"/>
    <linearGradient xlink:href="#b" id="i" x1="-316.64658" y1="492.43988" x2="-163.02138" y2="385.12369" gradientUnits="userSpaceOnUse" gradientTransform="matrix(.94539804 -.10435082 .10405326 .94270222 -80.672535 -75.426619)"/>
    <linearGradient xlink:href="#c" id="o" x1="-83.888748" y1="172.17795" x2="-10.107515" y2="9.57936" gradientUnits="userSpaceOnUse" gradientTransform="matrix(.82503394 -.71350768 .93098546 .75185121 -47.334898 -71.931086)"/>
    <linearGradient xlink:href="#d" id="k" x1="52.152649" y1="-384.12872" x2="-26.99741" y2="-219.85088" gradientUnits="userSpaceOnUse" gradientTransform="matrix(1.0341918 -.18974268 .18659238 1.0175987 61.519604 2.2976619)"/>
    <linearGradient xlink:href="#e" id="j" x1="73.442802" y1="-222.57249" x2="138.18085" y2="-285.8136" gradientUnits="userSpaceOnUse" gradientTransform="matrix(1.1094703 .07189044 -.05733666 1.0471894 -26.260771 1.01369)"/>
    <linearGradient xlink:href="#f" id="l" x1="-10.043543" y1="-108.36281" x2="-65.375191" y2="-24.973192" gradientUnits="userSpaceOnUse"/>
    <linearGradient xlink:href="#h" id="m" x1="144.60857" y1="-110.82159" x2="78.668335" y2="-43.488033" gradientUnits="userSpaceOnUse"/>
  </defs>
  <g style="display:inline" transform="translate(707.13032 507.71916)">
    <ellipse style="display:inline;opacity:1;fill:#196b1f;fill-opacity:1;fill-rule:evenodd;stroke:none;stroke-width:.708435;stroke-miterlimit:4;stroke-dasharray:none;stroke-opacity:0" transform="matrix(.99523795 .09747521 -.17392563 .98475879 0 0)" ry="50.898006" rx="777.65369" cy="521.44513" cx="188.67506"/>
    <path style="display:inline;fill:#4ab5e3;fill-opacity:1;fill-rule:evenodd;stroke:none;stroke-width:.25422px;stroke-linecap:butt;stroke-linejoin:miter;stroke-opacity:1" d="M294.76032 132.15978c-39.30936 61.54607-183.05116-31.61326-192.83622-103.983122-2.463799-18.222173 21.47213-38.400001 39.85823-38.1363719 49.5267.710138 67.04465 73.2110429 104.37682 105.7641929 15.24842 13.296421 59.49123 19.304911 48.60117 36.355301z"/>
    <g style="display:inline">
      <path style="display:inline;fill:#838383;fill-opacity:1;fill-rule:evenodd;stroke:none;stroke-width:2.94845px;stroke-linecap:butt;stroke-linejoin:miter;stroke-opacity:1" d="m357.45433 64.497173-58.47238-82.428611-63.32097 169.720348Z" transform="matrix(1 0 0 .84472614 .00000419 -2.7842836)"/>
      <path style="fill:#9d9d9d;fill-opacity:1;fill-rule:evenodd;stroke:none;stroke-width:2.41729px;stroke-linecap:butt;stroke-linejoin:miter;stroke-opacity:1" d="M179.15161 112.15494 71.848517 342.12853l195.403153-34.49605 89.94746-241.472241Z" transform="matrix(1 0 0 .84472614 .00000419 -2.7842836)"/>
      <path style="display:inline;fill:#b5b5b5;fill-opacity:1;fill-rule:evenodd;stroke:none;stroke-width:2.08538px;stroke-linecap:butt;stroke-linejoin:miter;stroke-opacity:1" d="m177.52857 113.00834 65.16824 105.8984-125.44886 224.83044L65.113348 342.7264Z" transform="matrix(1 0 0 .84472614 .00000419 -2.7842836)"/>
    </g>
    <path style="display:inline;fill:#e38d4a;fill-opacity:1;fill-rule:evenodd;stroke:none;stroke-width:2.08538px;stroke-linecap:butt;stroke-linejoin:miter;stroke-opacity:1" d="M16.781876 16.885432C9.1797716 7.6539226-20.68511-3.2060341-44.536176-5.889448c-23.851066-2.6834139-41.673955 2.8122037-63.940114 1.455061-22.26616-1.3571426-48.97142-9.568921-59.06643-3.6273921-10.095 5.9415289-3.578 26.0356201 21.94729 35.5380251 25.52529 9.502406 70.056011 8.41629 96.666678 8.959712 26.610667.543422 35.299589 2.715653 46.9748861-.00028C9.7214316 33.719745 24.383981 26.116941 16.781876 16.885432Z" transform="translate(.00000419)"/>
    <path style="display:inline;fill:#def86b;fill-opacity:1;fill-rule:evenodd;stroke:none;stroke-width:2.08538px;stroke-linecap:butt;stroke-linejoin:miter;stroke-opacity:1" d="M-145.34775 116.68534c-59.9056 25.72852-118.27162 61.05532-150.43731 67.01542-32.16568 5.9601-38.12326-17.44706-41.69584-39.57937-3.57259-22.13231-4.75736-42.97797 31.62569-68.134239 36.38306-25.15627 110.35383-54.632013 177.96074-60.247248C-60.287558 10.124667.95939212 28.364354 27.45563 39.500214c26.496238 11.13586 18.240238 15.16786-16.608771 25.248239-34.849008 10.080378-96.289005 26.208375-156.194609 51.936887zM145.07366-18.528953c12.85597 4.819372 19.91626 26.2717758 15.43549 44.327873-4.48077 18.056098-20.50065 32.718364-30.68317 30.275766-10.18253-2.442599-14.52656-21.990751-19.37274-34.141924-4.84619-12.1511723-10.19375-16.8993228-3.54145-25.1829405 6.6523-8.2836175 25.3059-20.0981475 38.16187-15.2787745z"/>
    <path style="display:inline;fill:url(#i);fill-opacity:1;fill-rule:evenodd;stroke:none;stroke-width:.186841px;stroke-linecap:butt;stroke-linejoin:miter;stroke-opacity:1" d="M-224.533 313.51631c13.7984 25.05955 19.39258 75.3542 1.25028 85.97233-18.1423 10.61814-60.01819-18.44038-73.9197-22.17382-13.9015-3.73344.17335 17.85861-1.12796 30.95546-1.3013 13.09684-17.97364 17.6952-27.60297 12.75712-9.62934-4.93809-12.20559-19.41407-16.25464-32.45219-4.04904-13.03811-9.57035-24.63626-7.89004-34.96542 1.68032-10.32916 10.56227-19.38778 19.84077-20.80199 9.27851-1.41422 18.95256 4.81674 32.32388 10.39117 13.37133 5.57443 30.4395 10.49223 33.65201 1.31726 3.21251-9.17496-7.42988-32.43792-1.75065-44.16007 5.67924-11.72214 27.68061-11.8994 41.47902 13.16015z"/>
    <path style="fill:#a86bf8;fill-opacity:1;fill-rule:evenodd;stroke:none;stroke-width:.25422px;stroke-linecap:butt;stroke-linejoin:miter;stroke-opacity:1" d="M66.623617-13.076615C90.562926-37.093718 99.772381-42.00565 109.15725-42.942208c9.38487-.936557 18.94413 2.102014 25.12632 20.366982 6.18219 18.2649687 8.98718 51.755071-3.95893 99.077721C117.37852 123.82514 88.683386 184.97399 51.316527 234.47427c-37.36686 49.50029-83.401694 87.34643-153.871137 96.09321-70.46944 8.74678-165.37098-11.60629-212.53667-47.21432-47.16569-35.60803-46.59143-86.46642 8.10515-120.03683 54.69658-33.5704 163.5074-49.84741 237.25294-79.549045C4.0123496 54.065649 42.684309 10.940487 66.623617-13.076615Z"/>
    <g style="display:inline">
      <path style="display:inline;fill:url(#j);fill-opacity:1;fill-rule:evenodd;stroke:none;stroke-width:.192263px;stroke-linecap:butt;stroke-linejoin:miter;stroke-opacity:1" d="M60.592859-234.83c-.02129-.84549-.06389-2.53665-2.234278-16.13597-2.170389-13.59931-6.467984-39.10313 2.084968-65.61359 8.552952-26.51047 29.956287-54.01888 56.554211-56.82977 26.59793-2.81089 58.38136 19.07363 65.86451 34.0239 7.48315 14.95027-9.33301 22.96043-23.82483 19.35308-14.49181-3.60736-26.64898-18.83299-39.47185-18.61201-12.82287.22097-26.305959 15.89284-29.139348 36.42979-2.833389 20.53694 4.981316 45.9309 12.797148 71.32851-14.20308-1.03282-28.405605-2.06559-35.507423-2.58202-7.101817-.51643-7.101813-.51643-7.123108-1.36192z" transform="matrix(.98226216 -.11211744 .11693712 .94177717 94.910849 -62.146184)"/>
      <path style="fill:url(#k);fill-opacity:1;fill-rule:evenodd;stroke:none;stroke-width:.231657px;stroke-linecap:butt;stroke-linejoin:miter;stroke-opacity:1" d="M-55.83969-237.28389c-7.910209 1.63178-8.452979-.42502-17.180039-19.03505-8.727061-18.61003-25.635757-53.7677-20.551709-88.59644 5.084048-34.82874 32.163395-69.31719 61.737408-79.22419 29.5740124-9.90701 61.638702 4.76821 72.021117 21.53556 10.382416 16.76735-.914738 35.61996-13.303076 34.88286-12.388338-.7371-25.8641485-21.06846-42.880543-18.90998-17.016394 2.15848-37.571418 26.80753-38.390019 53.4044-.8186 26.59687 18.095247 55.13192 37.011753 83.67099-15.277461 5.32008-30.554683 10.64007-38.464892 12.27185z" transform="matrix(.98226216 -.11211744 .11693712 .94177717 94.910849 -62.146184)"/>
      <path style="fill:#a86bf8;fill-opacity:1;fill-rule:evenodd;stroke:none;stroke-width:.264583px;stroke-linecap:butt;stroke-linejoin:miter;stroke-opacity:1" d="M151.76876-205.15689c-23.95808-25.46936-56.417671-43.4709-92.957455-53.78392-36.539784-10.31303-77.147217-12.93066-117.503464-2.66432-40.356248 10.26635-80.467421 33.41992-113.602821 65.655-33.1354 32.23508-59.2977 73.55256-57.10741 112.278529 2.1903 38.72597 32.72506 74.8483474 91.46829 95.646955C-79.190879 32.773961 7.7342062 38.236018 71.423319 29.959528 135.11243 21.683037 175.55211-.3305556 194.21019-26.587046c18.65809-26.25649 15.52917-56.752822 6.2432-88.465454-9.28597-31.71264-24.72656-64.63504-48.68463-90.10439z" transform="matrix(.98226216 -.11211744 .11693712 .94177717 94.910849 -62.146184)"/>
      <path style="display:inline;fill:#761111;fill-opacity:.408511;fill-rule:evenodd;stroke:none;stroke-width:.368163px;stroke-linecap:butt;stroke-linejoin:miter;stroke-opacity:1" d="M20.754861-149.675c-7.545851-21.97716-23.9819813-41.71872-52.570178-30.65718-28.588196 11.06153-69.325033 52.92487-72.737393 84.720304-3.41236 31.795435 30.499759 53.518823 58.415393 54.563371 27.915634 1.044548 49.8318035-18.589542 61.462728-40.51346 11.630924-21.923915 12.975301-46.135875 5.42945-68.113035z" transform="matrix(.98226216 -.11211744 .11693712 .94177717 94.910849 -62.146184)"/>
      <path style="display:inline;fill:url(#l);fill-opacity:1;fill-rule:evenodd;stroke:none;stroke-width:.264583px;stroke-linecap:butt;stroke-linejoin:miter;stroke-opacity:1" d="M20.576055-129.48289c-5.303746-15.98303-16.919422-30.3185-37.225197-22.20113-20.305774 8.11737-49.299213 38.68661-51.791453 61.842245-2.492241 23.155631 21.516713 38.894643 41.318145 39.592362 19.8014316.697719 35.3932327-13.645708 43.693672-29.633081 8.300438-15.987373 9.30858-33.617376 4.004833-49.600396z" transform="matrix(.98226216 -.11211744 .11693712 .94177717 94.910849 -62.146184)"/>
      <path style="display:inline;fill:#fff;fill-opacity:1;fill-rule:evenodd;stroke:none;stroke-width:.124117px;stroke-linecap:butt;stroke-linejoin:miter;stroke-opacity:1" d="M9.1701748-124.8371c-2.4880007-7.49768-7.9369445-14.22249-17.4624347-10.41461-9.5254901 3.80788-23.1263861 18.14799-24.2955011 29.01035-1.169115 10.862362 10.093546 18.245572 19.382447 18.572873 9.2889014.327302 16.6030551-6.401235 20.4968113-13.900953 3.8937557-7.49971 4.3666777-15.76999 1.8786775-23.26766z" transform="matrix(.98226216 -.11211744 .11693712 .94177717 94.910849 -62.146184)"/>
      <path style="display:inline;fill:#000;fill-opacity:.8;fill-rule:evenodd;stroke:none;stroke-width:.264583px;stroke-linecap:butt;stroke-linejoin:miter;stroke-opacity:1" d="M107.19086-45.595998c-.39871-11.739457-21.197655-11.368389-41.416564-6.697638-20.218908 4.670751-39.857166 13.641165-45.381798 23.886509C14.867867-18.161784 23.456702-6.6416906 33.674824.61236796 43.892946 7.8664265 55.739853 10.854604 71.664222.423578c15.924369-10.431026 35.925338-34.28012 35.526638-46.019576Z" transform="matrix(.98226216 -.11211744 .11693712 .94177717 94.91085256 -62.1461844)"/>
      <path style="fill:#e93a3a;fill-opacity:.8;fill-rule:evenodd;stroke-width:.264583px" d="M27.38964-36.410055s-7.326621 5.301543-8.53099 11.113581c-1.229753 6.025258 1.597267 13.067141 6.35009 18.8438272C29.961563-.6759609 37.199103 3.9232971 44.346578 6.0657215c7.147475 2.1424244 16.033218 1.4350845 24.405186-3.5247886C77.123731-2.4189403 84.793543-8.892586 93.374317-19.237524 85.52248-28.94833 37.708493-42.985361 27.38964-36.410055Z" transform="matrix(.98226216 -.11211744 .11693712 .94177717 94.910849 -62.146184)"/>
      <path style="fill:#761111;fill-opacity:.408511;fill-rule:evenodd;stroke:none;stroke-width:2.17039px;stroke-linecap:butt;stroke-linejoin:miter;stroke-opacity:1" d="M48.728546-146.89811c-2.575139-5.49643-8.269212-11.94073-14.160593-14.37324-5.891381-2.43251-11.978981-.8507-12.452371 3.13079-.47339 3.98149 4.666581 10.35972 10.287042 15.06473 5.620461 4.70502 11.720541 7.73775 15.04005 6.98024 3.319509-.75751 3.861012-5.30609 1.285872-10.80252zM97.030562-168.67955c-2.424879-.86643-8.43865 2.45412-11.781174 8.11231-3.342524 5.65819-4.013159 13.65119-1.587912 14.51558 2.425247.8644 7.946378-5.39789 11.288585-11.05408 3.342207-5.65618 4.505379-10.70737 2.080501-11.57381zM24.344946-192.55384c-7.635746-.52322-23.68300223-8.28229-39.155374-11.12509-15.472373-2.8428-30.367817-.76775-27.862298-3.55362 2.50552-2.78587 22.412462-10.43241 37.4982746-10.94653 15.0858126-.51413 25.3472734 6.10224 30.8642494 12.76832 5.516975 6.66608 6.290894 13.38014-1.344852 12.85692z" transform="matrix(.98226216 -.11211744 .11693712 .94177717 94.910849 -62.146184)"/>
      <path style="fill:#761111;fill-opacity:.408511;fill-rule:evenodd;stroke:none;stroke-width:2.51108px;stroke-linecap:butt;stroke-linejoin:miter;stroke-opacity:1" d="M116.83058-207.75211c8.31092-1.53364 17.52894 3.11827 17.28748.93498-.24145-2.18329-9.9836-11.22442-18.42648-12.90218-8.44289-1.67776-15.58931 4.00734-18.993914 10.05692-3.404598 6.04958-3.066312 12.45656.748621 11.79655 3.814933-.66002 11.073373-8.35263 19.384293-9.88627z" transform="matrix(.98226216 -.11211744 .11693712 .94177717 94.910849 -62.146184)"/>
      <path style="display:inline;fill:#761111;fill-opacity:.408511;fill-rule:evenodd;stroke:none;stroke-width:.270514px;stroke-linecap:butt;stroke-linejoin:miter;stroke-opacity:1" d="M114.84099-162.00033c11.96534-12.65214 30.1372-11.3683 46.17407 5.53193s29.93436 49.41418 24.10841 69.523918c-5.82595 20.109742-31.36724 27.81111-50.28399 24.202805-18.91675-3.608305-31.19729-18.522994-34.45969-39.273093-3.262401-20.75009 2.49587-47.33342 14.4612-59.98556z" transform="matrix(.98226214 -.11466008 .11693712 .96313519 94.910849 -60.46574253)"/>
      <path style="display:inline;fill:url(#m);fill-opacity:1;fill-rule:evenodd;stroke:none;stroke-width:.205103px;stroke-linecap:butt;stroke-linejoin:miter;stroke-opacity:1" d="M111.60525-145.69353c9.07211-9.59286 22.85003-8.61945 35.00919 4.19431 12.15915 12.81376 22.69624 37.46585 18.279 52.713054-4.41723 15.247206-23.78265 21.086389-38.12533 18.35057-14.34268-2.73582-23.65378-14.044138-26.12734-29.776864-2.473557-15.73273 1.89236-35.88822 10.96448-45.48107z" transform="matrix(.98226214 -.11466008 .11693712 .96313519 94.910849 -60.46574253)"/>
      <path style="display:inline;fill:#fff;fill-opacity:1;fill-rule:evenodd;stroke:none;stroke-width:.0883191px;stroke-linecap:butt;stroke-linejoin:miter;stroke-opacity:1" d="M131.48186-132.96387c3.90652-4.13075 9.83938-3.7116 15.0752 1.8061 5.23582 5.51769 9.77316 16.13304 7.87106 22.6986-1.90209 6.56555-10.24097 9.079942-16.41702 7.90188-6.17606-1.17806-10.18548-6.0475-11.25062-12.82212-1.06513-6.77462.81487-15.45371 4.72138-19.58446z" transform="matrix(.98226214 -.11466008 .11693712 .96313519 94.910849 -60.46574253)"/>
      <path style="display:inline;fill:#f19ed1;fill-opacity:.8;fill-rule:evenodd;stroke:none;stroke-width:1.54124px;stroke-linecap:butt;stroke-linejoin:miter;stroke-opacity:1" d="M236.67811-132.46259c4.41619-5.17822 13.89271-11.34748 21.93839-13.12522 8.04569-1.77775 14.64969.83504 14.43534 4.32198-.21435 3.48694-7.24845 7.8459-14.96921 11.71595-7.72076 3.87004-16.12835 7.2515-20.65315 6.85088-4.52479-.40062-5.16756-4.58538-.75137-9.76359z" transform="matrix(1.01622869 0 0 1 9.32001375 .00000523)"/>
      <path style="display:inline;fill:#f19ed1;fill-opacity:.8;fill-rule:evenodd;stroke:none;stroke-width:2.08538px;stroke-linecap:butt;stroke-linejoin:miter;stroke-opacity:1" d="M32.448955-88.94943c-9.216294-2.11295-22.272544-2.11295-33.40976961 1.535092C-12.09804-83.766295-21.314032-76.470298-19.77697-72.822119c1.537061 3.648179 13.8250614 3.648179 27.6492457 2.111957C21.69646-72.246384 37.05646-75.318386 42.048851-78.965435c4.992391-3.64705-.383602-7.871045-9.599896-9.983995z" transform="matrix(1.01622869 0 0 1 9.32001375 .00000523)"/>
    </g>
    <path style="display:inline;fill:url(#n);fill-opacity:1;fill-rule:evenodd;stroke:none;stroke-width:.25422px;stroke-linecap:butt;stroke-linejoin:miter;stroke-opacity:1" d="M-110.60321 224.35607c22.20026 12.84255 46.328539 37.52426 61.996036 56.94645 15.667497 19.42218 22.873559 33.58372 21.84865 58.73818-1.024908 25.15446-10.2805 61.29887-7.829522 81.49732 2.450978 20.19846 16.608187 24.45 34.52809897 33.82486C17.859965 464.73774 39.540688 479.23478 41.629311 492.05433c2.088623 12.81955-15.414804 23.96025-31.6506906 26.38851-16.2358868 2.42826-31.2025254-3.85631-51.8379684-12.12017-20.635443-8.26386-46.937169-18.50599-55.466698-31.82908-8.529534-13.32308.714511-29.72562 4.232462-50.38439 3.51795-20.65877 1.30933-45.57103-.822489-62.72123-2.131819-17.1502-4.186496-26.53514-22.227317-37.15617-18.04083-10.62103-52.06782-22.47745-64.26628-41.8039-12.19846-19.32645-2.56808-46.12321 12.38316-59.02023 14.95124-12.89702 35.22304-11.89416 57.4233.9484z"/>
    <path style="fill:#def86b;fill-opacity:1;fill-rule:evenodd;stroke:none;stroke-width:.25422px;stroke-linecap:butt;stroke-linejoin:miter;stroke-opacity:1" d="M-32.328769 36.290067c.105741 12.218657 39.3422563 6.52399 55.605213 11.608648 16.262957 5.084659 9.545791 20.949276.491142 34.729514-9.054649 13.780239-20.4466497 25.475911-37.515393 36.611651-17.068743 11.13574-39.813955 21.71139-61.025068 16.41329-21.211112-5.29811-40.880655-26.4633-55.617875-35.28931-14.73721-8.826016-24.52769-5.299981-13.42327 10.36551 11.10442 15.66549 43.10101 43.46688 73.962079 51.85607 30.86107 8.3892 60.5835995-2.63512 79.0152038-16.1733C27.594867 132.87396 34.735362 116.82192 48.710346 96.404129c13.974983-20.417793 34.77922-45.194989 35.40553-68.026041.626309-22.8310515-18.927405-43.698625-48.224356-39.069145C6.594569-6.0615776-32.43451 24.071411-32.328769 36.290067Z"/>
    <path style="display:inline;fill:url(#o);fill-opacity:1;fill-rule:evenodd;stroke:none;stroke-width:.299876px;stroke-linecap:butt;stroke-linejoin:miter;stroke-opacity:0" d="M32.86671-.1047671C12.182682-2.0437743-12.891479 17.174165-13.876586 49.537856c-.985107 32.363691 22.1180386 77.867624 54.374191 110.135964 32.256152 32.26835 73.655155 51.29432 112.310405 55.71784 38.65526 4.42353 74.55651-5.75402 79.70606-18.08769 5.14956-12.33367-20.45645-26.81748-51.63195-38.21439-31.17549-11.39691-67.90694-19.70112-84.628197-37.69824-16.721254-17.99712-13.419403-45.675311-19.914569-71.068184C69.844187 24.930283 53.550737 1.8342401 32.86671-.1047671Z"/>
    <path style="display:inline;fill:#4ab5e3;fill-opacity:1;fill-rule:evenodd;stroke:none;stroke-width:.264583px;stroke-linecap:butt;stroke-linejoin:miter;stroke-opacity:1" d="M256.06897 212.99838c-2.89109-11.40748-8.25168-16.66555-17.14113-17.3647-8.88944-.69914-21.30826 3.16297-28.06784 11.13822-6.75959 7.97524-7.86128 20.06113-9.98772 30.29537-2.12645 10.23424-5.27708 18.61649 4.37683 22.04788 9.65391 3.43139 32.10403 1.91201 43.11884-7.62268 11.01482-9.53468 10.59212-27.08662 7.70102-38.49409z" transform="matrix(.96657589 -.11211743 .11506969 .94177717 84.223986 -62.146185)"/>
    <path style="fill:#f19ed1;fill-opacity:1;fill-rule:evenodd;stroke:none;stroke-width:7.88177;stroke-opacity:1" d="M730.26937-137.90672a107.13811 101.37799 0 0 0-103.91891 77.986019 78.33754 66.817314 0 0 0-63.12359-27.29734 78.33754 66.817314 0 0 0-78.33631 66.817809 78.33754 66.817314 0 0 0 1.12008 9.701921 70.273376 40.320793 0 0 0-44.89684 37.532827 70.273376 40.320793 0 0 0 70.27173 40.318788 70.273376 40.320793 0 0 0 24.21815-2.48046 146.30687 44.928883 0 0 0 127.84787 23.216177 146.30687 44.928883 0 0 0 112.08124-16.206517A110.59418 20.736408 0 0 0 881.1868 51.024167a110.59418 20.736408 0 0 0-72.24307-19.444581 107.13811 101.37799 0 0 0 28.4663-68.108947A107.13811 101.37799 0 0 0 730.26937-137.90672ZM-435.0529-353.3118a89.606339 71.685066 0 0 0-63.60013 21.23263 60.280624 55.393005 0 0 0-14.60176-1.68215 60.280624 55.393005 0 0 0-60.28063 55.39301 60.280624 55.393005 0 0 0 7.21739 25.71294 219.94283 42.35936 0 0 0-140.81229 39.4553 219.94283 42.35936 0 0 0 219.94283 42.35936 219.94283 42.35936 0 0 0 149.01126-11.38001 84.718719 58.651421 0 0 0 18.79697 1.60477 84.718719 58.651421 0 0 0 84.71871-58.65142 84.718719 58.651421 0 0 0-84.71871-58.65142 84.718719 58.651421 0 0 0-27.56617 3.44577 89.606339 71.685066 0 0 0-88.10747-58.83878zM450.94604-507.71916c-33.29207 0-60.28063 27.71797-60.28063 61.90983.0375 11.80924 3.36285 23.36111 9.58381 33.29283-36.67894 1.42096-62.41368 6.4543-62.55745 12.23534.004 6.9981 37.13716 12.67092 82.94289 12.67115 10.48599-1.24863 20.84849 4.42841 30.31138 3.71052 15.82916-1.20086 27.37788-9.92715 42.23717-10.28029 47.81061-1.13623 94.01945 3.72548 138.6047 3.76346 109.77387 0 198.76317-5.83536 198.76315-13.03365-.0241-5.72251-56.96888-10.77465-140.38869-12.45528-.82282-12.46371-24.79651-22.38747-54.09779-22.39344-10.94085.0316-21.6025 1.47297-30.5802 4.13411-.17587-30.65115-41.17975-47.07983-58.41518-47.48728-15.00919.0376-29.42873 4.54912-40.29027 12.60598-9.2109-23.36153-31.292-38.65625-55.83289-38.67328z"/>
  </g>
</svg>
