<svg width="512.9314" height="492.95163" viewBox="0 0 1069.6589 1027.9933" xml:space="preserve" xmlns:xlink="http://www.w3.org/1999/xlink" xmlns="http://www.w3.org/2000/svg">
  <defs>
    <linearGradient id="e">
      <stop style="stop-color:#1c88b7;stop-opacity:1" offset="0"/>
      <stop style="stop-color:#a86bf8;stop-opacity:1" offset="1"/>
    </linearGradient>
    <linearGradient id="d">
      <stop style="stop-color:#000;stop-opacity:1" offset="0"/>
      <stop style="stop-color:#6949f6;stop-opacity:0" offset="1"/>
    </linearGradient>
    <linearGradient id="c">
      <stop style="stop-color:#a86bf8;stop-opacity:1" offset="0"/>
      <stop style="stop-color:#4ab5e3;stop-opacity:1" offset="1"/>
    </linearGradient>
    <linearGradient id="b">
      <stop style="stop-color:#4ab5e3;stop-opacity:1" offset="0"/>
      <stop style="stop-color:#a86bf8;stop-opacity:1" offset="1"/>
    </linearGradient>
    <linearGradient id="a">
      <stop style="stop-color:#4ab5e3;stop-opacity:1" offset="0"/>
      <stop style="stop-color:#a86bf8;stop-opacity:1" offset="1"/>
    </linearGradient>
    <linearGradient xlink:href="#a" id="j" x1="-83.888748" y1="172.17795" x2="-10.107515" y2="9.57936" gradientUnits="userSpaceOnUse" gradientTransform="matrix(-.70631748 -.75803869 -1.0582912 .53024729 726.66766 410.47355)"/>
    <linearGradient xlink:href="#b" id="g" x1="52.152649" y1="-384.12872" x2="-26.99741" y2="-219.85088" gradientUnits="userSpaceOnUse" gradientTransform="matrix(1.0097555 -.29978349 .2897154 .99127447 42.009087 4.3807716)"/>
    <linearGradient xlink:href="#c" id="f" x1="73.442802" y1="-222.57249" x2="138.18085" y2="-285.8136" gradientUnits="userSpaceOnUse" gradientTransform="matrix(1.1114148 -.04785459 .04999987 1.0469132 -43.754803 .12756395)"/>
    <linearGradient xlink:href="#d" id="h" x1="137.67839" y1="-123.62474" x2="168.57498" y2="-64.588867" gradientUnits="userSpaceOnUse" gradientTransform="matrix(.99957133 -.0243992 .02395615 .9998441 -21.402623 7.7348697)"/>
    <linearGradient xlink:href="#d" id="i" x1="-10.043543" y1="-108.36281" x2="-65.375191" y2="-24.973192" gradientUnits="userSpaceOnUse" gradientTransform="matrix(1.0001301 -.03115831 .02775917 .99900509 -33.394184 2.1699492)"/>
  </defs>
  <g style="display:inline">
    <path style="display:inline;fill:#e38d4a;fill-rule:evenodd;stroke:none;stroke-width:2.08538px;stroke-linecap:butt;stroke-linejoin:miter;stroke-opacity:1" d="M-8.8475008 19.837765 440.9933 82.772235l70.36847-81.2600829L689.74989 58.054296 667.02057 234.57073 548.10254 572.55564l-787.43053-89.84513C-157.20804 326.27137-115.78681 159.96514-8.8475008 19.837765Z" transform="translate(379.90894456 449.22974)"/>
    <path style="fill:#4ab5e3;fill-rule:evenodd;stroke:none;stroke-width:2.08538px;stroke-linecap:butt;stroke-linejoin:miter;stroke-opacity:1" d="M549.24222 463.73347c-10.71098-2.80675-33.62902 1.30675-54.04985 26.85385-20.42084 25.54711-40.92627 72.98764-61.43254 120.43011l43.79307 16.68307c30.45277-46.57524 57.86459-88.49956 72.29587-119.65333 14.43127-31.15378 10.10444-41.50695-.60655-44.3137z"/>
    <path style="fill:#a86bf8;fill-opacity:1;fill-rule:evenodd;stroke:none;stroke-width:.25422px;stroke-linecap:butt;stroke-linejoin:miter;stroke-opacity:1" d="M246.97753 24.785941c-11.19955-22.3092098-15.22547-33.1927133-24.04109-37.256846-8.81562-4.064132-22.41383-1.299877-58.37409 47.381151C128.60209 83.591275 58.643965 197.06768 77.048299 228.93904 95.452633 260.8104 211.19527 244.19503 262.5858 215.44937c51.39054-28.74566 40.4774-70.04385 28.8931-99.26228-11.5843-29.218418-33.30182-69.091939-44.50137-91.401149Z" transform="translate(379.90895 449.22974)"/>
    <g style="display:inline">
      <path style="display:inline;fill:url(#f);fill-opacity:1;fill-rule:evenodd;stroke:none;stroke-width:.192263px;stroke-linecap:butt;stroke-linejoin:miter;stroke-opacity:1" d="M18.564714-243.60483c-.107629-.83801-.322908-2.51418-3.873023-15.79646s-10.4340977-38.16708-4.633051-65.43417c5.801047-27.2671 24.287842-56.90783 50.46882-62.56154 26.180978-5.65371 60.04688 12.67848 69.02198 26.73212 8.9751 14.05363-6.94023 23.82278-21.73023 21.79594-14.790006-2.02685-28.4445-15.85154-41.182308-14.25306-12.737809 1.59848-24.553028 18.62379-25.446825 40.61133-.893797 21.98753 9.131375 48.92833 19.15806 75.8732-13.891932-2.04312-27.783004-4.08611-34.729401-5.10774-6.946396-1.02162-6.946393-1.02162-7.054022-1.85962z" transform="matrix(-.97897687 -.12897859 -.13374353 .94846183 558.50808 385.642742)"/>
      <path style="fill:url(#g);fill-opacity:1;fill-rule:evenodd;stroke:none;stroke-width:.231657px;stroke-linecap:butt;stroke-linejoin:miter;stroke-opacity:1" d="M-99.271577-221.10721c-7.704853 2.47234-8.455253.48656-19.042353-17.07056-10.5871-17.55712-31.00769-50.68031-29.50906-85.84149 1.49864-35.16118 24.92022-72.34937 53.337325-85.37556 28.417109-13.0262 61.825872-1.88921 73.871889 13.65856 12.0460171 15.54776 2.731258 35.49921-9.672085 36.09878-12.403344.59957-27.892039-18.15765-44.604862-14.18265-16.712824 3.97499-34.647767 30.68273-32.743307 57.20401 1.90446 26.52129 23.643384 52.84698 45.385361 79.17637-14.659144 6.93016-29.318056 13.86021-37.022908 16.33254z" transform="matrix(-.97897687 -.12897859 -.13374353 .94846183 558.50808 385.642742)"/>
      <path style="fill:#a86bf8;fill-opacity:1;fill-rule:evenodd;stroke:none;stroke-width:.264583px;stroke-linecap:butt;stroke-linejoin:miter;stroke-opacity:1" d="M113.21938-223.20392c-41.824121-23.59314-101.298645-36.62294-159.692024-32.77249-58.393376 3.85045-115.675616 24.57745-154.597776 63.69575-38.92216 39.1183-59.45946 96.597181-55.73209 141.581459 3.72737 44.9842783 31.71277 77.437278 82.91095 94.869842 51.19817 17.432564 125.546701 19.823662 194.067153 5.073432C88.696045 34.493843 151.31933 2.6124162 180.87154-30.339708c29.5522-32.952123 26.01385-66.960579 12.16771-101.043632-13.84615-34.08305-37.99575-68.22744-79.81987-91.82058z" transform="matrix(-.97897687 -.12897859 -.13374353 .94846183 558.50808 385.642742)"/>
      <path style="display:inline;fill:#761111;fill-opacity:.408511;fill-rule:evenodd;stroke:none;stroke-width:.382938px;stroke-linecap:butt;stroke-linejoin:miter;stroke-opacity:1" d="M108.07007-179.97082c-20.222951-2.99177-30.563414 15.05059-32.581315 34.93845-2.0179 19.88785 4.288602 41.61696 17.240413 56.752138 12.951812 15.135178 32.547202 23.675648 49.616162 15.803511 17.06896-7.872137 31.60621-32.150839 23.82546-56.312219-7.78075-24.16138-37.87777-48.19012-58.10072-51.18188z" transform="matrix(-.97897687 -.12897859 -.13374353 .94846183 558.50808 385.642742)"/>
      <path style="fill:url(#h);fill-opacity:1;fill-rule:evenodd;stroke:none;stroke-width:.264583px;stroke-linecap:butt;stroke-linejoin:miter;stroke-opacity:1" d="M102.40277-157.79629c-13.039011-1.54743-23.429061 10.7495-25.143322 25.34836-1.71426 14.59886 5.246023 31.48839 14.92642 42.635686 9.680402 11.147295 22.076472 16.543527 31.633012 9.644408 9.55655-6.899118 16.27087-26.089094 11.78706-43.387594-4.48381-17.29849-20.16415-32.69343-33.20317-34.24086z" transform="matrix(-.97897687 -.12897859 -.13374353 .94846183 558.50808 385.642742)"/>
      <path style="display:inline;fill:#fff;fill-opacity:1;fill-rule:evenodd;stroke:none;stroke-width:.100649px;stroke-linecap:butt;stroke-linejoin:miter;stroke-opacity:1" d="M108.63442-145.65317c-4.78985.19235-6.60615 5.40312-6.27743 10.93585.32871 5.53273 2.80234 11.38726 6.57055 15.11187 3.76822 3.72461 8.83055 5.31916 12.38355 2.19931 3.553-3.11984 5.59537-10.95041 2.73582-17.28197-2.85955-6.33156-10.62263-11.15741-15.41249-10.96506z" transform="matrix(-.97897687 -.12897859 -.13374353 .94846183 558.50808 385.642742)"/>
      <path style="fill:#761111;fill-opacity:.408511;fill-rule:evenodd;stroke:none;stroke-width:2.17039px;stroke-linecap:butt;stroke-linejoin:miter;stroke-opacity:1" d="M12.001192-143.75763c-3.108977-5.24959-9.4091957-11.15875-15.5017275-13.04549-6.0925318-1.88673-11.9760705.25137-12.0454945 4.26891-.06943 4.01755 5.6741385 9.91166 11.7263451 14.09155 6.0522066 4.17988 12.4122771 6.64654 15.6310719 5.58549 3.218794-1.06105 3.298782-5.65087.189805-10.90046zM65.450062-149.89408c-2.58479-.006-7.373156 5.11293-8.90392 11.5377-1.530763 6.42476.195899 14.15225 2.780478 14.15652 2.58458.004 6.027602-7.71284 7.55861-14.13564 1.531008-6.42279 1.149622-11.55228-1.435168-11.55858zM-28.318018-186.35586c-5.28408 1.57256-16.538803-2.10645-30.585623-.75733-14.046819 1.34912-30.885595 7.72826-33.356879 5.48298-2.471284-2.24528 9.426167-13.11422 23.131735-17.87614 13.705568-4.76193 29.217206-3.41818 37.31402.66731 8.096813 4.0855 8.780827 10.91062 3.496747 12.48318zM80.768385-200.95364c8.643408-4.87535 17.829377-4.53865 17.080304-7.0933-.749074-2.55464-11.434418-8.00239-20.062101-3.14917-8.627683 4.85321-14.48797 18.38587-13.657558 21.21486.830412 2.82898 7.995946-6.09704 16.639355-10.97239z" transform="matrix(-.97897687 -.12897859 -.13374353 .94846183 558.50808 385.642742)"/>
      <path style="display:inline;fill:#f19ed1;fill-opacity:.8;fill-rule:evenodd;stroke:none;stroke-width:2.17039px;stroke-linecap:butt;stroke-linejoin:miter;stroke-opacity:1" d="M-113.1425-16.732532c-9.66852-3.880829-23.9802-6.630304-35.75954-4.002321-11.77934 2.627983-21.0123 10.624083-17.98872 16.7918849 3.02359 6.1678016 18.29534 10.4977643 32.58756 10.3779569 14.29222-.1198074 27.58581-4.6939033 31.72039-9.4850801 4.134573-4.7911769-.89117-9.8016107-10.55969-13.6824407z" transform="matrix(-.97897687 -.12897859 -.13374353 .94846183 558.50808 385.642742)"/>
      <path style="display:inline;fill:#f19ed1;fill-opacity:.8;fill-rule:evenodd;stroke:none;stroke-width:2.59484px;stroke-linecap:butt;stroke-linejoin:miter;stroke-opacity:1" d="M143.32367-56.367198c1.62641-5.284036 11.88597-14.216643 22.46128-17.486221 10.57531-3.269578 21.46258-.876509 22.95943 3.158627 1.49684 4.035136-6.39641 9.711995-13.47107 13.8003-7.07467 4.088305-13.32062 6.583863-19.94654 7.015206-6.62591.431344-13.62952-1.203876-12.0031-6.487912z" transform="matrix(-.97897687 -.12897859 -.13374353 .94846183 558.50808 385.642742)"/>
      <path style="display:inline;fill:#761111;fill-opacity:.408511;fill-rule:evenodd;stroke:none;stroke-width:.368163px;stroke-linecap:butt;stroke-linejoin:miter;stroke-opacity:1" d="M-17.244313-137.48891c-10.212228-21.09407-31.309023-39.05152-59.595356-27.10838-28.286331 11.94315-63.753011 53.77834-64.227821 85.022218-.47481 31.24388 34.04474 51.889007 61.993002 52.062714 27.948266.173707 49.322258-20.123717 60.346106-42.388225 11.0238492-22.264508 11.6962983-46.494267 1.484069-67.588327z" transform="matrix(-.97897687 -.12897859 -.13374353 .94846183 558.50808 385.642742)"/>
      <path style="display:inline;fill:url(#i);fill-opacity:1;fill-rule:evenodd;stroke:none;stroke-width:.264583px;stroke-linecap:butt;stroke-linejoin:miter;stroke-opacity:1" d="M-16.041016-126.85949c-6.080261-14.89736-18.058765-26.98639-37.548985-18.95074-19.490219 8.03565-46.484039 36.18899-48.375479 59.697189-1.89144 23.508196 21.315835 42.360247 40.897551 43.18037 19.581716.820124 35.522049-16.394431 43.405623-33.859346 7.8835752-17.464916 7.7015516-35.170113 1.62129-50.067473z" transform="matrix(-.97897687 -.12897859 -.13374353 .94846183 558.50808 385.642742)"/>
      <path style="display:inline;fill:#fff;fill-opacity:1;fill-rule:evenodd;stroke:none;stroke-width:.103477px;stroke-linecap:butt;stroke-linejoin:miter;stroke-opacity:1" d="M-43.837373-130.03874c-6.608057 4.81551-12.765487 14.95118-11.613941 22.19973 1.151545 7.24855 9.60872 11.602713 17.166488 10.806298 7.557767-.796416 14.206053-6.747798 16.581882-13.739658 2.375829-6.99186.479117-15.02329-3.996644-19.29576-4.475761-4.27247-11.529729-4.78611-18.137785.0294z" transform="matrix(-.97897687 -.12897859 -.13374353 .94846183 558.50808 385.642742)"/>
      <path style="display:inline;fill:#000;fill-opacity:.8;fill-rule:evenodd;stroke:none;stroke-width:.28273px;stroke-linecap:butt;stroke-linejoin:miter;stroke-opacity:1" d="M46.479994-27.947546C36.022273-38.70614 15.677717-39.548974-5.2293506-31.570911-26.136418-23.592849-47.592402-6.8040093-49.739971 5.5553573-51.88754 17.914724-34.720236 25.83923-13.530155 28.201614c21.1900812 2.362385 46.389904-.835378 58.713908-12.774889 12.324004-11.939511 11.753962-32.615678 1.296241-43.374271Z" transform="matrix(-.97897687 -.12897859 -.13374353 .94846183 558.50808 385.642742)"/>
      <path style="display:inline;fill:#e93a3a;fill-opacity:.8;fill-rule:evenodd;stroke:none;stroke-width:.28273px;stroke-linecap:butt;stroke-linejoin:miter;stroke-opacity:1" d="M50.874293 7.8372467C38.145039-.15185053 24.914584-8.45551 11.924627-13.146589c-12.9899575-4.691079-34.576238-7.371532-41.347034-4.851777-6.770796 2.519755-23.223372 19.0680698-20.421931 28.429845 2.801441 9.361776 19.596016 16.817948 37.518825 18.66689 17.9228091 1.848942 36.950458-1.913211 47.67283-6.392139 10.722371-4.478928 13.125055-9.674781 15.526976-14.8689833z" transform="matrix(-.97897687 -.12897859 -.13374353 .94846183 558.50808 385.642742)"/>
    </g>
    <path style="fill:#def86b;fill-opacity:1;fill-rule:evenodd;stroke:none;stroke-width:1.03669px;stroke-linecap:butt;stroke-linejoin:miter;stroke-opacity:1" d="m-379.90895 46.262353 117.36733-22.428249 132.26894 18.823322 44.15693 62.184114 268.33295 36.53784 336.42908 45.81021 13.68788 168.51609 18.11808 223.05791-451.51996-53.26817-367.15372-43.31504-82.73204-209.15667z" transform="translate(379.90895 449.22974)"/>
    <path style="fill:#4ab5e3;fill-rule:evenodd;stroke:none;stroke-width:3.21157px;stroke-linecap:butt;stroke-linejoin:miter;stroke-opacity:1" d="M51.760977 115.70971C41.280934 101.33774-17.946114 96.052629-50.94531 105.61468c-32.999196 9.56204-39.759515 33.96795-29.277046 48.33985 10.482469 14.3719 38.203824 18.70764 71.1986781 9.14617 32.9948539-9.56147 71.2646979-33.01903 60.7846549-47.39099Z" transform="translate(379.90895 449.22974)"/>
  </g>
  <path style="display:inline;fill:url(#j);fill-opacity:1;fill-rule:evenodd;stroke:none;stroke-width:.287016px;stroke-linecap:butt;stroke-linejoin:miter;stroke-opacity:0" d="M629.99783 466.91187c15.64584-6.71213 44.49728 12.61986 71.00085 33.98614 26.50358 21.36628 50.64088 44.75049 58.51402 81.85132 7.87313 37.10083-.52567 87.87448-38.3146 127.64247-37.78894 39.76799-104.93579 68.48903-135.91667 69.23969-30.98087.75067-25.78272-26.47045 1.70458-57.01241 27.48731-30.54195 77.22142-64.36295 84.68846-95.5017 7.46705-31.13874-27.35107-59.54984-43.55369-90.14457-16.20261-30.59472-13.76879-63.34882 1.87705-70.06094z"/>
</svg>
