<svg width="443.77704" height="400.83072" viewBox="0 0 925.44551 835.88585" xml:space="preserve" xmlns:xlink="http://www.w3.org/1999/xlink" xmlns="http://www.w3.org/2000/svg">
  <defs>
    <linearGradient id="f">
      <stop style="stop-color:#000;stop-opacity:1" offset="0"/>
      <stop style="stop-color:#6f00d4;stop-opacity:0" offset="1"/>
    </linearGradient>
    <linearGradient id="d">
      <stop style="stop-color:#1c88b7;stop-opacity:1" offset="0"/>
      <stop style="stop-color:#a86bf8;stop-opacity:1" offset="1"/>
    </linearGradient>
    <linearGradient id="e">
      <stop style="stop-color:#000;stop-opacity:1" offset="0"/>
      <stop style="stop-color:#6949f6;stop-opacity:0" offset="1"/>
    </linearGradient>
    <linearGradient id="c">
      <stop style="stop-color:#a86bf8;stop-opacity:1" offset="0"/>
      <stop style="stop-color:#4ab5e3;stop-opacity:1" offset="1"/>
    </linearGradient>
    <linearGradient id="b">
      <stop style="stop-color:#4ab5e3;stop-opacity:1" offset="0"/>
      <stop style="stop-color:#a86bf8;stop-opacity:1" offset="1"/>
    </linearGradient>
    <linearGradient id="a">
      <stop style="stop-color:#4ab5e3;stop-opacity:1" offset="0"/>
      <stop style="stop-color:#a86bf8;stop-opacity:1" offset="1"/>
    </linearGradient>
    <linearGradient xlink:href="#a" id="k" x1="-174.83905" y1="122.8033" x2="-42.616123" y2="13.162251" gradientUnits="userSpaceOnUse" gradientTransform="matrix(-.80361805 -1.0099558 -1.257799 .67080817 947.22907 259.7125)"/>
    <linearGradient xlink:href="#b" id="h" x1="52.152649" y1="-384.12872" x2="-26.99741" y2="-219.85088" gradientUnits="userSpaceOnUse" gradientTransform="matrix(1.0501524 .05452953 -.04807003 .97599034 -42.869631 41.611252)"/>
    <linearGradient xlink:href="#c" id="g" x1="73.442802" y1="-222.57249" x2="138.18085" y2="-285.8136" gradientUnits="userSpaceOnUse" gradientTransform="matrix(1.1015707 .32940073 -.29553905 1.0741649 -82.146359 38.133646)"/>
    <linearGradient xlink:href="#e" id="j" x1="-10.043543" y1="-108.36281" x2="-65.375191" y2="-24.973192" gradientUnits="userSpaceOnUse" gradientTransform="matrix(.98991166 -.13684928 .14668833 .87643726 -37.268164 -7.3075234)"/>
    <linearGradient xlink:href="#f" id="i" x1="116.26831" y1="-115.47525" x2="99.921776" y2="-48.87952" gradientUnits="userSpaceOnUse"/>
  </defs>
  <path style="display:inline;fill:#e38d4a;fill-rule:evenodd;stroke:none;stroke-width:2.08538px;stroke-linecap:butt;stroke-linejoin:miter;stroke-opacity:1" d="m371.06145 456.3819 449.8408 62.93447 70.36847-81.26008 178.38808 56.54214-22.7293 176.51644-118.91801 337.98493-787.43053-89.84515c82.11995-156.43914 123.54118-322.74537 230.48049-462.87275Z" transform="matrix(.86517821 0 0 1 0 -179.42181)"/>
  <path style="display:inline;fill:#a86bf8;fill-opacity:1;fill-rule:evenodd;stroke:none;stroke-width:.25422px;stroke-linecap:butt;stroke-linejoin:miter;stroke-opacity:1" d="M678.88449 621.07098c-32.39033-32.70975-35.92743-62.59178-58.74645-68.45556-22.81902-5.86378-65.55165 11.78061-58.24235 51.13569 7.3093 39.35508 58.63809 93.33293 117.21581 119.36708 58.57771 26.03416 113.58969 12.55501 109.11642-7.15818-4.47328-19.7132-76.95311-62.17929-109.34343-94.88903z" transform="matrix(.86517821 0 0 1 0 -179.42181)"/>
  <path style="display:inline;fill:#def86b;fill-opacity:1;fill-rule:evenodd;stroke:none;stroke-width:1.03669px;stroke-linecap:butt;stroke-linejoin:miter;stroke-opacity:1" d="m0 482.80649 117.36733-22.42825 132.26894 18.82332 44.15693 62.18412 268.33295 36.53784 336.42908 45.81021 31.80596 391.57397-451.51996-53.26814-367.15372-43.31504-82.73204-209.15667Z" transform="matrix(.86517821 0 0 1 0 -179.42181)"/>
  <g style="display:inline">
    <path style="display:inline;fill:url(#g);fill-opacity:1;fill-rule:evenodd;stroke:none;stroke-width:.201496px;stroke-linecap:butt;stroke-linejoin:miter;stroke-opacity:1" d="M58.915611-186.80726c.170515-.8828.511577-2.64856 1.412468-17.26753.900891-14.61897 2.361379-42.0872 16.998501-67.64992 14.637121-25.56273 42.44882-49.21101 69.88695-46.0223 27.43813 3.18871 54.49393 33.21017 57.65739 50.52603 3.16347 17.31585-17.56233 21.92021-31.34525 14.84703-13.78293-7.07319-20.61197-25.82239-32.60036-28.61157-11.98839-2.78918-29.13218 10.38746-37.82116 33.24014-8.688978 22.85268-8.922324 55.37098-9.155706 87.8942-11.73445-8.6911-23.467781-17.38136-29.335566-21.72733-5.867785-4.34596-5.867781-4.34596-5.697267-5.22875z" transform="matrix(-.8332464 .2029951 .2322263 .92544143 422.29566455 351.28151)"/>
    <path style="fill:url(#h);fill-opacity:1;fill-rule:evenodd;stroke:none;stroke-width:.225152px;stroke-linecap:butt;stroke-linejoin:miter;stroke-opacity:1" d="M-103.07122-204.42019c-8.07305-.25129-8.13721-2.26063-12.43453-21.28558-4.29733-19.02496-12.82649-55.0598-.009-85.92664 12.81751-30.86683 46.981516-56.55458 78.023837-59.11127 31.0423216-2.55669 58.959087 18.01746 65.284965 35.71605 6.325878 17.69858-8.935145 32.51599-20.8349653 29.09806-11.8998206-3.41792-20.4336867-25.07466-37.4950297-26.85696-17.061344-1.78229-42.648572 16.31107-49.452492 40.56033-6.803921 24.24926 5.173886 54.64458 17.153381 85.04419-16.081695 1.50656-32.163129 3.0131-40.236186 2.76182z" transform="matrix(-.8332464 .2029951 .2322263 .92544143 422.29566455 351.28151)"/>
    <path style="fill:#a86bf8;fill-opacity:1;fill-rule:evenodd;stroke:none;stroke-width:.264583px;stroke-linecap:butt;stroke-linejoin:miter;stroke-opacity:1" d="M142.9468-153.11369c-27.01578-32.53256-66.233741-58.53207-114.49042-71.46713-48.256678-12.93506-105.539309-12.80353-155.72675 2.09655-50.18744 14.90008-93.24935 44.55616-121.915 75.37045-28.66564 30.81428-42.91421 62.761725-31.32606 95.731354 11.58815 32.969629 48.99764 66.932736 106.53414 91.259519 57.5365 24.326783 135.127422 38.984746 200.389542 35.099539C91.674373 71.091386 144.56324 48.659747 171.36543 25.992843c26.80219-22.6669047 27.50518-45.561747 20.45318-76.542219-7.05201-30.980472-21.85603-70.031744-48.87181-102.564314Z" transform="matrix(-.8332464 .2029951 .2322263 .92544143 422.29566455 351.28151)"/>
    <path style="display:inline;fill:#f19ed1;fill-opacity:.8;fill-rule:evenodd;stroke:none;stroke-width:2.17039px;stroke-linecap:butt;stroke-linejoin:miter;stroke-opacity:1" d="M-169.9542-15.465226c-7.63415-7.220739-19.98013-15.104956-31.84914-17.01489-11.86901-1.909934-23.2447 2.150905-22.58689 9.047448.65781 6.896543 13.34462 16.6167339 26.67423 21.8073089 13.32961 5.1905751 27.28585 5.84024 32.80255 2.8884428 5.5167-2.9517973 2.5934-9.5075719-5.04075-16.7283097z" transform="matrix(-.8332464 .2029951 .2322263 .92544143 422.29566455 351.28151)"/>
    <path style="display:inline;fill:#f19ed1;fill-opacity:.8;fill-rule:evenodd;stroke:none;stroke-width:2.59484px;stroke-linecap:butt;stroke-linejoin:miter;stroke-opacity:1" d="M122.75442-16.462833c2.08054-5.115703 13.07107-13.065768 23.88058-15.341873 10.80951-2.276106 21.43426 1.121011 22.5709 5.282136 1.13665 4.161126-7.21442 9.085942-14.61201 12.503458-7.39758 3.417516-13.83122 5.3244779-20.46244 5.1386272-6.63123-.1858507-13.45758-2.4666452-11.37703-7.5823482z" transform="matrix(-.8332464 .2029951 .2322263 .92544143 422.29566455 351.28151)"/>
    <path style="display:inline;fill:#000;fill-opacity:.8;fill-rule:evenodd;stroke:none;stroke-width:.234808px;stroke-linecap:butt;stroke-linejoin:miter;stroke-opacity:1" d="M34.656825-9.0988826C25.29693-17.665823 7.3618002-18.601818-10.948765-12.637688-29.259331-6.6735581-47.933361 6.1828839-49.656899 15.83244c-1.723537 9.649557 13.508924 16.088172 32.209685 18.225608 18.7007613 2.137437 40.85834-.02493 51.553122-9.207755 10.694782-9.182822 9.910812-25.38223558.550917-33.9491756z" transform="matrix(-.8332464 .2029951 .2322263 .92544143 433.4146093 354.75056488)"/>
    <path style="display:inline;fill:#e93a3a;fill-opacity:.8;fill-rule:evenodd;stroke:none;stroke-width:.234808px;stroke-linecap:butt;stroke-linejoin:miter;stroke-opacity:1" d="M34.173093 25.196545C24.463951 16.696753 14.372786 7.8625215 3.5950524 3.0338636-7.1826815-1.7947943-26.377021-4.1366677-32.296509-2.2536828-38.215998-.37069802-52.284247 12.325304-49.906498 19.50462c2.377749 7.179317 16.702025 12.89327 31.013184 14.804909 14.3111587 1.911639 28.5875887.01743 37.430138-2.135773 8.84255-2.153202 12.240207-4.565772 15.636269-6.977211z" transform="matrix(-.8332464 .2029951 .2322263 .92544143 433.4146093 354.75056488)"/>
    <g style="display:inline">
      <path style="display:inline;fill:#761111;fill-opacity:.408511;fill-rule:evenodd;stroke:none;stroke-width:.382938px;stroke-linecap:butt;stroke-linejoin:miter;stroke-opacity:1" d="M121.13925-167.82785c-18.33191-8.02562-32.42001-.20443-38.39823 19.72759-5.978219 19.93202-3.843215 51.963585 7.369219 69.309592 11.212431 17.346007 31.492151 19.998827 48.754311 12.002626 17.26217-7.996201 31.49446-26.633677 27.33012-47.893288-4.16435-21.25961-26.72352-45.1209-45.05542-53.14652z" transform="matrix(-.80219619 .30327221 .31723191 .90009642 459.10139037 363.88884494)"/>
      <path style="display:inline;fill:url(#i);fill-opacity:1;fill-rule:evenodd;stroke:none;stroke-width:.282687px;stroke-linecap:butt;stroke-linejoin:miter;stroke-opacity:1" d="M110.48593-150.58155c-13.532744-5.92456-23.932673-.15091-28.345837 14.56303-4.413165 14.71395-2.837091 38.359875 5.440005 51.164815 8.277096 12.80494 23.247732 14.76327 35.990772 8.86042 12.74304-5.90285 23.24942-19.661161 20.17527-35.355145-3.07415-15.69399-19.72747-33.30855-33.26021-39.23312z" transform="matrix(-.80219619 .30327221 .31723191 .90009642 459.10139037 363.88884494)"/>
      <path style="fill:#761111;fill-opacity:.408511;fill-rule:evenodd;stroke:none;stroke-width:2.17039px;stroke-linecap:butt;stroke-linejoin:miter;stroke-opacity:1" d="M65.47497-150.66363c-2.58479-.006-7.373156 5.11293-8.90392 11.5377-1.530763 6.42476.195899 14.15225 2.780478 14.15652 2.58458.004 6.027602-7.71284 7.55861-14.13564 1.531008-6.42279 1.149622-11.55228-1.435168-11.55858z" transform="matrix(-.80219619 .30327221 .31723191 .90009642 459.10139037 363.88884494)"/>
      <path style="fill:#761111;fill-opacity:.408511;fill-rule:evenodd;stroke:none;stroke-width:2.33399px;stroke-linecap:butt;stroke-linejoin:miter;stroke-opacity:1" d="M89.500629-181.50453c13.782211 2.59027 35.282301 2.14412 37.128391-.06 1.84609-2.20411-15.56556-6.0581-28.164071-12.21042-12.598515-6.15231-19.01987-13.9221-23.805158-14.52059-4.785288-.59849-7.47262 5.67574-5.893811 12.36384 1.578808 6.6881 6.952436 11.83688 20.734649 14.42715z" transform="matrix(-.80219619 .30327221 .31723191 .90009642 459.10139037 363.88884494)"/>
      <path style="display:inline;fill:#fff;fill-opacity:1;fill-rule:evenodd;stroke:none;stroke-width:.146364px;stroke-linecap:butt;stroke-linejoin:miter;stroke-opacity:1" d="M110.83222-143.092c-7.00672-3.06751-12.391399-.0781-14.676366 7.54018-2.284967 7.61831-1.468938 19.86125 2.816618 26.49115 4.285558 6.6299 12.036778 7.64385 18.634618 4.58758 6.59785-3.05626 12.03765-10.17979 10.44598-18.30552-1.59168-8.12574-10.21412-17.24588-17.22085-20.31339z" transform="matrix(-.80219619 .30327221 .31723191 .90009642 459.10139037 363.88884494)"/>
    </g>
    <g style="display:inline">
      <path style="fill:#761111;fill-opacity:.408511;fill-rule:evenodd;stroke:none;stroke-width:2.04486px;stroke-linecap:butt;stroke-linejoin:miter;stroke-opacity:1" d="M-4.5084176-117.45819c-1.306654-5.59836-5.3604015-12.97854-10.4182644-16.90651-5.057862-3.92797-11.119662-4.40124-12.378201-1.05986-1.258539 3.34138 2.286302 10.4946 6.625391 16.32952 4.33909 5.83492 9.471448 10.35212 12.755458 10.70221 3.2840098.35009 4.7222703-3.46701 3.4156164-9.06536z" transform="matrix(-.8332464 .2029951 .2322263 .92544143 433.93384445 360.82877776)"/>
      <path style="fill:#761111;fill-opacity:.408511;fill-rule:evenodd;stroke:none;stroke-width:2.24493px;stroke-linecap:butt;stroke-linejoin:miter;stroke-opacity:1" d="M-13.844011-181.95413c-4.053382 7.60258-12.892658 14.05258-32.795439 17.23497-19.90278 3.18239-50.779632 3.08314-51.487166.0446-.707534-3.03857 28.761605-9.00756 48.284147-16.56057 19.522542-7.55301 29.029041-16.66748 34.163523-16.85876 5.134481-.19128 5.888317 8.53722 1.834935 16.1398z" transform="matrix(-.8332464 .2029951 .2322263 .92544143 433.93384445 360.82877776)"/>
      <path style="display:inline;fill:#761111;fill-opacity:.408511;fill-rule:evenodd;stroke:none;stroke-width:.346869px;stroke-linecap:butt;stroke-linejoin:miter;stroke-opacity:1" d="M-37.874733-132.02317c-12.660968-17.45298-35.761613-30.95374-62.439927-17.34483-26.67831 13.60891-56.92643 54.31875-53.67299 81.876234 3.25345 27.557483 40.01 41.955815 67.797269 39.051043 27.787264-2.904772 46.602241-23.112029 54.899827-43.91863 8.297586-20.806601 6.076789-42.210847-6.584179-59.663817z" transform="matrix(-.8332464 .2029951 .2322263 .92544143 433.93384445 360.82877776)"/>
      <path style="display:inline;fill:url(#j);fill-opacity:1;fill-rule:evenodd;stroke:none;stroke-width:.24928px;stroke-linecap:butt;stroke-linejoin:miter;stroke-opacity:1" d="M-35.411941-122.79726c-7.817045-12.44974-21.159009-21.78181-39.564286-12.5752-18.405276 9.20661-41.866893 36.944675-40.943313 57.846964.92357 20.902288 26.227638 34.959705 45.779929 33.539454 19.552291-1.420251 33.336509-18.319036 39.086513-34.55682 5.750003-16.237784 3.458202-31.804648-4.358843-44.254398z" transform="matrix(-.8332464 .2029951 .2322263 .92544143 433.93384445 360.82877776)"/>
      <path style="display:inline;fill:#fff;fill-opacity:1;fill-rule:evenodd;stroke:none;stroke-width:.132519px;stroke-linecap:butt;stroke-linejoin:miter;stroke-opacity:1" d="M-42.191272-119.11099c-4.155604-6.61839-11.248295-11.57939-21.032683-6.68508-9.784388 4.8943-22.256772 19.64008-21.765791 30.751896.490981 11.11182 13.942822 18.584854 24.336973 17.829837 10.394152-.755017 17.72195-9.738544 20.778697-18.370679 3.056747-8.632134 1.838408-16.907594-2.317196-23.525974z" transform="matrix(-.8332464 .2029951 .2322263 .92544143 433.93384445 360.82877776)"/>
    </g>
  </g>
  <path style="display:inline;fill:url(#k);fill-opacity:1;fill-rule:evenodd;stroke:none;stroke-width:.355902px;stroke-linecap:butt;stroke-linejoin:miter;stroke-opacity:0" d="M833.54538 605.11647c15.81598 14.64652 22.21586 35.60562 3.09047 47.38545-19.1254 11.77984-63.73892 14.35875-88.33583 2.59358-24.59691-11.76517-29.14242-37.86586-22.63551-53.80516 6.50692-15.9393 24.05705-21.69429 45.45132-20.41413 21.39427 1.28017 46.61357 9.59375 62.42955 24.24026z" transform="matrix(.86517821 0 0 1 0 -179.42181)"/>
  <path style="display:inline;fill:#4ab5e3;fill-rule:evenodd;stroke:none;stroke-width:3.21157px;stroke-linecap:butt;stroke-linejoin:miter;stroke-opacity:1" d="M239.10483 473.14842c-8.22276-14.91812-45.95608-22.15888-73.41377-13.02927s-44.62875 34.62696-36.40328 49.54551c8.22546 14.91856 41.84505 19.2543 69.29805 10.12497 27.45299-9.12933 48.74176-31.72308 40.519-46.64121z" transform="matrix(.86517821 0 0 1 0 -179.42181)"/>
</svg>
