<svg width="435.57495" height="388.27417" viewBox="0 0 908.34107 809.70065" xml:space="preserve" xmlns:xlink="http://www.w3.org/1999/xlink" xmlns="http://www.w3.org/2000/svg">
  <defs>
    <linearGradient id="e">
      <stop style="stop-color:#00000f;stop-opacity:1" offset="0"/>
      <stop style="stop-color:#6949f6;stop-opacity:0" offset="1"/>
    </linearGradient>
    <linearGradient id="d">
      <stop style="stop-color:#00000f;stop-opacity:1" offset="0"/>
      <stop style="stop-color:#6949f6;stop-opacity:0" offset="1"/>
    </linearGradient>
    <linearGradient id="c">
      <stop style="stop-color:#1c88b7;stop-opacity:1" offset="0"/>
      <stop style="stop-color:#a86bf8;stop-opacity:1" offset="1"/>
    </linearGradient>
    <linearGradient id="b">
      <stop style="stop-color:#a86bf8;stop-opacity:1" offset="0"/>
      <stop style="stop-color:#4ab5e3;stop-opacity:1" offset="1"/>
    </linearGradient>
    <linearGradient id="a">
      <stop style="stop-color:#4ab5e3;stop-opacity:1" offset="0"/>
      <stop style="stop-color:#a86bf8;stop-opacity:1" offset="1"/>
    </linearGradient>
    <linearGradient xlink:href="#a" id="f" x1="-35.226227" y1="-333.97803" x2="-25.068338" y2="-255.2402" gradientUnits="userSpaceOnUse" gradientTransform="matrix(.87039735 .07643091 -.02417877 .93986737 221.45167 -30.682073)"/>
    <linearGradient xlink:href="#b" id="g" x1="99.386841" y1="-220.6669" x2="106.82124" y2="-276.00986" gradientUnits="userSpaceOnUse" gradientTransform="matrix(1.3842346 -.275477 .24873947 1.5440436 -17.710638 125.1552)"/>
    <linearGradient xlink:href="#d" id="h" x1="153.1044" y1="-88.348274" x2="230.05362" y2="-29.456701" gradientUnits="userSpaceOnUse" gradientTransform="matrix(-.96443621 .09075913 .08579188 .91165262 367.34735 -3.5015215)"/>
    <linearGradient xlink:href="#e" id="i" x1="430.55627" y1="-84.220474" x2="376.0235" y2="-.14959636" gradientUnits="userSpaceOnUse" gradientTransform="matrix(.96443621 -.09075913 .08579188 .91165262 21.621064 29.033359)"/>
  </defs>
  <ellipse style="display:inline;opacity:1;fill:#838383;fill-opacity:1;stroke-width:8.34039" ry="37.311394" rx="352.71667" cy="548.89484" cx="398.98969"/>
  <g style="display:inline">
    <path style="fill:#a86bf8;fill-opacity:1;fill-rule:evenodd;stroke:none;stroke-width:.268381px;stroke-linecap:butt;stroke-linejoin:miter;stroke-opacity:1" d="M211.9724 81.90781c-14.11649-22.220554-23.33665-46.386915-34.06468-57.966279-10.72804-11.579365-22.96016-10.569641-32.436-1.861595-9.47584 8.708046-16.19498 25.10864-21.18945 47.678544-4.99448 22.569905-8.26031 51.28617 15.33387 64.79839s74.0361 11.81151 89.75766.82552c15.72156-10.98598-3.28492-31.25403-17.4014-53.47458z" transform="translate(144.85427 468.93919)"/>
    <path style="display:inline;fill:url(#f);fill-opacity:1;fill-rule:evenodd;stroke:none;stroke-width:.201119px;stroke-linecap:butt;stroke-linejoin:miter;stroke-opacity:1" d="M168.55151-269.13687c-7.57348-.53935-7.65876-2.47804-9.62578-19.65198-1.96701-17.17393-5.81516-49.57801 4.30399-79.04589 10.11915-29.46787 34.20363-55.98787 58.94529-61.23569 24.74167-5.24782 50.13458 10.7773 58.25599 25.20024 8.12142 14.42295-1.02802 27.23633-11.91037 25.893-10.88235-1.34333-23.49442-16.84756-37.57361-15.15036-14.0792 1.69719-29.62202 20.59493-33.98302 43.93363-4.36099 23.3387 2.46025 51.1054 9.28267 78.87691-15.06112.85976-30.12167 1.71948-37.69516 1.18014z" transform="translate(144.85427 468.93919)"/>
    <path style="display:inline;fill:#a86bf8;fill-opacity:1;fill-rule:evenodd;stroke:none;stroke-width:1.96404px;stroke-linecap:butt;stroke-linejoin:miter;stroke-opacity:1" d="M365.44516-138.49531c-12.76825-44.59667-50.46325-89.77418-95.60185-117.61183-45.13861-27.83765-97.71352-38.33351-159.40336-30.87856-61.689847 7.45495-132.452173 32.85156-175.603086 74.61519-43.150914 41.76364-58.622024 99.82867-44.459254 143.762226C-95.459629-24.674731-51.669964 5.0953671 1.0920292 20.390134 53.854022 35.6849 115.53409 36.493417 175.83759 29.700778c60.3035-6.792639 119.16935-21.180974 154.6954-50.388668 35.52606-29.207694 47.68043-73.210753 34.91217-117.80742z" transform="translate(144.85427 468.93919)"/>
    <path style="display:inline;fill:url(#g);fill-opacity:1;fill-rule:evenodd;stroke:none;stroke-width:.264451px;stroke-linecap:butt;stroke-linejoin:miter;stroke-opacity:1" d="M4.7594054-261.94643c-8.714215-20.17818-20.3938554-56.85117-14.9894334-92.637 5.4044226-35.78582 27.888913-70.66293 54.539071-80.17864 26.650159-9.51571 57.445257 6.34124 66.900667 21.05778 9.45541 14.71655-2.42919 28.27766-16.462797 26.53725-14.033605-1.74041-30.191934-18.78178-42.960106-11.22639-12.768172 7.55539-22.128183 39.70172-16.870741 67.96382 5.257441 28.2621 25.129521 52.62413 25.906801 67.97906.777279 15.35493-17.535739 21.69601-29.569674 23.02783-12.033935 1.33182-17.779573-2.34554-26.4937876-22.52371z" transform="translate(144.85427 468.93919)"/>
    <path style="display:inline;fill:#761111;fill-opacity:.408511;fill-rule:evenodd;stroke:none;stroke-width:.402204px;stroke-linecap:butt;stroke-linejoin:miter;stroke-opacity:1" d="M249.97599-116.10528c-12.19286-14.75135-37.28978-19.6215-65.71751-2.23911-28.42773 17.38238-60.17838 57.007911-53.75814 82.159114 6.42024 25.151203 51.00614 35.82045152 79.07972 30.7553241C237.65363-10.495079 249.1961-31.28903 255.32635-54.007159c6.13026-22.71813 6.84249-47.346781-5.35036-62.098121z" transform="matrix(1.1372195 -.25838057 .25861098 1.0658739 -20.57829 470.4052825)"/>
    <path style="display:inline;fill:url(#h);fill-opacity:1;fill-rule:evenodd;stroke:none;stroke-width:.300566px;stroke-linecap:butt;stroke-linejoin:miter;stroke-opacity:1" d="M242.78329-97.707345c-9.45046-12.542245-27.28451-17.324185-46.56566-4.341335-19.28116 12.982847-40.0007 43.720433-37.02195 63.425526 2.97875 19.705093 29.65312 28.369477 49.46692 25.540233 19.8138-2.829245 32.75377-17.152891 38.69435-34.467761 5.94057-17.314869 4.8768-37.614418-4.57366-50.156663z" transform="matrix(1.1372195 -.25838057 .25861098 1.0658739 -20.57829 470.4052825)"/>
    <path style="display:inline;fill:#fff;fill-opacity:1;fill-rule:evenodd;stroke:none;stroke-width:.135593px;stroke-linecap:butt;stroke-linejoin:miter;stroke-opacity:1" d="M237.15952-78.420494c-3.4793-6.058353-9.42445-10.593036-16.33114-6.602568-6.90669 3.990467-14.77009 16.499296-13.97814 25.438365.79194 8.93907 10.2371 14.302485 17.65071 14.105533 7.41362-.196953 12.78667-5.956317 14.96892-12.629136 2.18226-6.67282 1.16894-14.25384-2.31035-20.312194z" transform="matrix(1.1372195 -.25838057 .25861098 1.0658739 -20.57829 470.4052825)"/>
    <path style="display:inline;fill:#761111;fill-opacity:.407843;fill-rule:evenodd;stroke:none;stroke-width:2.21364px;stroke-linecap:butt;stroke-linejoin:miter;stroke-opacity:1" d="M280.96927-82.760059c4.01806 4.09063 9.45122 7.06575 12.31432 5.340847 2.8631-1.724902 3.15649-8.15193-.15489-13.582495-3.31138-5.430564-10.23048-9.863773-14.39304-10.739393-4.16255-.87561-5.56962 1.805304-4.9741 5.748678.59551 3.943375 3.18965 9.141733 7.20771 13.232363z" transform="matrix(1.1372195 -.25838057 .25861098 1.0658739 -20.57829 470.4052825)"/>
    <path style="display:inline;fill:#761111;fill-opacity:.407843;fill-rule:evenodd;stroke:none;stroke-width:1.73669px;stroke-linecap:butt;stroke-linejoin:miter;stroke-opacity:1" d="M286.58731-160.24178c1.44178-3.81233-3.44914-8.29063-9.65049-8.21493-6.20134.0757-13.69889 4.70742-27.7421 10.09936-14.0432 5.39194-34.61925 11.53834-32.30893 13.03295 2.31032 1.4946 27.50873-1.66294 43.99846-4.81353 16.48973-3.15058 24.26127-6.29151 25.70306-10.10385z" transform="matrix(1.1372195 -.25838057 .25861098 1.0658739 -20.57829 470.4052825)"/>
    <g style="display:inline">
      <path style="display:inline;fill:#761111;fill-opacity:.408511;fill-rule:evenodd;stroke:none;stroke-width:.333695px;stroke-linecap:butt;stroke-linejoin:miter;stroke-opacity:1" d="M393.96495-126.04336c8.50816-11.77986 28.05757-11.93828 49.50579 2.04184 21.44823 13.98012 44.76843 42.076774 40.94948 66.506064-3.81894 24.429291-34.77726 45.172176-54.95329 42.895147-20.17604-2.277029-29.55274-27.568747-35.51268-51.919747-5.95993-24.351001-8.49746-47.743444.0107-59.523304z" transform="matrix(1.0828785 .0791661 -.07951555 1.0794471 -65.17747 381.258443)"/>
      <path style="display:inline;fill:url(#i);fill-opacity:1;fill-rule:evenodd;stroke:none;stroke-width:.266831px;stroke-linecap:butt;stroke-linejoin:miter;stroke-opacity:1" d="M396.02502-111.36721c7.01845-9.64108 21.97889-9.98381 38.53868.62382 16.55979 10.60762 34.70536 32.158777 32.32606 50.400862-2.3793 18.242085-25.27716 33.164903-41.373 32.025932-16.09584-1.138972-25.37284-18.335158-30.47813-36.407645-5.10529-18.072486-6.03205-37.001899.98639-46.642969z" transform="matrix(1.0828785 .0791661 -.07951555 1.0794471 -65.17747 381.258443)"/>
      <path style="display:inline;fill:#fff;fill-opacity:1;fill-rule:evenodd;stroke:none;stroke-width:.126482px;stroke-linecap:butt;stroke-linejoin:miter;stroke-opacity:1" d="M416.31961-100.19145c4.00367-2.74432 12.16999-1.00468 18.49273 3.857847 6.32273 4.862527 10.78983 12.840021 9.50399 18.480957-1.28585 5.640936-8.32087 8.941117-14.55935 7.692642-6.23848-1.248476-11.67319-7.042074-14.47487-13.553448-2.80167-6.511374-2.96618-13.733676 1.0375-16.477998z" transform="matrix(1.0828785 .0791661 -.07951555 1.0794471 -65.17747 381.258443)"/>
      <path style="display:inline;fill:#761111;fill-opacity:.407843;fill-rule:evenodd;stroke:none;stroke-width:2.30928px;stroke-linecap:butt;stroke-linejoin:miter;stroke-opacity:1" d="M362.54744-93.995278c-1.50102-2.29014-1.62989-7.452092-.63388-11.391652.99601-3.93955 3.1167-6.6519 5.73073-7.41741 2.61403-.76551 5.72035.41517 6.17249 4.02311s-1.80279 9.799662-4.35032 13.146763c-2.54752 3.347102-5.418 3.929329-6.91902 1.639189z" transform="matrix(1.0828785 .0791661 -.07951555 1.0794471 -65.17747 381.258443)"/>
      <path style="display:inline;fill:#f19ed1;fill-opacity:.8;fill-rule:evenodd;stroke:none;stroke-width:1.57298px;stroke-linecap:butt;stroke-linejoin:miter;stroke-opacity:1" d="M451.47632-7.2375449c7.63891-7.5640121 21.56541-16.8586761 32.64274-17.8879721 11.07732-1.029295 19.27045 6.17917 18.05857 12.066563-1.21188 5.8873926-11.79817 10.354959-23.56064 14.3028195-11.76247 3.9478605-24.61828 7.3449359-30.37527 6.1296776-5.757-1.2152584-4.40431-7.04707558 3.2346-14.611088z" transform="matrix(1.0828785 .0791661 -.07951555 1.0794471 -65.17747 381.258443)"/>
      <path style="display:inline;fill:#761111;fill-opacity:.407843;fill-rule:evenodd;stroke:none;stroke-width:1.81173px;stroke-linecap:butt;stroke-linejoin:miter;stroke-opacity:.407843" d="M365.27283-175.82708c6.44849.65932 13.90195 4.75389 25.58785 9.05961 11.68591 4.30572 27.57463 8.81213 25.98148 10.76222-1.59315 1.95008-20.66409 1.34023-35.06323-1.57306-14.39914-2.91328-24.10525-8.12888-26.24408-12.12784-2.13882-3.99896 3.2895-6.78025 9.73798-6.12093z" transform="matrix(1.0828785 .0791661 -.07951555 1.0794471 -65.17747 381.258443)"/>
    </g>
    <path style="display:inline;fill:#f19ed1;fill-opacity:.8;fill-rule:evenodd;stroke:none;stroke-width:2.69922px;stroke-linecap:butt;stroke-linejoin:miter;stroke-opacity:1" d="M-13.400206-48.924862c-17.241265-2.422646-26.850496 5.058474-25.283884 11.732908 1.566612 6.674435 14.307121 12.538807 27.828159 16.361527 13.5210376 3.822719 27.816087 5.60115 38.679651 5.091884 10.863564-.509265 18.295256-3.307435 9.581826-10.8727-8.713429-7.565265-33.564488-19.890974-50.805752-22.313619z" transform="translate(144.85427 468.93919)"/>
    <path style="fill:#000;fill-rule:evenodd;stroke:none;stroke-width:2.08538px;stroke-linecap:butt;stroke-linejoin:miter;stroke-opacity:1" d="M137.34952-35.594495c-2.27604-10.857612 14.1347-27.902719 27.35137-37.297791 13.21668-9.395071 23.23623-11.138924 33.5814-4.597737 10.34518 6.541187 21.01488 21.364269 18.27922 33.092206-2.73565 11.727937-18.8756 20.363014-37.42564 22.34654-18.55004 1.983525-39.51031-2.685607-41.78635-13.543218z" transform="translate(144.85427 468.93919)"/>
    <path style="display:inline;fill:#e93a3a;fill-rule:evenodd;stroke:none;stroke-width:2.08538px;stroke-linecap:butt;stroke-linejoin:miter;stroke-opacity:1" d="M144.64603-26.747888c-7.52406-3.630196-7.89478-7.025966-3.34411-11.197985 4.55066-4.172019 14.01805-9.114853 24.39426-11.783919 10.3762-2.669066 21.6558-3.062868 30.26629-1.849289 8.61049 1.213579 14.55222 4.032753 20.49568 6.852753-.328 3.042333-.65592 6.083891-6.48252 10.97763-5.8266 4.893739-17.13266 11.626763-30.12897 13.062985-12.99631 1.436222-27.67656-2.43198-35.20063-6.062175z" transform="translate(144.85427 468.93919)"/>
    <path style="fill:#def86b;fill-rule:evenodd;stroke:none;stroke-width:2.42903px;stroke-linecap:butt;stroke-linejoin:miter;stroke-opacity:1" d="M-102.05281-365.90833c3.918539-7.06563 22.40186 11.88166 45.37561 32.03052 22.97375 20.14885 50.4244782 41.48861 77.354685 49.81922 26.930207 8.33061 53.331467 3.65 63.669818 5.06712 10.33835 1.41712 4.618845 8.92786-5.041618 15.33531-9.660464 6.40744-23.240877 11.6965-37.312621 12.66275-14.071743.96625-28.626338-2.39516-41.84288905-7.86644C-13.066376-264.33113-24.945291-271.91427-36.821875-279.49593c10.094512 19.52855 20.073873 38.83433 34.6365843 49.35571 14.5627117 10.52139 33.0441597 11.78318 36.4438167 16.73517 3.399656 4.95198-10.791452 15.24574-21.851393 16.68031-11.0599406 1.43457-29.567408-4.62161-41.706202-15.89466-12.138794-11.27305-20.901113-28.74574-29.66234-46.21625-5.078516 24.57516-10.156824 49.14932-25.939529 66.45664-15.782702 17.30732-42.270392 27.34616-53.328452 26.16779-11.05805-1.17837-6.69632-13.54318 1.60331-21.56253s20.45268-11.61085 29.5901-20.45177c9.137423-8.84093 15.238439-22.92321 18.461731-37.88506 3.223292-14.96185 3.559775-30.75513-1.595007-55.2014-5.154782-24.44626-15.802084-57.53073-11.883554-64.59635z" transform="translate(144.85427 468.93919)"/>
    <path style="fill:#e38d4a;fill-rule:evenodd;stroke:none;stroke-width:2.08538px;stroke-linecap:butt;stroke-linejoin:miter;stroke-opacity:1" d="M-103.4374-362.86716c4.584278 3.38853 8.31882 1.5187 8.069964-4.18938-.248855-5.70808-4.479862-15.25283-9.066294-18.64543-4.58643-3.39259-9.52762-.62758-14.4681 2.13705 5.43836 8.65189 10.88015 17.30922 15.46443 20.69776z" transform="translate(144.85427 468.93919)"/>
  </g>
  <path style="opacity:1;fill:#b5b5b5;fill-opacity:1;stroke-width:6.62723" d="M467.96735 553.90308h625.82294v202.93599H467.96735z" transform="translate(-378.56995 52.520618)"/>
  <path style="opacity:1;fill:#838383;stroke-width:6.86984" d="M583.86673 621.2211c.13773-10.96169 28.41616-26.44716 29.73769 2.78863l6.01199 133.00111h-37.45578z" transform="translate(-378.56995 52.520618)"/>
  <path style="opacity:1;fill:#838383;stroke-width:6.90035" d="M923.47562 618.03221c.0395-22.48867 36.73119-27.8408 37.11447 2.74879l1.7061 136.16454h-39.0643z" transform="translate(-378.56995 52.520618)"/>
  <path style="opacity:1;fill:#838383;stroke-width:6.70544" d="M735.38333 611.7889c.21301-18.15217 45.31881-23.00664 46.47193 4.83028l5.82262 140.56093h-54.00065z" transform="translate(-378.56995 52.520618)"/>
  <path style="opacity:1;fill:#9d9d9d;stroke-width:7.88177" d="M424.21116 494.82667s39.38436 10.99276 92.01361 14.8053c75.13463 5.44285 178.9187 15.42406 245.04189 15.58528 85.13706.20758 216.6466-3.05707 297.98174-12.01473 36.0858-3.97423 71.0482-18.3652 71.0482-18.3652s12.8057 42.48277 1.2638 57.99749c-14.6114 19.64072-48.2653 22.69433-72.4072 26.74637-98.3951 16.51487-197.33399 12.69008-297.0996 11.60966-84.89518-.91938-167.49718-2.46099-251.51795-14.64896-27.51873-3.99184-65.97583-2.5083-83.97104-23.70707-12.52367-14.75316-2.35345-58.00814-2.35345-58.00814z" transform="translate(-378.56994094 52.520618)"/>
  <path style="display:inline;fill:#4ab5e3;fill-rule:evenodd;stroke:none;stroke-width:3.26718px;stroke-linecap:butt;stroke-linejoin:miter;stroke-opacity:1" d="M241.28259 553.75389c-28.16852-8.81053-64.35023-.55647-74.10377 15.34237-9.75353 15.89884 7.08258 39.66633 35.24218 48.47403 28.1596 8.80771 67.75851 2.76848 77.47156-13.18349 9.71306-15.95198-10.44146-41.82239-38.60997-50.63291z"/>
  <path style="display:inline;fill:#4ab5e3;fill-rule:evenodd;stroke:none;stroke-width:2.18704px;stroke-linecap:butt;stroke-linejoin:miter;stroke-opacity:1" d="M462.33911 572.66012c2.91029-14.70209 23.28501-23.01495 43.50753-21.96392 20.22252 1.05103 40.29046 11.46376 49.86397 23.97254 9.57351 12.50877 8.65376 27.1312-4.21612 36.61116-12.86989 9.47995-37.98853 13.88108-57.75057 5.52567-19.76204-8.35541-34.3151-29.44335-31.40481-44.14545z"/>
  <path style="fill:#def86b;fill-rule:evenodd;stroke:none;stroke-width:2.08538px;stroke-linecap:butt;stroke-linejoin:miter;stroke-opacity:1" d="M663.49569 217.26407c11.1977-26.23787 97.4957-191.67603 97.4957-191.67603l124.9887 83.19099z"/>
  <path style="fill:#def86b;fill-opacity:1;fill-rule:evenodd;stroke:none;stroke-width:2.08538px;stroke-linecap:butt;stroke-linejoin:miter;stroke-opacity:1" d="M661.23969 254.63435c39.6201-10.15817 247.1013-3.52074 247.1013-3.52074l-33.6454 119.99846zM627.75279 211.11017C625.03259 196.55738 647.80729 0 647.80729 0L524.48531 47.600498Z"/>
</svg>
