<svg width="701.2149" height="385.57977" viewBox="0 0 1462.3024 804.0818" xml:space="preserve" xmlns:xlink="http://www.w3.org/1999/xlink" xmlns="http://www.w3.org/2000/svg">
  <defs>
    <linearGradient id="g">
      <stop style="stop-color:#00000f;stop-opacity:1" offset="0"/>
      <stop style="stop-color:#6949f6;stop-opacity:0" offset="1"/>
    </linearGradient>
    <linearGradient id="f">
      <stop style="stop-color:#4ab5e3;stop-opacity:1" offset="0"/>
      <stop style="stop-color:#a86bf8;stop-opacity:1" offset="1"/>
    </linearGradient>
    <linearGradient id="e">
      <stop style="stop-color:#00000f;stop-opacity:1" offset="0"/>
      <stop style="stop-color:#6949f6;stop-opacity:0" offset="1"/>
    </linearGradient>
    <linearGradient id="d">
      <stop style="stop-color:#1c88b7;stop-opacity:1" offset="0"/>
      <stop style="stop-color:#a86bf8;stop-opacity:1" offset="1"/>
    </linearGradient>
    <linearGradient id="c">
      <stop style="stop-color:#a86bf8;stop-opacity:1" offset="0"/>
      <stop style="stop-color:#4ab5e3;stop-opacity:1" offset="1"/>
    </linearGradient>
    <linearGradient id="b">
      <stop style="stop-color:#4ab5e3;stop-opacity:1" offset="0"/>
      <stop style="stop-color:#a86bf8;stop-opacity:1" offset="1"/>
    </linearGradient>
    <linearGradient id="n" gradientTransform="matrix(1941.7617 0 0 1980.2315 305.83586 260.64491)">
      <stop style="stop-color:#f19ed1;stop-opacity:1" offset="0"/>
    </linearGradient>
    <linearGradient id="a">
      <stop style="stop-color:#4ab5e3;stop-opacity:1" offset="0"/>
      <stop style="stop-color:#a86bf8;stop-opacity:1" offset="1"/>
    </linearGradient>
    <linearGradient xlink:href="#a" id="h" x1="-53.629868" y1="38.015057" x2="37.021606" y2="153.43579" gradientUnits="userSpaceOnUse" gradientTransform="matrix(1.4027185 -.21252523 1.339828 1.2581913 -38.850221 -27.166737)"/>
    <linearGradient xlink:href="#b" id="i" x1="52.152649" y1="-384.12872" x2="-28.379072" y2="-222.69716" gradientUnits="userSpaceOnUse" gradientTransform="matrix(-.96374695 .08871017 .04151533 .9394324 163.90399 25.637005)"/>
    <linearGradient xlink:href="#c" id="j" x1="99.386841" y1="-220.6669" x2="116.75085" y2="-288.37659" gradientUnits="userSpaceOnUse" gradientTransform="matrix(-1.4233938 -.21108695 -.21215261 1.3308055 433.44961 125.60987)"/>
    <linearGradient xlink:href="#e" id="k" x1="135.61697" y1="-115.25445" x2="244.30234" y2="13.831069" gradientUnits="userSpaceOnUse" gradientTransform="matrix(-.96443621 .09075913 .08579188 .91165262 367.34735 -3.5015215)"/>
    <linearGradient xlink:href="#f" id="m" x1="59.777023" y1="196.68698" x2="-270.77835" y2="259.31091" gradientUnits="userSpaceOnUse" gradientTransform="matrix(.8275202 .7076407 -.75658924 .83972072 617.15761 73.546695)"/>
    <linearGradient xlink:href="#g" id="l" x1="439.33218" y1="-113.01487" x2="394.73721" y2="38.978966" gradientUnits="userSpaceOnUse" gradientTransform="matrix(.96443621 -.09075913 .08579188 .91165262 21.621064 29.033359)"/>
  </defs>
  <g style="display:inline">
    <path style="display:inline;fill:url(#h);fill-opacity:1;fill-rule:evenodd;stroke:none;stroke-width:.378792px;stroke-linecap:butt;stroke-linejoin:miter;stroke-opacity:0" d="M197.30383 116.75375c4.00206 13.94787-7.75717 29.52478-16.99317 36.91939-9.23599 7.3946-15.94886 6.6042-36.06031 12.54967-20.11144 5.94548-53.60021 18.62023-77.21562 20.97385-23.615409 2.35362-37.335577-5.61914-52.822689-25.97968-15.4871112-20.36053-32.731521-53.1001-47.389277-78.104431-14.657756-25.004328-26.724988-42.266164-24.878239-62.786077 1.846749-20.51991269 17.605667-44.281295 30.551863-37.829657 12.946196 6.451638 23.0659541 43.11023 36.5546514 73.660112C22.539737 86.706809 39.388648 111.13038 64.073354 113.78058c24.684706 2.65021 57.173046-16.465516 83.322386-19.873169 26.14933-3.407652 45.90603 8.898469 49.90809 22.846339z" transform="translate(523.42421 417.48907)"/>
    <path style="fill:#a86bf8;fill-opacity:1;fill-rule:evenodd;stroke:none;stroke-width:.268381px;stroke-linecap:butt;stroke-linejoin:miter;stroke-opacity:1" d="M168.27593 142.09974c16.79044-31.6143 34.86385-61.523456 50.63797-65.066273 15.77412-3.542817 29.23793 19.274003 37.88984 46.886293 8.6519 27.61229 12.48345 59.98939 19.22943 88.60526 6.74597 28.61588 16.40203 53.45191 48.15673 81.83494 31.75469 28.38302 85.59871 60.30661 139.44716 92.23284l-351.0668-2.13206c2.63327-48.03556 5.26631-96.0669 14.33697-136.74691 9.07066-40.68002 24.57826-73.99978 41.3687-105.61409z" transform="translate(523.42421 417.48907)"/>
    <path style="display:inline;fill:#a86bf8;fill-opacity:1;fill-rule:evenodd;stroke:none;stroke-width:1.96404px;stroke-linecap:butt;stroke-linejoin:miter;stroke-opacity:1" d="M16.81638-72.40221c12.664358-41.99441 48.99809-92.64037 96.68426-123.5451 47.68617-30.90474 106.72307-42.06752 169.72647-33.64397 63.00341 8.42355 129.94931 36.42253 170.39778 78.99726 40.44846 42.57473 54.34463 99.662005 41.90339 141.0460035C483.08705 31.835982 444.3103 57.489277 391.75334 72.064378 339.19638 86.639479 272.89386 90.12786 209.65692 82.314296 146.41997 74.500732 86.303741 55.39142 50.729306 29.160656 15.154872 2.9298914 4.1520219-30.407797 16.81638-72.40221Z" transform="translate(523.42421 417.48907)"/>
    <path style="display:inline;fill:#f19ed1;fill-opacity:.8;fill-rule:evenodd;stroke:none;stroke-width:1.70522px;stroke-linecap:butt;stroke-linejoin:miter;stroke-opacity:1" d="M95.119447-8.4731263c-9.52241-8.7918807-25.46669-17.4982687-37.546024-17.5618827-12.079333-.063615-20.258493 8.482471-18.389858 14.715907C41.052201-5.0856655 52.926181-1.2684739 66.566719 3.2362985 80.207258 7.7410708 95.519797 12.90257 101.63169 11.048326c6.11189-1.8542442 3.01017-10.7295714-6.512243-19.5214523Z" transform="translate(523.42421 417.48907)"/>
    <path style="display:inline;fill:url(#i);fill-opacity:1;fill-rule:evenodd;stroke:none;stroke-width:.211771px;stroke-linecap:butt;stroke-linejoin:miter;stroke-opacity:1" d="M219.79757-213.66695c7.40837-.52004 7.47257-2.45974 11.46627-20.95216 3.99369-18.49242 11.91565-53.53201.23656-82.85396-11.67909-29.32194-42.95916-52.91559-71.43634-54.31284-28.47719-1.39724-54.14781 19.4016-59.99926 36.68491-5.851459 17.28331 8.11242 31.04575 19.04053 27.34059 10.9281-3.70516 18.81618-24.88101 34.47615-27.18654 15.65997-2.30553 39.09032 14.26043 45.26902 37.40835 6.1787 23.14792-4.89269 52.86835-15.96564 82.59295 14.75229.89938 29.50435 1.79875 36.91271 1.2787z" transform="translate(523.42421 417.48907)"/>
    <path style="display:inline;fill:url(#j);fill-opacity:1;fill-rule:evenodd;stroke:none;stroke-width:.247943px;stroke-linecap:butt;stroke-linejoin:miter;stroke-opacity:1" d="M387.67041-194.19401c.25681-1.05612.77048-3.16857 7.21404-19.65923 6.44355-16.49066 18.81524-47.35509 15.94231-81.90431-2.87294-34.54922-20.9903-72.76719-49.92564-82.30529s-68.67301 9.61395-81.25772 25.4383c-12.58471 15.82436 1.98229 28.31223 17.3452 26.49513 15.36292-1.81709 31.50095-17.93186 45.97604-14.32106 14.47509 3.6108 27.27493 26.95666 25.54294 53.51114-1.73198 26.55449-17.99163 56.30775-34.25367 86.06537 17.7199 2.57869 35.43837 5.15718 44.29903 6.44663 8.86067 1.28945 8.86066 1.28945 9.11747.23332z" transform="translate(523.42421 417.48907)"/>
    <path style="display:inline;fill:#761111;fill-opacity:.408511;fill-rule:evenodd;stroke:none;stroke-width:.402204px;stroke-linecap:butt;stroke-linejoin:miter;stroke-opacity:1" d="M250.70183-115.74268c-12.9187-15.11395-38.01562-19.9841-66.44335-2.60171-28.42773 17.38238-60.17838 57.007911-53.48847 83.194851 6.6899 26.1869406 51.81497 38.9272092 80.61374 34.22590791C240.18252-5.6249323 252.63855-27.767437 258.49917-51.521163c5.86061-23.753726 5.12137-49.107567-7.79734-64.221517z" transform="matrix(-1.1407536 -.24230138 -.24353891 1.0694184 1072.12843 470.436709)"/>
    <path style="display:inline;fill:url(#k);fill-opacity:1;fill-rule:evenodd;stroke:none;stroke-width:.300566px;stroke-linecap:butt;stroke-linejoin:miter;stroke-opacity:1" d="M242.78329-97.707345c-9.45046-12.542245-27.28451-17.324185-46.56566-4.341335-19.28116 12.982847-40.0007 43.720433-37.02195 63.425526 2.97875 19.705093 29.65312 28.369477 49.46692 25.540233 19.8138-2.829245 32.75377-17.152891 38.69435-34.467761 5.94057-17.314869 4.8768-37.614418-4.57366-50.156663z" transform="matrix(-1.1407536 -.24230138 -.24353891 1.0694184 1072.12843 470.436709)"/>
    <path style="display:inline;fill:#fff;fill-opacity:1;fill-rule:evenodd;stroke:none;stroke-width:.135593px;stroke-linecap:butt;stroke-linejoin:miter;stroke-opacity:1" d="M237.15952-78.420494c-3.4793-6.058353-9.42445-10.593036-16.33114-6.602568-6.90669 3.990467-14.77009 16.499296-13.97814 25.438365.79194 8.93907 10.2371 14.302485 17.65071 14.105533 7.41362-.196953 12.78667-5.956317 14.96892-12.629136 2.18226-6.67282 1.16894-14.25384-2.31035-20.312194z" transform="matrix(-1.1407536 -.24230138 -.24353891 1.0694184 1072.12843 470.436709)"/>
    <path style="display:inline;fill:#761111;fill-opacity:.407843;fill-rule:evenodd;stroke:none;stroke-width:2.21364px;stroke-linecap:butt;stroke-linejoin:miter;stroke-opacity:1" d="M278.36754-84.359492c4.01806 4.09063 9.45122 7.06575 12.31432 5.340847 2.8631-1.724902 3.15649-8.15193-.15489-13.582496-3.31138-5.430565-10.23048-9.863779-14.39304-10.739389-4.16255-.87562-5.56962 1.8053-4.9741 5.748674.59551 3.943376 3.18965 9.141734 7.20771 13.232364z" transform="matrix(-1.1407536 -.24230138 -.24353891 1.0694184 1072.12843 470.436709)"/>
    <path style="display:inline;fill:#761111;fill-opacity:.407843;fill-rule:evenodd;stroke:none;stroke-width:1.73669px;stroke-linecap:butt;stroke-linejoin:miter;stroke-opacity:1" d="M282.27004-152.25069c4.73672-1.65389-.41462-7.51684-9.11284-10.38159-8.69822-2.86476-20.9377-2.73069-34.72294 1.43-13.78525 4.16069-29.11027 12.34521-27.72566 13.93197 1.38461 1.58676 19.47988-3.4246 35.84061-4.65312 16.36072-1.22852 30.98411 1.32663 35.72083-.32726z" transform="matrix(-1.1407536 -.24230138 -.24353891 1.0694184 1072.12843 470.436709)"/>
    <g style="display:inline">
      <path style="display:inline;fill:#761111;fill-opacity:.408511;fill-rule:evenodd;stroke:none;stroke-width:.333695px;stroke-linecap:butt;stroke-linejoin:miter;stroke-opacity:1" d="M393.9911-127.6115c8.53432-13.34799 28.13635-16.64187 50.82139-2.64562 22.68503 13.99625 48.43704 45.275478 44.59143 71.272528-3.84562 25.99705-37.28195 46.700616-58.69749 44.403935-21.41554-2.296681-30.79224-27.588399-36.75218-51.939399-5.95993-24.351001-8.49746-47.743444.0369-61.091444z" transform="matrix(-1.0816531 .09444456 .09474553 1.0782171 1115.46474 380.669172)"/>
      <path style="display:inline;fill:url(#l);fill-opacity:1;fill-rule:evenodd;stroke:none;stroke-width:.266831px;stroke-linecap:butt;stroke-linejoin:miter;stroke-opacity:1" d="M396.02502-111.36721c7.01845-9.64108 21.97889-9.98381 38.53868.62382 16.55979 10.60762 34.70536 32.158777 32.32606 50.400862-2.3793 18.242085-25.27716 33.164903-41.373 32.025932-16.09584-1.138972-25.37284-18.335158-30.47813-36.407645-5.10529-18.072486-6.03205-37.001899.98639-46.642969z" transform="matrix(-1.0816531 .09444456 .09474553 1.0782171 1115.46474 380.669172)"/>
      <path style="display:inline;fill:#fff;fill-opacity:1;fill-rule:evenodd;stroke:none;stroke-width:.126482px;stroke-linecap:butt;stroke-linejoin:miter;stroke-opacity:1" d="M416.31961-100.19145c4.00367-2.74432 12.16999-1.00468 18.49273 3.857847 6.32273 4.862527 10.78983 12.840021 9.50399 18.480957-1.28585 5.640936-8.32087 8.941117-14.55935 7.692642-6.23848-1.248476-11.67319-7.042074-14.47487-13.553448-2.80167-6.511374-2.96618-13.733676 1.0375-16.477998z" transform="matrix(-1.0816531 .09444456 .09474553 1.0782171 1115.46474 380.669172)"/>
      <path style="display:inline;fill:#761111;fill-opacity:.407843;fill-rule:evenodd;stroke:none;stroke-width:2.30928px;stroke-linecap:butt;stroke-linejoin:miter;stroke-opacity:1" d="M361.99378-94.304906c-1.50102-2.29014-1.62989-7.452104-.63388-11.391664.99601-3.93955 3.1167-6.6519 5.73073-7.41741 2.61403-.76551 5.72035.41517 6.17249 4.02311s-1.8028 9.799673-4.35032 13.146775c-2.54752 3.347102-5.418 3.929329-6.91902 1.639189z" transform="matrix(-1.0816531 .09444456 .09474553 1.0782171 1115.46474 380.669172)"/>
      <path style="display:inline;fill:#761111;fill-opacity:.407843;fill-rule:evenodd;stroke:none;stroke-width:1.81173px;stroke-linecap:butt;stroke-linejoin:miter;stroke-opacity:.407843" d="M376.2349-171.69242c7.05791-2.45138 16.37569-3.02339 26.43684.33085 10.06115 3.35424 20.86334 10.63499 21.22499 12.62402.36166 1.98903-9.71607-1.31386-22.17604-2.50361s-27.29908-.26649-32.32036-1.96865c-5.02129-1.70216-.22334-6.03122 6.83457-8.48261z" transform="matrix(-1.0816531 .09444456 .09474553 1.0782171 1115.46474 380.669172)"/>
    </g>
    <path style="display:inline;fill:#f19ed1;fill-opacity:.8;fill-rule:evenodd;stroke:none;stroke-width:2.69922px;stroke-linecap:butt;stroke-linejoin:miter;stroke-opacity:1" d="M409.11215 2.2789374c18.39754-4.4597277 28.7741 1.9145666 31.72085 7.7778456 2.94675 5.863278-1.53678 11.212211-9.2632 15.267751-7.72642 4.055541-18.69163 6.81514-30.49781 9.72482-11.80619 2.909679-24.44947 5.968456-35.11444 6.373254-10.66497.404798-19.35277-1.845326-10.49523-10.619414 8.85753-8.774088 35.2523-24.064529 53.64983-28.5242566z" transform="translate(523.42421 417.48907)"/>
    <path style="display:inline;fill:url(#m);fill-opacity:1;fill-rule:evenodd;stroke:none;stroke-width:2.31306px;stroke-linecap:butt;stroke-linejoin:miter;stroke-opacity:1" d="M241.52056 142.73712c-2.92629-8.65105-.66277-21.46267 5.91397-29.32827 6.57674-7.8656 17.44777-10.78584 30.31483-8.68994 12.86707 2.09589 27.62189 9.18714 47.60408 29.30041 19.98218 20.11327 45.13845 53.20664 73.19529 73.84912 28.05684 20.64249 58.95813 28.79995 83.41793 31.17487 24.4598 2.37491 42.41268-1.03888 47.27606 6.8403 4.86338 7.87917-3.37362 27.04098-33.2577 36.40455-29.88408 9.36358-81.38873 8.91982-124.2231-13.03489-42.83438-21.95471-76.94549-65.3903-98.07409-89.37835-21.12861-23.98805-29.24099-28.48674-32.16727-37.1378z" transform="translate(523.42421 417.48907)"/>
    <path style="fill:#6f00d4;fill-opacity:1;fill-rule:evenodd;stroke:none;stroke-width:1.39458px;stroke-linecap:butt;stroke-linejoin:miter;stroke-opacity:1" d="M172.4075-5.1061234c1.32057-.2768092 2.14759 4.84861747 7.26026 8.9975025 5.11267 4.148885 14.50126 7.3181089 22.27765 8.3586729 7.77639 1.040563 13.92458-.04816 19.97363-2.7983269 6.04906-2.7501665 11.98435-7.1555644 15.65317-11.7922244s5.07078-9.5053337 6.87561-9.6387567c1.80483-.133424 4.00851 4.4646218-.6993 12.36293898C239.04071 8.2820002 227.43203 19.465937 213.56094 21.041197c-13.8711 1.57526-29.97951-6.463684-37.13378-13.3270524-7.15426-6.86336795-5.34022-12.5434588-4.01966-12.820268Z" transform="translate(523.42421 417.48907)"/>
  </g>
  <g style="fill:url(#n)" transform="translate(444.85474 30.767563)">
    <path style="fill:url(#n);fill-rule:evenodd;stroke-width:7.2166" d="M-147.27626-30.767563a54.238861 49.491322 0 0 0-54.15484 48.733634 124.3096 89.720039 0 0 0-19.43223-1.148591 124.3096 89.720039 0 0 0-124.3103 89.72038 124.3096 89.720039 0 0 0 4.77013 23.16732 253.45675 38.594147 0 0 0-104.45124 31.04452 253.45675 38.594147 0 0 0 253.4556 38.5959 253.45675 38.594147 0 0 0 253.455603-38.5959 253.45675 38.594147 0 0 0-27.319856-17.15147 104.66635 74.645622 0 0 0 24.683819-47.593184A104.66635 74.645622 0 0 0-45.245938 21.358892a104.66635 74.645622 0 0 0-49.94128 9.449396 54.238861 49.491322 0 0 0 2.15117-12.084637 54.238861 49.491322 0 0 0-54.240212-49.491214z"/>
    <path style="fill:url(#n);fill-rule:evenodd;stroke-width:6.23348" d="M876.808 94.921627c-30.92758.0291-59.83641 16.917113-77.20234 45.100243-16.72326-16.78078-38.98278-26.15387-62.13994-26.16606-49.65052-.0007-89.9005 42.16475-89.90022 94.17854.0546 19.22246 5.72274 37.96712 16.24317 53.71641-33.94586 4.41472-52.97045 10.25785-53.20257 16.3404.26245 8.96038 41.13496 17.15105 105.89618 21.22113 6.85469 1.82622 29.18201 2.34675 33.24252 1.63046 17.7898.67722 36.27776 1.03529 54.89522 1.0632 23.88333-.0117 77.33914-1.82147 79.90717-2.21915 62.4558-3.51438 105.19499-10.83549 112.38767-19.25171 12.83874-8.51035 20.43414-21.88242 20.51264-36.11302-.01-23.77204-20.68144-43.50241-47.37136-45.20727.0454-.48012.0884-.96059.12792-1.44137-.00008-56.80393-41.81498-102.852403-93.39606-102.851803Z"/>
    <path style="fill:url(#n);fill-rule:evenodd;stroke-width:7.88177" d="M-86.326966 338.76875a69.944046 59.934441 0 0 0-68.756584 49.59711 45.288769 33.508801 0 0 0-11.50219-1.10786 45.288769 33.508801 0 0 0-45.29193 33.5087 45.288769 33.508801 0 0 0 7.7428 18.7155 148.10652 8.0820684 0 0 0-111.60877 7.8039 148.10652 8.0820684 0 0 0 148.10706 8.08086 148.10652 8.0820684 0 0 0 57.02222-.65168 69.944046 59.934441 0 0 0 24.287394 3.92231 69.944046 59.934441 0 0 0 29.98961-6.04028 148.10652 8.0820684 0 0 0 36.807841-5.31121 148.10652 8.0820684 0 0 0-20.348791-4.08523 69.944046 59.934441 0 0 0 23.497232-44.4977 69.944046 59.934441 0 0 0-69.945892-59.93442z"/>
  </g>
  <path style="fill:#def86b;fill-opacity:1;fill-rule:evenodd;stroke:none;stroke-width:7.88177;stroke-opacity:1" d="m194.10445 311.15086-29.39843 189.36913-12.41915-191.23468-189.369129-29.39843 191.234669-12.41915 29.39843-189.369126L195.97 269.33328l189.36913 29.39843Z" transform="matrix(-.35366183 .30694452 -.24447918 -.26058278 594.75162 728.88098)"/>
  <path style="fill:#def86b;fill-opacity:1;fill-rule:evenodd;stroke:none;stroke-width:7.88177;stroke-opacity:1" d="m1163.5238 496.1384-55.6651-67.42771-77.9053 39.69716 67.4277-55.66515-39.6972-77.90534 55.6652 67.42772 77.9053-39.69716-67.4277 55.66515z" transform="translate(96.293196 127.74022)"/>
  <path style="fill:#def86b;fill-opacity:1;fill-rule:evenodd;stroke:none;stroke-width:7.88177;stroke-opacity:1" d="m329.16887 690.31611 11.90029-55.87978-51.9629-23.74915 55.87977 11.90029 23.74916-51.9629-11.9003 55.87977 51.9629 23.74916-55.87977-11.9003z"/>
  <path style="fill:#def86b;fill-opacity:1;fill-rule:evenodd;stroke:none;stroke-width:7.88177;stroke-opacity:1" d="m1028.9983-26.292036-46.10767-42.011442-51.02023 35.886111 42.01144-46.107657-35.88611-51.020236 46.10766 42.011442 51.02021-35.886112-42.01142 46.107659z" transform="matrix(.79457179 .19055185 -.17905824 .74664523 -656.38183 218.39316)"/>
</svg>
